<svg width="258" height="68" viewBox="0 0 258 68" fill="none" xmlns="http://www.w3.org/2000/svg">
<path d="M202.118 12.1116C203.226 1.8159 205.261 0 215.239 0C217.928 0 220.619 0 223.31 0C229.897 0.0277661 233.33 3.44855 233.488 10.1291C233.502 10.6288 233.538 11.1286 233.588 12.0921C236.448 12.0921 239.291 11.8145 242.057 12.1671C244.998 12.5336 248.149 12.9556 250.707 14.3051C255.314 16.7346 257.803 21.0078 257.878 26.2972C258.011 35.485 258.074 44.6784 257.861 53.8634C257.679 61.7684 251.391 67.7797 243.527 67.9602C239.928 68.0407 236.329 67.9741 232.353 67.9741C232.353 63.5121 232.314 59.1667 232.411 54.8213C232.411 54.3687 233.17 53.8134 233.693 53.5135C236.739 51.7782 238.372 49.1765 238.4 45.6891C238.463 39.7027 238.472 33.7163 238.367 27.7327C238.353 26.9442 237.536 26.1695 237.082 25.3865C236.592 26.2195 235.697 27.0136 235.673 27.8466C235.529 32.042 235.606 36.243 235.606 40.3691C233.723 41.0882 233.554 40.1386 233.563 38.8558C233.59 35.2296 233.654 31.6006 233.51 27.9826C233.474 27.1025 232.68 26.2528 232.25 25.3893C231.771 26.2223 230.916 27.0303 230.866 27.8882C230.719 31.5895 230.783 35.3046 230.822 39.0141C230.838 40.4968 230.326 41.0494 228.676 40.358C228.676 36.2791 228.748 32.1587 228.618 28.041C228.59 27.1524 227.829 26.2861 227.405 25.4115C226.915 26.3083 226.048 27.1858 226.004 28.1048C225.838 31.5534 226.004 35.0158 225.896 38.4699C225.877 39.2085 225.312 39.9304 224.999 40.6578C224.636 39.8915 223.988 39.1363 223.961 38.356C223.847 34.9047 224 31.4423 223.847 27.991C223.806 27.108 223.003 26.2611 222.551 25.3976C222.067 26.2306 221.167 27.0386 221.167 27.8744C221.048 33.7746 221.079 39.6777 221.12 45.578C221.148 49.0626 222.707 51.6671 225.722 53.4774C226.372 53.8689 227.087 54.7908 227.106 55.4905C227.236 59.5277 227.17 63.5732 227.17 67.8047H204.743V58.1449C204.743 56.8816 204.555 55.5766 204.801 54.3632C205.006 53.358 205.493 52.1613 206.255 51.5588C212.861 46.3693 213.232 32.7306 206.85 27.2107C203.683 24.4702 199.704 24.7423 196.75 27.9604C190.858 34.3744 192.043 47.8215 198.585 51.8392C199.067 52.1363 199.585 52.8416 199.593 53.3636C199.671 58.1449 199.64 62.929 199.64 67.6826C196.116 67.6826 192.793 68.1296 189.639 67.5909C186.408 67.0398 183.471 65.3701 181.34 62.8722C179.208 60.3742 178.018 57.2061 177.975 53.9189C177.786 44.6506 177.764 35.3684 177.994 26.1001C178.193 18.2506 184.473 12.3642 192.458 12.1143C195.637 12.0283 198.823 12.1116 202.118 12.1116ZM225.877 11.9394C226.527 7.81615 226.09 7.26638 222.305 7.25805H213.509C209.743 7.25805 209.289 7.84669 209.979 11.9394H225.877Z" fill="#F6F6F6"/>
<path d="M0 31.1397C0.021636 29.8868 0.13826 28.6374 0.348862 27.4023H5.76729C5.53195 28.8628 5.41566 30.3233 5.35752 31.2563C4.77608 41.0105 9.31959 43.5927 15.552 43.5927H31.3339C35.1215 43.5927 36.2262 42.5404 36.2262 38.2783C36.2166 36.1233 35.6976 34.0013 34.7117 32.0865C33.5489 29.8652 30.985 26.7721 22.424 26.7721C21.5491 26.7721 19.395 26.5971 17.5317 27.0636L14.3975 22.8459L36.7634 5.90863L39.9059 10.1124L24.7526 21.6187C26.2829 21.6996 27.8033 21.9151 29.2961 22.2628C35.5285 23.7233 37.9733 27.0525 39.3715 29.6792C40.7906 32.3204 41.5506 35.2671 41.5865 38.2672C41.5865 46.7942 39.3715 48.9544 31.3422 48.9544H15.6102C5.41566 48.9544 0 44.634 0 31.1397Z" fill="#F6F6F6"/>
<path d="M47.5808 59.2944V59.175L50.1447 54.9768H50.2028C52.5895 56.1458 55.1533 57.0204 58.2322 57.0204C63.706 57.0204 67.142 53.8662 67.2001 48.9682H61.4439C59.6309 48.9693 57.8355 48.6121 56.1603 47.9169C54.4851 47.2217 52.963 46.2023 51.6809 44.9168C50.3988 43.6313 49.3819 42.105 48.6884 40.4252C47.9948 38.7454 47.6382 36.945 47.639 35.1268C47.639 27.183 53.8132 20.9328 61.4439 20.9328C64.0625 20.9416 66.6255 21.6903 68.8392 23.093L69.5397 21.5159H72.5687V43.5927H78.4495V48.9655H72.5687C72.3943 57.2592 67.0312 62.0488 58.1242 62.0488C54.1621 62.0377 50.6098 61.1048 47.5808 59.2944ZM67.2084 43.5927V28.2797C65.6358 26.7609 63.6561 25.8224 61.4439 25.8224C56.7841 25.8224 52.9992 29.9124 52.9992 35.1102C52.9948 36.2235 53.2103 37.3267 53.6331 38.3562C54.0559 39.3857 54.6778 40.321 55.4628 41.1082C56.2479 41.8955 57.1805 42.5191 58.2071 42.9432C59.2336 43.3672 60.3337 43.5832 61.4439 43.5788L67.2084 43.5927Z" fill="#F6F6F6"/>
<path d="M78.1589 43.5927H85.0808V20.919H90.4383V43.5927H97.662V48.9655H78.1589V43.5927ZM79.7399 12.6836C79.7413 11.7701 80.1038 10.8945 80.7479 10.2486C81.3919 9.60276 82.2651 9.23925 83.1759 9.23778C83.8718 9.22626 84.5553 9.42342 85.1387 9.80397C85.7221 10.1845 86.179 10.7311 86.4506 11.3738C86.7222 12.0164 86.7963 12.7257 86.6634 13.4108C86.5304 14.0959 86.1964 14.7256 85.7043 15.2191C85.2122 15.7127 84.5843 16.0476 83.9011 16.1809C83.2179 16.3143 82.5106 16.24 81.8698 15.9676C81.229 15.6951 80.684 15.237 80.3045 14.6519C79.925 14.0668 79.7284 13.3814 79.7399 12.6836ZM88.9404 12.6836C88.9419 11.7701 89.3044 10.8945 89.9484 10.2486C90.5925 9.60276 91.4656 9.23925 92.3764 9.23778C93.072 9.22793 93.7547 9.42651 94.337 9.80809C94.9194 10.1897 95.3749 10.7369 95.6453 11.3797C95.9156 12.0225 95.9885 12.7315 95.8546 13.4161C95.7207 14.1007 95.386 14.7296 94.8935 15.2223C94.401 15.715 93.7731 16.049 93.0902 16.1817C92.4072 16.3143 91.7003 16.2395 91.06 15.9668C90.4197 15.6942 89.8752 15.236 89.4961 14.6511C89.117 14.0662 88.9206 13.3811 88.9321 12.6836H88.9404Z" fill="#F6F6F6"/>
<path d="M97.3767 43.5927H99.4726C103.26 43.5927 104.249 42.5404 104.365 38.2783V24.1315H109.725V38.2672C109.667 40.4274 109.551 42.1794 109.199 43.5816H114.903C118.688 43.5816 119.679 42.5293 119.795 38.2672V24.1315H125.147V38.2672C125.089 40.4274 124.973 42.1794 124.624 43.5816H130.214C134.002 43.5816 134.99 42.5293 135.106 38.2672V20.9189H140.467V38.3172C140.348 46.3693 138.426 48.7128 131.33 48.946H123.763L122.888 46.9246C121.432 48.3268 119.217 48.8516 115.897 48.9682H108.327L107.452 46.9246C105.88 48.4434 103.377 48.9682 99.4726 48.9682H97.3767V43.5927Z" fill="#F6F6F6"/>
<path d="M140.126 60.9882L140.065 60.9271L141.76 56.665L141.818 56.6067C143.016 57.1045 144.306 57.3429 145.603 57.3064C149.202 57.3064 151.544 54.1521 151.544 49.071V20.9189H156.902V48.7211C156.902 57.3064 152.824 62.3265 145.719 62.3265C143.975 62.3293 142.106 61.8628 140.126 60.9882Z" fill="#F6F6F6"/>
</svg>
