<svg width="30" height="30" viewBox="0 0 30 30" fill="none" xmlns="http://www.w3.org/2000/svg">
<g id="Briefcase">
<path id="Union" fill-rule="evenodd" clip-rule="evenodd" d="M15 1.75002L14.9047 1.75001C14.0667 1.74988 13.5332 1.74981 13.0733 1.84129C11.189 2.21609 9.71608 3.68906 9.34127 5.57334C9.2761 5.90099 9.25739 6.26595 9.25207 6.75179C7.96221 6.75787 6.89198 6.78471 6.01098 6.90315C4.83856 7.06078 3.88961 7.3929 3.14124 8.14126C2.39288 8.88962 2.06076 9.83857 1.90314 11.011C1.74997 12.1502 1.74998 13.6058 1.75 15.4436L1.75 15.5V18.25L1.75 18.3064C1.74998 20.1442 1.74997 21.5998 1.90314 22.739C2.06076 23.9115 2.39288 24.8604 3.14124 25.6088C3.88961 26.3571 4.83856 26.6893 6.01098 26.8469C7.15018 27 8.6058 27 10.4435 27H10.4436H10.5H19.5H19.5564H19.5565C21.3942 27 22.8498 27 23.989 26.8469C25.1614 26.6893 26.1104 26.3571 26.8588 25.6088C27.6071 24.8604 27.9392 23.9115 28.0969 22.739C28.25 21.5998 28.25 20.1442 28.25 18.3065V18.3064V18.25V15.5V15.4436V15.4436C28.25 13.6058 28.25 12.1502 28.0969 11.011C27.9392 9.83857 27.6071 8.88962 26.8588 8.14126C26.1104 7.3929 25.1614 7.06078 23.989 6.90315C23.108 6.78471 22.0378 6.75787 20.7479 6.75179C20.7426 6.26595 20.7239 5.90099 20.6587 5.57334C20.2839 3.68906 18.811 2.21609 16.9267 1.84129C16.4668 1.74981 15.9333 1.74988 15.0953 1.75001L15 1.75002ZM19.2473 6.75002C19.2423 6.30811 19.2279 6.06882 19.1876 5.86597C18.9311 4.57673 17.9233 3.56891 16.634 3.31247C16.3384 3.25365 15.9653 3.25002 15 3.25002C14.0347 3.25002 13.6616 3.25365 13.366 3.31247C12.0767 3.56891 11.0689 4.57673 10.8124 5.86597C10.7721 6.06882 10.7577 6.30811 10.7527 6.75002H19.2473ZM6.21085 8.38978C5.20476 8.52504 4.62511 8.77871 4.2019 9.20192C3.77869 9.62513 3.52502 10.2048 3.38976 11.2109C3.32107 11.7218 3.28614 12.3135 3.26837 13.0137C3.32266 13.0243 3.37662 13.0411 3.42932 13.0645L3.42939 13.0646C3.42947 13.0646 3.42956 13.0646 3.25964 13.4471L3.42961 13.0647L3.43148 13.0655L3.44143 13.0698L3.48514 13.0887C3.5247 13.1057 3.58488 13.1312 3.66447 13.1639C3.82367 13.2295 4.06039 13.3242 4.36491 13.4384C4.9742 13.6669 5.85336 13.9728 6.92479 14.2789C7.62708 14.4795 8.40928 14.6795 9.25 14.8578V13.75C9.25 13.3358 9.58579 13 10 13C10.4142 13 10.75 13.3358 10.75 13.75V15.1392C12.0879 15.3568 13.528 15.5 15 15.5C16.472 15.5 17.9121 15.3568 19.25 15.1392V13.75C19.25 13.3358 19.5858 13 20 13C20.4142 13 20.75 13.3358 20.75 13.75V14.8578C21.5907 14.6795 22.3729 14.4795 23.0752 14.2789C24.1466 13.9728 25.0258 13.6669 25.6351 13.4384C25.9396 13.3242 26.1763 13.2295 26.3355 13.1639C26.4151 13.1312 26.4753 13.1057 26.5149 13.0887L26.5586 13.0698L26.5685 13.0655L26.5704 13.0647L26.7404 13.4471L26.7404 13.4468L26.5706 13.0646C26.6233 13.0412 26.6773 13.0243 26.7316 13.0137C26.7139 12.3135 26.6789 11.7218 26.6102 11.2109C26.475 10.2048 26.2213 9.62513 25.7981 9.20192C25.3749 8.77871 24.7952 8.52504 23.7892 8.38978C22.7615 8.25161 21.4068 8.25002 19.5 8.25002H10.5C8.59318 8.25002 7.23851 8.25161 6.21085 8.38978ZM19.25 16.6579V17.5C19.25 17.9142 19.5858 18.25 20 18.25C20.4142 18.25 20.75 17.9142 20.75 17.5V16.3897C21.7505 16.1871 22.6733 15.9537 23.4873 15.7212C24.6034 15.4023 25.5211 15.0832 26.1618 14.8429C26.3956 14.7552 26.5927 14.678 26.7493 14.615C26.75 14.8961 26.75 15.1908 26.75 15.5V18.25C26.75 20.1568 26.7484 21.5115 26.6102 22.5392C26.475 23.5453 26.2213 24.1249 25.7981 24.5481C25.3749 24.9713 24.7952 25.225 23.7892 25.3603C22.7615 25.4984 21.4068 25.5 19.5 25.5H10.5C8.59318 25.5 7.23851 25.4984 6.21085 25.3603C5.20476 25.225 4.62511 24.9713 4.2019 24.5481C3.77869 24.1249 3.52502 23.5453 3.38976 22.5392C3.25159 21.5115 3.25 20.1568 3.25 18.25V15.5C3.25 15.1908 3.25004 14.8961 3.2507 14.615C3.40733 14.678 3.60443 14.7552 3.83822 14.8429C4.47893 15.0832 5.39664 15.4023 6.51271 15.7212C7.32666 15.9537 8.24948 16.1871 9.25 16.3897V17.5C9.25 17.9142 9.58579 18.25 10 18.25C10.4142 18.25 10.75 17.9142 10.75 17.5V16.6579C12.0887 16.8652 13.5258 17 15 17C16.4742 17 17.9113 16.8652 19.25 16.6579Z" fill="#B3B3B3"/>
</g>
</svg>
