<svg width="24" height="24" viewBox="0 0 24 24" fill="none" xmlns="http://www.w3.org/2000/svg">
<g id="Eye - Slash">
<path id="Icon" fill-rule="evenodd" clip-rule="evenodd" d="M3.53023 2.46967C3.23734 2.17678 2.76247 2.17678 2.46957 2.46967C2.17668 2.76256 2.17668 3.23744 2.46957 3.53033L5.13723 6.19798C3.91106 7.01858 2.99173 8.00408 2.35714 8.96365C1.64412 10.0418 1.25 11.1513 1.25 12C1.25 12.6616 1.48923 13.4704 1.91294 14.2839C2.34365 15.1109 2.99041 15.9926 3.86629 16.8011C5.62703 18.4264 8.30768 19.75 12 19.75C14.1796 19.75 16.0109 19.2887 17.5107 18.5715L20.4696 21.5303C20.7625 21.8232 21.2373 21.8232 21.5302 21.5303C21.8231 21.2374 21.8231 20.7626 21.5302 20.4697L3.53023 2.46967ZM16.3748 17.4356L14.0679 15.1286C13.4751 15.521 12.7637 15.75 11.9999 15.75C9.92883 15.75 8.2499 14.0711 8.2499 12C8.2499 11.2362 8.47885 10.5248 8.87127 9.93203L6.22202 7.28277C5.0408 8.01878 4.17938 8.92751 3.60829 9.79107C2.98821 10.7287 2.75 11.5501 2.75 12C2.75 12.3384 2.88577 12.9045 3.24331 13.591C3.59385 14.2641 4.13459 15.0074 4.88371 15.6989C6.37297 17.0736 8.69232 18.25 12 18.25C13.7211 18.25 15.1715 17.9315 16.3748 17.4356ZM9.96904 11.0298C9.82845 11.3234 9.7499 11.6522 9.7499 12C9.7499 13.2426 10.7573 14.25 11.9999 14.25C12.3477 14.25 12.6765 14.1715 12.9701 14.0309L9.96904 11.0298ZM12 5.74998C10.9594 5.74998 10.0189 5.8664 9.17331 6.06725C8.7703 6.16296 8.36601 5.91385 8.2703 5.51085C8.17458 5.10785 8.42369 4.70356 8.82669 4.60784C9.78973 4.37912 10.8467 4.24998 12 4.24998C15.6923 4.24998 18.373 5.57357 20.1337 7.19887C21.0096 8.00738 21.6564 8.88906 22.0871 9.71602C22.5108 10.5295 22.75 11.3384 22.75 12C22.75 13.2107 21.9456 15.0051 20.4152 16.5311C20.1218 16.8235 19.647 16.8229 19.3545 16.5295C19.062 16.2362 19.0627 15.7613 19.3561 15.4689C20.7151 14.1138 21.25 12.6791 21.25 12C21.25 11.6616 21.1142 11.0954 20.7567 10.4089C20.4061 9.73589 19.8654 8.99257 19.1163 8.30108C17.627 6.92638 15.3077 5.74998 12 5.74998Z" fill="#22282F"/>
</g>
</svg>
