<svg width="16" height="16" viewBox="0 0 16 16" fill="none" xmlns="http://www.w3.org/2000/svg">
<g id="Award">
<path id="Union" fill-rule="evenodd" clip-rule="evenodd" d="M8.00065 0.833252C5.14718 0.833252 2.83398 3.14645 2.83398 5.99992C2.83398 7.65321 3.61053 9.12514 4.81877 10.0708L4.17234 14.5959C4.1471 14.7726 4.21799 14.9494 4.35836 15.0597C4.49872 15.17 4.68726 15.1971 4.85301 15.1308L8.00065 13.8718L11.1483 15.1308C11.314 15.1971 11.5026 15.17 11.6429 15.0597C11.7833 14.9494 11.8542 14.7726 11.829 14.5959L11.1825 10.0708C12.3908 9.12514 13.1673 7.65321 13.1673 5.99992C13.1673 3.14645 10.8541 0.833251 8.00065 0.833252ZM10.2551 10.6501C9.57384 10.981 8.80892 11.1666 8.00065 11.1666C7.19238 11.1666 6.42746 10.981 5.74618 10.6501L5.2846 13.8812L7.81496 12.869C7.93416 12.8213 8.06714 12.8213 8.18635 12.869L10.7167 13.8812L10.2551 10.6501ZM3.83398 5.99992C3.83398 3.69873 5.69946 1.83325 8.00065 1.83325C10.3018 1.83325 12.1673 3.69873 12.1673 5.99992C12.1673 8.3011 10.3018 10.1666 8.00065 10.1666C5.69947 10.1666 3.83398 8.30111 3.83398 5.99992Z" fill="#22282F"/>
</g>
</svg>
