<svg width="16" height="16" viewBox="0 0 16 16" fill="none" xmlns="http://www.w3.org/2000/svg">
<g id="Bed - 2">
<path id="Union" fill-rule="evenodd" clip-rule="evenodd" d="M5.33399 2.16675L5.29932 2.16675C4.70033 2.16673 4.20085 2.16671 3.80433 2.22002C3.3858 2.27629 3.00794 2.40007 2.70429 2.70372C2.40064 3.00737 2.27686 3.38523 2.22059 3.80376C2.16728 4.20028 2.1673 4.69976 2.16732 5.29875V5.29875L2.16732 5.33342V7.60947C1.86943 7.68217 1.59922 7.80879 1.37096 8.03705C1.06731 8.3407 0.94353 8.71857 0.88726 9.1371C0.856064 9.36913 0.843129 9.63642 0.837769 9.93827C0.835272 9.95853 0.833986 9.97915 0.833986 10.0001V10.5641C0.833984 10.5866 0.833984 10.6093 0.833985 10.6321L0.833986 10.6667V11.3334V14.0001C0.833986 14.2762 1.05784 14.5001 1.33399 14.5001C1.61013 14.5001 1.83399 14.2762 1.83399 14.0001V11.8334H14.1673V14.0001C14.1673 14.2762 14.3912 14.5001 14.6673 14.5001C14.9435 14.5001 15.1673 14.2762 15.1673 14.0001V11.3334V10.6667V10.6321C15.1673 10.6121 15.1673 10.5921 15.1673 10.5723V10.0001C15.1673 9.97915 15.166 9.95852 15.1635 9.93827C15.1582 9.63642 15.1452 9.36913 15.114 9.1371C15.0578 8.71857 14.934 8.3407 14.6303 8.03705C14.4021 7.80879 14.1319 7.68217 13.834 7.60947V5.33342V5.29876C13.834 4.69977 13.834 4.20029 13.7807 3.80376C13.7244 3.38523 13.6007 3.00737 13.297 2.70372C12.9934 2.40007 12.6155 2.27629 12.197 2.22002C11.8005 2.16671 11.301 2.16673 10.702 2.16675L10.6673 2.16675H5.33399ZM12.0007 8.50008H11.334H10.6673H9.60065H8.00065H6.40065H5.33399H4.66732H4.00065C3.35798 8.50008 2.92627 8.50114 2.60425 8.54444C2.29661 8.5858 2.16494 8.65728 2.07806 8.74416C1.99119 8.83104 1.9197 8.9627 1.87834 9.27034C1.83505 9.59237 1.83399 10.0241 1.83399 10.6667V10.8334H14.1673V10.6667C14.1673 10.0241 14.1663 9.59237 14.123 9.27034C14.0816 8.9627 14.0101 8.83104 13.9232 8.74416C13.8364 8.65728 13.7047 8.5858 13.3971 8.54444C13.075 8.50114 12.6433 8.50008 12.0007 8.50008ZM12.1055 7.50008H12.834V5.33342C12.834 4.69074 12.8329 4.25904 12.7896 3.93701C12.7483 3.62937 12.6768 3.4977 12.5899 3.41083C12.503 3.32395 12.3714 3.25247 12.0637 3.21111C11.7417 3.16781 11.31 3.16675 10.6673 3.16675H5.33399C4.69131 3.16675 4.25961 3.16781 3.93758 3.21111C3.62994 3.25247 3.49827 3.32395 3.4114 3.41083C3.32452 3.4977 3.25304 3.62937 3.21168 3.93701C3.16838 4.25904 3.16732 4.69074 3.16732 5.33342V7.50008H3.89577C3.91902 7.50008 3.94243 7.50008 3.96599 7.50008L4.00065 7.50008H4.16837C4.17121 7.10307 4.18174 6.75941 4.22059 6.47043C4.27686 6.0519 4.40064 5.67403 4.70429 5.37039C5.00794 5.06674 5.3858 4.94296 5.80433 4.88669C6.20085 4.83338 6.70033 4.8334 7.29931 4.83342H7.29932L7.33399 4.83342H8.00065H8.66732L8.70199 4.83342H8.70199C9.30097 4.8334 9.80045 4.83338 10.197 4.88669C10.6155 4.94296 10.9934 5.06674 11.297 5.37039C11.6007 5.67403 11.7244 6.0519 11.7807 6.47043C11.8196 6.75941 11.8301 7.10307 11.8329 7.50008H12.0007L12.0353 7.50008C12.0589 7.50008 12.0823 7.50008 12.1055 7.50008ZM10.8328 7.50008C10.83 7.12046 10.8206 6.83401 10.7896 6.60368C10.7483 6.29604 10.6768 6.16437 10.5899 6.07749C10.503 5.99062 10.3714 5.91913 10.0637 5.87777C9.7417 5.83448 9.31 5.83342 8.66732 5.83342H8.50065V7.50008H9.60065H10.6673H10.8328ZM7.50065 7.50008V5.83342H7.33399C6.69131 5.83342 6.2596 5.83448 5.93758 5.87777C5.62994 5.91913 5.49827 5.99062 5.4114 6.07749C5.32452 6.16437 5.25304 6.29604 5.21168 6.60368C5.18071 6.83401 5.17135 7.12046 5.16853 7.50008H5.33399H6.40065H7.50065Z" fill="#22282F"/>
</g>
</svg>
