<svg width="16" height="16" viewBox="0 0 16 16" fill="none" xmlns="http://www.w3.org/2000/svg">
<g id="Book - Open">
<path id="Union" fill-rule="evenodd" clip-rule="evenodd" d="M5.33944 1.67473C6.24292 1.839 7.06718 2.15442 8 2.73803C8.93282 2.15442 9.75708 1.839 10.6606 1.67473C11.6217 1.49997 12.6607 1.49998 13.9633 1.5H14C14.2761 1.5 14.5 1.72386 14.5 2V10C14.5 10.2761 14.2761 10.5 14 10.5C12.6532 10.5 11.7026 10.5017 10.8394 10.6586C9.99807 10.8116 9.22786 11.1157 8.27735 11.7494C8.1094 11.8613 7.8906 11.8613 7.72265 11.7494C6.77214 11.1157 6.00194 10.8116 5.16056 10.6586C4.2974 10.5017 3.34683 10.5 2 10.5C1.72386 10.5 1.5 10.2761 1.5 10V2C1.5 1.86739 1.55268 1.74022 1.64645 1.64645C1.74021 1.55268 1.86739 1.5 2 1.5H2.03668C3.33931 1.49999 4.37827 1.49997 5.33944 1.67473ZM5.16056 2.6586C5.93527 2.79946 6.64965 3.06845 7.5 3.60486V10.4451C6.76432 10.0445 6.07838 9.80908 5.33944 9.67473C4.49501 9.5212 3.59055 9.50256 2.5 9.50031V2.50041C3.58957 2.50299 4.40826 2.52182 5.16056 2.6586ZM10.6606 9.67473C9.92162 9.80908 9.23568 10.0445 8.5 10.4451V3.60486C9.35035 3.06845 10.0647 2.79946 10.8394 2.6586C11.5917 2.52182 12.4104 2.50299 13.5 2.50041V9.50031C12.4095 9.50256 11.505 9.5212 10.6606 9.67473ZM2 11.8333C1.72386 11.8333 1.5 12.0572 1.5 12.3333C1.5 12.6095 1.72386 12.8333 2 12.8333C3.31584 12.8333 4.26458 12.9162 5.11844 13.149C5.96704 13.3805 6.75082 13.7681 7.72265 14.416C7.8906 14.528 8.1094 14.528 8.27735 14.416C9.24918 13.7681 10.033 13.3805 10.8816 13.149C11.7354 12.9162 12.6842 12.8333 14 12.8333C14.2761 12.8333 14.5 12.6095 14.5 12.3333C14.5 12.0572 14.2761 11.8333 14 11.8333C12.6492 11.8333 11.5979 11.9172 10.6184 12.1843C9.72334 12.4284 8.9124 12.8189 8 13.4027C7.0876 12.8189 6.27666 12.4284 5.38156 12.1843C4.40209 11.9172 3.35082 11.8333 2 11.8333Z" fill="#22282F"/>
</g>
</svg>
