<svg width="16" height="16" viewBox="0 0 16 16" fill="none" xmlns="http://www.w3.org/2000/svg">
<g id="Briefcase">
<path id="Union" fill-rule="evenodd" clip-rule="evenodd" d="M5.89192 3.50009C6.11758 2.54444 6.97606 1.83325 8.00065 1.83325C9.02524 1.83325 9.88373 2.54444 10.1094 3.50009C9.97666 3.49992 9.84021 3.49992 9.69993 3.49992H9.66732H6.33398H6.30138C6.1611 3.49992 6.02465 3.49992 5.89192 3.50009ZM4.87173 3.50953C5.10741 1.99349 6.41854 0.833252 8.00065 0.833252C9.58276 0.833252 10.8939 1.99349 11.1296 3.50953C11.5632 3.51933 11.946 3.53911 12.2838 3.57904C12.9711 3.66028 13.5369 3.83084 14.0096 4.21872C14.1699 4.35031 14.3169 4.49733 14.4485 4.65767C14.8364 5.1303 15.007 5.6961 15.0882 6.38342C15.1673 7.0529 15.1673 7.89914 15.1673 8.96731V8.99992V9.03253C15.1673 10.1007 15.1673 10.9469 15.0882 11.6164C15.007 12.3037 14.8364 12.8695 14.4485 13.3422C14.3169 13.5025 14.1699 13.6495 14.0096 13.7811C13.5369 14.169 12.9711 14.3396 12.2838 14.4208C11.6143 14.4999 10.7681 14.4999 9.69993 14.4999H9.66732H6.33398H6.30137C5.2332 14.4999 4.38696 14.4999 3.71748 14.4208C3.03017 14.3396 2.46437 14.169 1.99174 13.7811C1.8314 13.6495 1.68437 13.5025 1.55278 13.3422C1.16491 12.8695 0.994348 12.3037 0.913105 11.6164C0.83397 10.9469 0.833976 10.1007 0.833985 9.03253L0.833985 8.99992L0.833985 8.96731C0.833976 7.89914 0.83397 7.0529 0.913105 6.38342C0.994348 5.6961 1.16491 5.1303 1.55278 4.65767C1.68437 4.49733 1.8314 4.35031 1.99174 4.21872C2.46437 3.83084 3.03017 3.66028 3.71748 3.57904C4.05529 3.53911 4.4381 3.51933 4.87173 3.50953ZM3.83487 4.57212C3.24197 4.64221 2.89107 4.7743 2.62613 4.99173C2.51643 5.08176 2.41583 5.18236 2.3258 5.29207C2.10837 5.557 1.97627 5.9079 1.90619 6.5008C1.89224 6.61886 1.88098 6.74392 1.87189 6.87701L1.8761 6.87885L1.89878 6.88865C1.91946 6.89751 1.95112 6.91091 1.99311 6.9282C2.07711 6.96279 2.20237 7.01292 2.36371 7.07342C2.68658 7.19449 3.15289 7.35674 3.72135 7.51916C4.06025 7.61599 4.43397 7.71244 4.83398 7.8002V7.33325C4.83398 7.05711 5.05784 6.83325 5.33398 6.83325C5.61013 6.83325 5.83398 7.05711 5.83398 7.33325V7.98886C6.51908 8.09661 7.25228 8.16659 8.00065 8.16659C8.74903 8.16659 9.48223 8.09661 10.1673 7.98886V7.33325C10.1673 7.05711 10.3912 6.83325 10.6673 6.83325C10.9435 6.83325 11.1673 7.05711 11.1673 7.33325V7.8002C11.5673 7.71244 11.9411 7.61599 12.28 7.51916C12.8484 7.35674 13.3147 7.19449 13.6376 7.07342C13.7989 7.01292 13.9242 6.96279 14.0082 6.9282C14.0502 6.91091 14.0818 6.89751 14.1025 6.88865L14.1252 6.87885L14.1294 6.87701C14.1203 6.74392 14.1091 6.61886 14.0951 6.5008C14.025 5.9079 13.8929 5.557 13.6755 5.29207C13.5855 5.18236 13.4849 5.08176 13.3752 4.99173C13.1102 4.7743 12.7593 4.64221 12.1664 4.57212C11.5625 4.50074 10.7754 4.49992 9.66732 4.49992H6.33398C5.22591 4.49992 4.43881 4.50074 3.83487 4.57212ZM10.1673 9.00041V9.33325C10.1673 9.6094 10.3912 9.83325 10.6673 9.83325C10.9435 9.83325 11.1673 9.6094 11.1673 9.33325V8.82267C11.6732 8.71792 12.1404 8.59904 12.5547 8.48068C13.1529 8.30976 13.6449 8.13868 13.9887 8.00975C14.0522 7.98593 14.1108 7.96353 14.164 7.94282C14.1672 8.2594 14.1673 8.60976 14.1673 8.99992C14.1673 10.108 14.1665 10.8951 14.0951 11.499C14.025 12.0919 13.8929 12.4428 13.6755 12.7078C13.5855 12.8175 13.4849 12.9181 13.3752 13.0081C13.1102 13.2255 12.7593 13.3576 12.1664 13.4277C11.5625 13.4991 10.7754 13.4999 9.66732 13.4999H6.33398C5.22591 13.4999 4.43881 13.4991 3.83487 13.4277C3.24197 13.3576 2.89107 13.2255 2.62613 13.0081C2.51643 12.9181 2.41583 12.8175 2.3258 12.7078C2.10837 12.4428 1.97627 12.0919 1.90619 11.499C1.8348 10.8951 1.83398 10.108 1.83398 8.99992C1.83398 8.60976 1.83409 8.2594 1.83733 7.94282C1.89055 7.96353 1.94906 7.98593 2.01259 8.00975C2.35639 8.13868 2.84841 8.30976 3.44662 8.48068C3.8609 8.59904 4.32813 8.71792 4.83398 8.82267V9.33325C4.83398 9.6094 5.05784 9.83325 5.33398 9.83325C5.61013 9.83325 5.83398 9.6094 5.83398 9.33325V9.00041C6.51938 9.1017 7.2509 9.16659 8.00065 9.16659C8.7504 9.16659 9.48192 9.1017 10.1673 9.00041Z" fill="#22282F"/>
</g>
</svg>
