<svg width="16" height="16" viewBox="0 0 16 16" fill="none" xmlns="http://www.w3.org/2000/svg">
<g id="Cash">
<path id="Union" fill-rule="evenodd" clip-rule="evenodd" d="M5.2974 2.16663L5.33398 2.16663H10.6673L10.7039 2.16663C11.1456 2.16662 11.5457 2.16661 11.9067 2.17544C11.9371 2.16966 11.9685 2.16663 12.0007 2.16663C12.0434 2.16663 12.0849 2.17199 12.1245 2.18209C12.4206 2.19312 12.6881 2.21199 12.9285 2.24431C13.5286 2.32499 14.0338 2.49758 14.4351 2.89886C14.8364 3.30014 15.009 3.80539 15.0896 4.40546C15.122 4.64583 15.1408 4.91333 15.1519 5.2094C15.162 5.24902 15.1673 5.29053 15.1673 5.33329C15.1673 5.36542 15.1643 5.39683 15.1585 5.42727C15.1673 5.78818 15.1673 6.18832 15.1673 6.62996V6.63006V6.66663V7.99996V8.03653V8.03662C15.1673 8.47826 15.1673 8.87841 15.1585 9.23932C15.1643 9.26976 15.1673 9.30117 15.1673 9.33329C15.1673 9.37606 15.162 9.41756 15.1519 9.45718C15.1408 9.75326 15.122 10.0208 15.0896 10.2611C15.009 10.8612 14.8364 11.3664 14.4351 11.7677C14.0338 12.169 13.5286 12.3416 12.9285 12.4223C12.6881 12.4546 12.4206 12.4735 12.1245 12.4845C12.0849 12.4946 12.0434 12.5 12.0007 12.5C11.9685 12.5 11.9371 12.4969 11.9067 12.4911C11.5458 12.5 11.1456 12.5 10.704 12.5H10.7039H10.6673H5.33398H5.29742H5.29732C4.85568 12.5 4.45554 12.5 4.09462 12.4911C4.06418 12.4969 4.03277 12.5 4.00065 12.5C3.95789 12.5 3.91638 12.4946 3.87677 12.4845C3.58069 12.4735 3.31319 12.4546 3.07282 12.4223C2.47275 12.3416 1.9675 12.169 1.56622 11.7677C1.16494 11.3664 0.992345 10.8612 0.911667 10.2611C0.87935 10.0208 0.860476 9.75326 0.849452 9.45718C0.839353 9.41756 0.833985 9.37606 0.833985 9.33329C0.833985 9.30117 0.837014 9.26976 0.842802 9.23932C0.833972 8.87839 0.833978 8.47822 0.833985 8.03654L0.833985 7.99996L0.833985 6.66663L0.833985 6.63004C0.833978 6.18837 0.833972 5.7882 0.842802 5.42726C0.837014 5.39683 0.833985 5.36541 0.833985 5.33329C0.833985 5.29053 0.839353 5.24902 0.849452 5.20941C0.860476 4.91333 0.87935 4.64583 0.911667 4.40546C0.992345 3.80539 1.16494 3.30014 1.56622 2.89886C1.9675 2.49758 2.47275 2.32499 3.07282 2.24431C3.31319 2.21199 3.58069 2.19312 3.87676 2.18209C3.91638 2.17199 3.95789 2.16663 4.00065 2.16663C4.03277 2.16663 4.06419 2.16966 4.09462 2.17544C4.45556 2.16661 4.85573 2.16662 5.2974 2.16663ZM14.1293 4.8302C14.121 4.72712 14.1109 4.63021 14.0986 4.53871C14.0328 4.04952 13.9125 3.79048 13.728 3.60597C13.5435 3.42146 13.2844 3.30116 12.7952 3.23539C12.7037 3.22309 12.6068 3.21299 12.5037 3.20469C12.5087 3.46953 12.5211 3.60698 12.5518 3.72152C12.6905 4.23916 13.0948 4.64348 13.6124 4.78218C13.727 4.81287 13.8644 4.82529 14.1293 4.8302ZM11.5025 3.16911C11.5073 3.49613 11.5246 3.75182 11.5858 3.98034C11.817 4.84307 12.4909 5.51694 13.3536 5.74811C13.5821 5.80934 13.8378 5.82666 14.1648 5.83149C14.1672 6.08288 14.1673 6.35988 14.1673 6.66663V7.99996C14.1673 8.30671 14.1672 8.58371 14.1648 8.8351C13.8378 8.83993 13.5821 8.85725 13.3536 8.91848C12.4909 9.14965 11.817 9.82352 11.5858 10.6862C11.5246 10.9148 11.5073 11.1705 11.5025 11.4975C11.2511 11.4999 10.9741 11.5 10.6673 11.5H5.33398C5.02724 11.5 4.75024 11.4999 4.49885 11.4975C4.49402 11.1705 4.4767 10.9148 4.41547 10.6862C4.1843 9.82352 3.51043 9.14965 2.6477 8.91848C2.41918 8.85725 2.16349 8.83993 1.83647 8.8351C1.83409 8.58371 1.83399 8.30671 1.83399 7.99996V6.66663C1.83399 6.35988 1.83409 6.08288 1.83647 5.83149C2.16349 5.82666 2.41918 5.80934 2.6477 5.74811C3.51043 5.51694 4.1843 4.84307 4.41547 3.98034C4.4767 3.75182 4.49402 3.49613 4.49885 3.16911C4.75024 3.16674 5.02724 3.16663 5.33398 3.16663L10.6673 3.16663C10.9741 3.16663 11.2511 3.16674 11.5025 3.16911ZM3.20607 3.23539C3.29757 3.22309 3.39448 3.21299 3.49756 3.20469C3.49265 3.46953 3.48023 3.60698 3.44954 3.72152C3.31084 4.23916 2.90652 4.64348 2.38888 4.78218C2.27434 4.81287 2.13689 4.82529 1.87205 4.8302C1.88035 4.72713 1.89045 4.63021 1.90275 4.53871C1.96852 4.04952 2.08882 3.79048 2.27332 3.60597C2.45783 3.42146 2.71688 3.30116 3.20607 3.23539ZM1.87205 9.83638C1.88035 9.93946 1.89045 10.0364 1.90275 10.1279C1.96852 10.6171 2.08882 10.8761 2.27332 11.0606C2.45783 11.2451 2.71688 11.3654 3.20607 11.4312C3.29757 11.4435 3.39448 11.4536 3.49756 11.4619C3.49265 11.1971 3.48023 11.0596 3.44954 10.9451C3.31084 10.4274 2.90652 10.0231 2.38888 9.8844C2.27434 9.85371 2.13689 9.8413 1.87205 9.83638ZM12.7952 11.4312C12.7037 11.4435 12.6068 11.4536 12.5037 11.4619C12.5087 11.1971 12.5211 11.0596 12.5518 10.9451C12.6905 10.4274 13.0948 10.0231 13.6124 9.8844C13.727 9.85371 13.8644 9.8413 14.1293 9.83638C14.121 9.93946 14.1109 10.0364 14.0986 10.1279C14.0328 10.6171 13.9125 10.8761 13.728 11.0606C13.5435 11.2451 13.2844 11.3654 12.7952 11.4312ZM8.58991 6.74424C8.26447 6.4188 7.73683 6.4188 7.4114 6.74424C7.08596 7.06968 7.08596 7.59731 7.4114 7.92275C7.73683 8.24819 8.26447 8.24819 8.58991 7.92275C8.91534 7.59731 8.91534 7.06968 8.58991 6.74424ZM6.70429 6.03713C7.42025 5.32117 8.58105 5.32117 9.29701 6.03713C10.013 6.75309 10.013 7.9139 9.29701 8.62986C8.58105 9.34582 7.42025 9.34582 6.70429 8.62986C5.98833 7.9139 5.98833 6.75309 6.70429 6.03713ZM3.33399 13.5C3.05784 13.5 2.83399 13.7238 2.83399 14C2.83399 14.2761 3.05784 14.5 3.33399 14.5H12.6673C12.9435 14.5 13.1673 14.2761 13.1673 14C13.1673 13.7238 12.9435 13.5 12.6673 13.5H3.33399Z" fill="#22282F"/>
</g>
</svg>
