<svg width="16" height="16" viewBox="0 0 16 16" fill="none" xmlns="http://www.w3.org/2000/svg">
<g id="Cutlery - 3">
<path id="Union" fill-rule="evenodd" clip-rule="evenodd" d="M2.66602 1.5C2.94216 1.5 3.16602 1.72386 3.16602 2V5.23951C3.16602 5.59796 3.16652 5.8329 3.18358 6.01589C3.19968 6.18857 3.22801 6.2779 3.26462 6.3463C3.30123 6.41471 3.35984 6.48783 3.49459 6.59702C3.63738 6.71272 3.83258 6.84345 4.13083 7.04229L4.16602 7.06574V2C4.16602 1.72386 4.38987 1.5 4.66602 1.5C4.94216 1.5 5.16602 1.72386 5.16602 2V7.06574L5.2012 7.04229C5.49945 6.84345 5.69465 6.71272 5.83744 6.59702C5.97219 6.48783 6.0308 6.41471 6.06741 6.3463C6.10402 6.2779 6.13235 6.18857 6.14846 6.01589C6.16552 5.8329 6.16602 5.59796 6.16602 5.23951V2C6.16602 1.72386 6.38987 1.5 6.66602 1.5C6.94216 1.5 7.16602 1.72386 7.16602 2V5.23951V5.26132V5.26135V5.26136C7.16603 5.59207 7.16604 5.87386 7.14414 6.10873C7.1208 6.35905 7.07025 6.59177 6.94909 6.81816C6.82793 7.04455 6.66233 7.2157 6.467 7.37398C6.28372 7.52248 6.04924 7.67879 5.77404 7.86224L5.7559 7.87434L5.16602 8.26759V14C5.16602 14.2761 4.94216 14.5 4.66602 14.5C4.38987 14.5 4.16602 14.2761 4.16602 14V8.26759L3.57613 7.87434L3.55799 7.86224L3.55798 7.86223L3.55797 7.86223C3.28279 7.67878 3.04831 7.52248 2.86504 7.37398C2.6697 7.2157 2.50411 7.04455 2.38295 6.81816C2.26179 6.59177 2.21124 6.35905 2.1879 6.10873C2.166 5.87385 2.16601 5.59205 2.16602 5.26132L2.16602 5.23951V2C2.16602 1.72386 2.38987 1.5 2.66602 1.5ZM11.3327 1.5C11.6088 1.5 11.8327 1.72386 11.8327 2V8.22611C12.3768 8.35446 12.8863 8.68083 13.281 9.10865C13.8011 9.67228 14.166 10.4567 14.166 11.3333C14.166 12.2099 13.8011 12.9944 13.281 13.558C12.7671 14.115 12.0588 14.5 11.3327 14.5C10.6066 14.5 9.89823 14.115 9.38433 13.558C8.86428 12.9944 8.49935 12.2099 8.49935 11.3333C8.49935 10.4567 8.86428 9.67228 9.38433 9.10865C9.77908 8.68083 10.2886 8.35445 10.8327 8.22611V2C10.8327 1.72386 11.0565 1.5 11.3327 1.5ZM11.3327 9.16667C10.9542 9.16667 10.4959 9.37859 10.1193 9.78678C9.7488 10.1883 9.49935 10.7372 9.49935 11.3333C9.49935 11.9295 9.7488 12.4784 10.1193 12.8799C10.4959 13.2881 10.9542 13.5 11.3327 13.5C11.7111 13.5 12.1695 13.2881 12.5461 12.8799C12.9166 12.4784 13.166 11.9295 13.166 11.3333C13.166 10.7372 12.9166 10.1883 12.5461 9.78678C12.1695 9.37859 11.7111 9.16667 11.3327 9.16667Z" fill="#22282F"/>
</g>
</svg>
