<svg width="32" height="32" viewBox="0 0 32 32" fill="none" xmlns="http://www.w3.org/2000/svg">
<g id="Eye - Slash 2">
<path id="Icon" fill-rule="evenodd" clip-rule="evenodd" d="M6.70841 5.29289C6.31789 4.90237 5.68472 4.90237 5.2942 5.29289C4.90367 5.68342 4.90367 6.31658 5.29419 6.70711L6.85104 8.26395C5.21611 9.35809 3.99029 10.6721 3.14415 11.9516C2.19346 13.3891 1.66797 14.8684 1.66797 16C1.66797 16.8821 1.98694 17.9606 2.55189 19.0453C3.12617 20.1479 3.98851 21.3235 5.15636 22.4015C7.50401 24.5685 11.0782 26.3333 16.0013 26.3333C18.9075 26.3333 21.3493 25.7182 23.349 24.7619L25.2942 26.7071C25.6847 27.0977 26.3179 27.0977 26.7084 26.7071C27.0989 26.3166 27.0989 25.6835 26.7084 25.2929L19.9319 18.5164C20.3976 17.7903 20.668 16.9263 20.668 16C20.668 13.4227 18.5786 11.3333 16.0013 11.3333C15.075 11.3333 14.211 11.6037 13.4849 12.0694L6.70841 5.29289ZM14.4593 13.0438L18.9575 17.542C19.1985 17.081 19.3346 16.5567 19.3346 16C19.3346 14.1591 17.8423 12.6667 16.0013 12.6667C15.4446 12.6667 14.9203 12.8028 14.4593 13.0438ZM21.8345 23.2474L18.5177 19.9307C17.7916 20.3963 16.9276 20.6667 16.0013 20.6667C13.424 20.6667 11.3346 18.5774 11.3346 16C11.3346 15.0738 11.605 14.2097 12.0707 13.4836L8.29743 9.71034C6.72242 10.6917 5.57382 11.9034 4.81235 13.0548C3.98559 14.305 3.66797 15.4002 3.66797 16C3.66797 16.4512 3.849 17.2061 4.32572 18.1214C4.7931 19.0188 5.51409 20.0099 6.51292 20.9319C8.49859 22.7648 11.5911 24.3333 16.0013 24.3333C18.2962 24.3333 20.2301 23.9087 21.8345 23.2474ZM13.0451 14.4581C12.8041 14.9191 12.668 15.4433 12.668 16C12.668 17.841 14.1604 19.3334 16.0013 19.3334C16.558 19.3334 17.0823 19.1973 17.5433 18.9562L13.0451 14.4581ZM12.2324 8.0897C13.3599 7.82191 14.6139 7.66667 16.0013 7.66667C20.4115 7.66667 23.504 9.23521 25.4897 11.0681C26.4885 11.9901 27.2095 12.9812 27.6769 13.8786C28.1536 14.7939 28.3346 15.5488 28.3346 16C28.3346 16.9054 27.6214 18.8185 25.8094 20.6252C25.4183 21.0152 25.4173 21.6483 25.8073 22.0394C26.1973 22.4305 26.8304 22.4314 27.2215 22.0415C29.2622 20.0068 30.3346 17.6143 30.3346 16C30.3346 15.1179 30.0157 14.0394 29.4507 12.9547C28.8764 11.8521 28.0141 10.6765 26.8462 9.59854C24.4986 7.43147 20.9244 5.66667 16.0013 5.66667C14.4636 5.66667 13.0543 5.83886 11.7702 6.14383C11.2329 6.27145 10.9007 6.8105 11.0284 7.34784C11.156 7.88518 11.695 8.21732 12.2324 8.0897Z" fill="#FFB800"/>
</g>
</svg>
