<svg width="32" height="32" viewBox="0 0 32 32" fill="none" xmlns="http://www.w3.org/2000/svg">
<g id="File - Text Recieved">
<path id="Union" fill-rule="evenodd" clip-rule="evenodd" d="M17.668 3.67106C17.3888 3.66747 17.0658 3.66661 16.6876 3.66661H14.668C12.7541 3.66661 11.4193 3.66873 10.4121 3.80414C9.43376 3.93567 8.91567 4.17627 8.54665 4.54529C8.17763 4.9143 7.93704 5.4324 7.8055 6.41077C7.67009 7.4179 7.66797 8.75272 7.66797 10.6666V18.6666C7.66797 20.5805 7.67009 21.9153 7.8055 22.9224C7.93704 23.9008 8.17763 24.4189 8.54665 24.7879C8.91567 25.1569 9.43376 25.3975 10.4121 25.5291C11.4193 25.6645 12.7541 25.6666 14.668 25.6666H16.0013C16.5536 25.6666 17.0013 26.1143 17.0013 26.6666C17.0013 27.2189 16.5536 27.6666 16.0013 27.6666H14.668H14.5948C12.7713 27.6666 11.3016 27.6667 10.1456 27.5112C8.94549 27.3499 7.93499 27.0047 7.13244 26.2021C6.32988 25.3996 5.98469 24.3891 5.82333 23.1889C5.66792 22.033 5.66794 20.5632 5.66797 18.7398L5.66797 18.6666V10.6666L5.66797 10.5934C5.66794 8.76999 5.66792 7.30023 5.82333 6.14427C5.98469 4.94413 6.32988 3.93363 7.13244 3.13107C7.93499 2.32852 8.94549 1.98333 10.1456 1.82197C11.3016 1.66656 12.7714 1.66658 14.5948 1.66661L14.668 1.66661H16.6876L16.8777 1.66655C18.3281 1.66585 19.336 1.66537 20.2579 2.04721C21.1797 2.42904 21.8921 3.1421 22.9171 4.16815L23.0516 4.30265L23.6986 4.94969L23.8331 5.0841C24.8591 6.10917 25.5722 6.82155 25.954 7.74338C26.3359 8.66521 26.3354 9.67315 26.3347 11.1235L26.3346 11.3136V17.3333C26.3346 17.8856 25.8869 18.3333 25.3346 18.3333C24.7824 18.3333 24.3346 17.8856 24.3346 17.3333V11.3136C24.3346 10.9355 24.3338 10.6126 24.3302 10.3334H24.0013L23.932 10.3334C22.734 10.3334 21.735 10.3335 20.942 10.2268C20.1049 10.1143 19.3492 9.86674 18.7419 9.25944C18.1346 8.65215 17.8871 7.89642 17.7745 7.05936C17.6679 6.26632 17.6679 5.26736 17.668 4.06938L17.668 4.00005V3.67106ZM24.0242 8.33338C23.7921 7.89118 23.357 7.43653 22.2844 6.3639L21.6373 5.71686C20.5648 4.64432 20.1101 4.2092 19.668 3.97711V4.00005C19.668 5.2854 19.6701 6.14881 19.7567 6.79286C19.8394 7.40814 19.9824 7.67147 20.1561 7.84523C20.3299 8.01898 20.5932 8.16195 21.2085 8.24467C21.8525 8.33126 22.716 8.33338 24.0013 8.33338H24.0242ZM12.0013 13.6667C11.449 13.6667 11.0013 14.1144 11.0013 14.6667C11.0013 15.219 11.449 15.6667 12.0013 15.6667H20.0013C20.5536 15.6667 21.0013 15.219 21.0013 14.6667C21.0013 14.1144 20.5536 13.6667 20.0013 13.6667H12.0013ZM11.0013 20.0001C11.0013 19.4478 11.449 19.0001 12.0013 19.0001H17.3346C17.8869 19.0001 18.3346 19.4478 18.3346 20.0001C18.3346 20.5523 17.8869 21.0001 17.3346 21.0001H12.0013C11.449 21.0001 11.0013 20.5523 11.0013 20.0001Z" fill="#4EC291"/>
<path id="Vector" d="M23.3333 21.3333V29.3333M23.3333 29.3333L26.6667 26M23.3333 29.3333L20 26" stroke="#4EC291" stroke-width="2" stroke-linecap="round" stroke-linejoin="round"/>
</g>
</svg>
