<svg width="32" height="32" viewBox="0 0 32 32" fill="none" xmlns="http://www.w3.org/2000/svg">
<g id="Fire">
<path id="Union" fill-rule="evenodd" clip-rule="evenodd" d="M16.4248 3.09412L16.0013 4C16.4248 3.09412 16.4253 3.09432 16.4257 3.09453L16.4268 3.09504L16.4296 3.09636L16.4378 3.10023L16.4641 3.11288C16.486 3.1235 16.5166 3.1385 16.5552 3.15791C16.6324 3.19673 16.742 3.25325 16.8793 3.32776C17.1538 3.4767 17.5399 3.698 18.0004 3.99405C18.9198 4.58508 20.1451 5.48001 21.3728 6.69969C23.8287 9.1397 26.3346 12.9255 26.3346 18.1818C26.3346 24.1425 21.7533 29 16.0013 29C10.2493 29 5.66797 24.1425 5.66797 18.1818C5.66797 15.2044 6.75991 12.804 7.83085 11.1651C8.36743 10.344 8.90448 9.70485 9.31054 9.26802C9.51391 9.04925 9.68539 8.88017 9.80892 8.76333C9.87071 8.70488 9.9206 8.65941 9.95658 8.62725C9.97458 8.61116 9.98911 8.59839 9.99992 8.58897L10.0133 8.57737L10.0179 8.57346L10.0196 8.57199L10.0204 8.57137C10.0207 8.57109 10.021 8.57083 10.668 9.33334L10.021 8.57083C10.3181 8.31875 10.7345 8.26218 11.0881 8.42587C11.4417 8.58957 11.668 8.94371 11.668 9.33334C11.668 11.3958 11.6773 12.8926 11.9628 13.8919C12.0975 14.3635 12.2665 14.6138 12.4332 14.7526C12.5863 14.8802 12.8405 15 13.3346 15C13.8286 15 14.2056 14.7622 14.5363 14.0693C14.8894 13.3294 15.0888 12.2353 15.1699 10.9376C15.2497 9.66163 15.2104 8.28996 15.1484 7.04994C15.1286 6.65408 15.1058 6.26345 15.0842 5.89259C15.0404 5.13971 15.0013 4.4683 15.0013 4C15.0013 3.6581 15.176 3.3399 15.4644 3.15634C15.7529 2.97278 16.1151 2.94931 16.4248 3.09412ZM9.70365 11.9645C9.63771 12.0594 9.5714 12.1577 9.50508 12.2591C8.57603 13.6809 7.66797 15.7047 7.66797 18.1818C7.66797 23.1302 11.444 27 16.0013 27C20.5586 27 24.3346 23.1302 24.3346 18.1818C24.3346 13.6199 22.1739 10.3149 19.9632 8.1185C18.9282 7.09021 17.8911 6.31506 17.0815 5.78219C17.1024 6.13955 17.1249 6.52992 17.1459 6.95006C17.2089 8.21005 17.2529 9.67171 17.166 11.0624C17.0805 12.4314 16.8632 13.8373 16.3413 14.9307C15.797 16.0712 14.8407 17 13.3346 17C12.4955 17 11.7496 16.7864 11.1528 16.2891C10.5694 15.8029 10.2384 15.1365 10.0398 14.4414C9.83835 13.7364 9.74598 12.891 9.70365 11.9645Z" fill="#FF4D00"/>
</g>
</svg>
