<svg width="16" height="16" viewBox="0 0 16 16" fill="none" xmlns="http://www.w3.org/2000/svg">
<g id="Globe">
<path id="Union" fill-rule="evenodd" clip-rule="evenodd" d="M7.30671 2.83371C7.56108 2.59162 7.7945 2.5 8 2.5C8.2055 2.5 8.43892 2.59162 8.69329 2.83371C8.95025 3.07824 9.2044 3.45572 9.42871 3.96043C9.55992 4.25564 9.67756 4.58683 9.77833 4.94789C9.21176 4.87302 8.61479 4.83333 8 4.83333C7.38521 4.83333 6.78824 4.87302 6.22167 4.94789C6.32244 4.58683 6.44008 4.25564 6.57129 3.96043C6.7956 3.45572 7.04975 3.07824 7.30671 2.83371ZM5.14125 5.14125C5.27503 4.55775 5.44922 4.02287 5.65748 3.55429C5.76592 3.31028 5.88534 3.08037 6.01561 2.86887C4.57427 3.42667 3.42667 4.57427 2.86887 6.01561C3.08037 5.88534 3.31028 5.76592 3.55429 5.65748C4.02287 5.44922 4.55775 5.27503 5.14125 5.14125ZM2.5 8C2.5 8.0001 2.5 8.0002 2.5 8.00031C2.50009 8.20573 2.59174 8.43904 2.83371 8.69329C3.07824 8.95025 3.45572 9.2044 3.96043 9.42871C4.25564 9.55992 4.58683 9.67756 4.94789 9.77833C4.87302 9.21176 4.83333 8.61479 4.83333 8C4.83333 7.38521 4.87302 6.78824 4.94789 6.22167C4.58683 6.32244 4.25564 6.44008 3.96043 6.57129C3.45572 6.7956 3.07824 7.04975 2.83371 7.30671C2.59162 7.56108 2.5 7.7945 2.5 8ZM5.99269 10.0073C5.89027 9.3869 5.83333 8.71072 5.83333 8C5.83333 7.28928 5.89027 6.6131 5.99269 5.99269C6.6131 5.89027 7.28928 5.83333 8 5.83333C8.71072 5.83333 9.3869 5.89028 10.0073 5.99269C10.1097 6.6131 10.1667 7.28928 10.1667 8C10.1667 8.71072 10.1097 9.3869 10.0073 10.0073C9.3869 10.1097 8.71072 10.1667 8 10.1667C7.28928 10.1667 6.6131 10.1097 5.99269 10.0073ZM5.14125 10.8588C4.55775 10.725 4.02287 10.5508 3.55429 10.3425C3.31028 10.2341 3.08037 10.1147 2.86887 9.98439C3.42667 11.4257 4.57427 12.5733 6.01561 13.1311C5.88535 12.9196 5.76592 12.6897 5.65748 12.4457C5.44922 11.9771 5.27503 11.4422 5.14125 10.8588ZM1.5 8C1.5 4.41015 4.41015 1.5 8 1.5C11.5899 1.5 14.5 4.41015 14.5 8C14.5 11.5899 11.5899 14.5 8 14.5C4.41015 14.5 1.5 11.5899 1.5 8ZM13.1311 6.01561C12.5733 4.57427 11.4257 3.42667 9.98439 2.86887C10.1147 3.08037 10.2341 3.31028 10.3425 3.55429C10.5508 4.02287 10.725 4.55775 10.8588 5.14125C11.4422 5.27503 11.9771 5.44922 12.4457 5.65748C12.6897 5.76592 12.9196 5.88534 13.1311 6.01561ZM11.0521 6.22167C11.4132 6.32244 11.7444 6.44008 12.0396 6.57129C12.5443 6.7956 12.9218 7.04975 13.1663 7.3067C13.4084 7.56108 13.5 7.7945 13.5 8C13.5 8.2055 13.4084 8.43892 13.1663 8.69329C12.9218 8.95025 12.5443 9.2044 12.0396 9.42871C11.7444 9.55992 11.4132 9.67756 11.0521 9.77833C11.127 9.21176 11.1667 8.61479 11.1667 8C11.1667 7.38521 11.127 6.78824 11.0521 6.22167ZM10.8588 10.8587C11.4422 10.725 11.9771 10.5508 12.4457 10.3425C12.6897 10.2341 12.9196 10.1147 13.1311 9.98439C12.5733 11.4257 11.4257 12.5733 9.98439 13.1311C10.1147 12.9196 10.2341 12.6897 10.3425 12.4457C10.5508 11.9771 10.725 11.4422 10.8588 10.8587ZM9.77833 11.0521C9.67756 11.4132 9.55992 11.7444 9.42871 12.0396C9.2044 12.5443 8.95025 12.9218 8.69329 13.1663C8.43892 13.4084 8.2055 13.5 8 13.5C7.7945 13.5 7.56108 13.4084 7.30671 13.1663C7.04975 12.9218 6.7956 12.5443 6.57129 12.0396C6.44008 11.7444 6.32244 11.4132 6.22167 11.0521C6.78824 11.127 7.38521 11.1667 8 11.1667C8.61479 11.1667 9.21176 11.127 9.77833 11.0521Z" fill="#22282F"/>
</g>
</svg>
