<svg width="16" height="8" viewBox="0 0 16 8" fill="none" xmlns="http://www.w3.org/2000/svg">
<g id="Group">
<path id="Vector" d="M11.7801 2.28171L11.7802 2.28171L14.5269 2.70118L14.5269 2.70118L11.7801 2.28171ZM11.7801 2.28171C11.7254 2.2734 11.6747 2.24623 11.6375 2.20536L11.6374 2.20526L10.1769 0.60556L11.7801 2.28171ZM11.1061 2.69024L9.64553 1.09052C9.58695 1.02624 9.50342 0.989364 9.41662 0.989364H4.73004C4.62546 0.989364 4.52871 1.04141 4.47112 1.12886L4.52679 1.16553M11.1061 2.69024L1.51608 3.45967L1.53697 3.52298L3.03273 3.0301M11.1061 2.69024C11.2541 2.85225 11.4551 2.95977 11.6717 2.99272M11.1061 2.69024L11.6717 2.99272M4.52679 1.16553L3.57056 2.61839L3.57055 2.61841C3.44335 2.81157 3.25259 2.95769 3.03273 3.0301M4.52679 1.16553C4.57204 1.09682 4.64786 1.05603 4.73004 1.05603H9.41662C9.48466 1.05603 9.5503 1.085 9.59625 1.13542L9.59629 1.13547L11.0568 2.73519L11.0569 2.7352C11.2151 2.90845 11.4299 3.02338 11.6617 3.05863M4.52679 1.16553L14.4082 3.47809L11.6617 3.05863M3.03273 3.0301L3.01187 2.96678L3.03274 3.0301L3.03273 3.0301ZM2.11763 5.53178H1.613C1.47885 5.53178 1.36967 5.42248 1.36967 5.28846V3.75416C1.36967 3.64884 1.43668 3.55608 1.53695 3.52299L2.17229 5.59845M2.11763 5.53178C2.11372 5.54989 2.11008 5.5681 2.10672 5.5864L2.17229 5.59845M2.11763 5.53178H2.17229V5.59845M2.11763 5.53178C2.2927 4.72177 3.01343 4.11235 3.87544 4.11235C4.73746 4.11235 5.45819 4.72178 5.63341 5.53178M2.17229 5.59845C2.32043 4.79231 3.02705 4.17901 3.87544 4.17901C4.72384 4.17901 5.43046 4.79231 5.57877 5.59845M5.63341 5.53178H5.57877V5.59845M5.63341 5.53178H10.4337M5.63341 5.53178C5.63732 5.54988 5.64097 5.56809 5.64433 5.58639L5.57877 5.59845M5.57877 5.59845L10.4337 5.53178M10.4337 5.53178C10.4298 5.54988 10.4262 5.56809 10.4228 5.58639L10.4884 5.59845V5.53178H10.4337ZM10.4337 5.53178C10.6089 4.72178 11.3297 4.11235 12.1917 4.11235C13.0537 4.11235 13.7744 4.72177 13.9495 5.53178M10.4337 5.53178L14.3716 5.59845C14.5424 5.59845 14.6816 5.45944 14.6816 5.28846V3.71876C14.6816 3.56441 14.5708 3.43552 14.4183 3.41219L14.4082 3.47809C14.5282 3.49646 14.6149 3.59738 14.6149 3.71876V5.28846C14.6149 5.4226 14.5056 5.53178 14.3716 5.53178H13.9495M13.9495 5.53178H13.8949V5.59845L13.9604 5.5864C13.9571 5.5681 13.9534 5.54989 13.9495 5.53178ZM11.6617 3.05863L11.6717 2.99272M11.6617 3.05863L11.6617 3.05863L11.6717 2.99272M3.87544 6.92593C3.31642 6.92593 2.86155 6.47104 2.86155 5.91219C2.86155 5.35317 3.31643 4.89829 3.87544 4.89829C4.43446 4.89829 4.88934 5.35317 4.88934 5.91219C4.88934 6.4712 4.43447 6.92593 3.87544 6.92593ZM12.1915 6.92593C11.6325 6.92593 11.1776 6.47104 11.1776 5.91219C11.1776 5.35317 11.6325 4.89829 12.1915 4.89829C12.7504 4.89829 13.2053 5.35317 13.2053 5.91219C13.2053 6.47121 12.7506 6.92593 12.1915 6.92593Z" fill="black" stroke="black" stroke-width="0.133333"/>
</g>
</svg>
