<svg width="16" height="16" viewBox="0 0 16 16" fill="none" xmlns="http://www.w3.org/2000/svg">
<g id="Map View">
<path id="Union" fill-rule="evenodd" clip-rule="evenodd" d="M14.2552 1.57005C14.407 1.66013 14.5 1.82353 14.5 2V11.8182C14.5 12.0012 14.4001 12.1695 14.2394 12.2571L10.2394 14.4389C10.0902 14.5204 9.90981 14.5204 9.76057 14.4389L6 12.3877L2.23943 14.4389C2.08451 14.5235 1.89651 14.52 1.74477 14.4299C1.59302 14.3399 1.5 14.1765 1.5 14V4.18182C1.5 3.99885 1.59994 3.83049 1.76057 3.74287L5.76057 1.56105C5.90981 1.47965 6.09019 1.47965 6.23943 1.56105L10 3.61227L13.7606 1.56105C13.9155 1.47655 14.1035 1.47997 14.2552 1.57005ZM9.5 4.47863L6.5 2.84227V11.5214L9.5 13.1577V4.47863ZM10.5 13.1577L13.5 11.5214V2.84227L10.5 4.47864V13.1577ZM5.5 11.5214V2.84227L2.5 4.47863V13.1577L5.5 11.5214Z" fill="#22282F"/>
</g>
</svg>
