<svg width="16" height="16" viewBox="0 0 16 16" fill="none" xmlns="http://www.w3.org/2000/svg">
<g id="Presentation - Chart">
<path id="Union" fill-rule="evenodd" clip-rule="evenodd" d="M0.833984 2C0.833984 1.72386 1.05784 1.5 1.33398 1.5H2.66732H13.334H14.6673C14.9435 1.5 15.1673 1.72386 15.1673 2C15.1673 2.27614 14.9435 2.5 14.6673 2.5H13.834V6V6.03657C13.834 6.9483 13.834 7.68319 13.7563 8.26117C13.6756 8.86124 13.503 9.36649 13.1018 9.76777C12.7005 10.169 12.1952 10.3416 11.5952 10.4223C11.0172 10.5 10.2823 10.5 9.37055 10.5H9.33398H8.50065V11.7169L11.5912 13.5713C11.828 13.7133 11.9048 14.0205 11.7627 14.2572C11.6207 14.494 11.3135 14.5708 11.0767 14.4287L8.50065 12.8831V14C8.50065 14.2761 8.27679 14.5 8.00065 14.5C7.72451 14.5 7.50065 14.2761 7.50065 14V12.8831L4.92457 14.4287C4.68778 14.5708 4.38065 14.494 4.23857 14.2572C4.0965 14.0205 4.17328 13.7133 4.41007 13.5713L7.50065 11.7169V10.5H6.66732H6.63075C5.71902 10.5 4.98413 10.5 4.40615 10.4223C3.80608 10.3416 3.30083 10.169 2.89955 9.76777C2.49827 9.36649 2.32568 8.86124 2.245 8.26117C2.16729 7.68319 2.1673 6.94831 2.16732 6.03659V6.03658L2.16732 6V2.5H1.33398C1.05784 2.5 0.833984 2.27614 0.833984 2ZM8.00065 9.5H9.33398C10.2909 9.5 10.9583 9.49894 11.4619 9.43124C11.9511 9.36547 12.2101 9.24517 12.3946 9.06066C12.5792 8.87615 12.6995 8.6171 12.7652 8.12792C12.8329 7.62435 12.834 6.95694 12.834 6V2.5H3.16732V6C3.16732 6.95694 3.16838 7.62435 3.23608 8.12792C3.30185 8.6171 3.42215 8.87615 3.60666 9.06066C3.79117 9.24517 4.05021 9.36547 4.5394 9.43124C5.04297 9.49894 5.71038 9.5 6.66732 9.5H8.00065ZM5.83398 6C5.83398 5.72386 5.61013 5.5 5.33398 5.5C5.05784 5.5 4.83398 5.72386 4.83398 6V7.33333C4.83398 7.60948 5.05784 7.83333 5.33398 7.83333C5.61013 7.83333 5.83398 7.60948 5.83398 7.33333V6ZM8.00065 4.16667C8.27679 4.16667 8.50065 4.39052 8.50065 4.66667V7.33333C8.50065 7.60948 8.27679 7.83333 8.00065 7.83333C7.72451 7.83333 7.50065 7.60948 7.50065 7.33333V4.66667C7.50065 4.39052 7.72451 4.16667 8.00065 4.16667ZM11.1673 5.33333C11.1673 5.05719 10.9435 4.83333 10.6673 4.83333C10.3912 4.83333 10.1673 5.05719 10.1673 5.33333V7.33333C10.1673 7.60948 10.3912 7.83333 10.6673 7.83333C10.9435 7.83333 11.1673 7.60948 11.1673 7.33333V5.33333Z" fill="#22282F"/>
</g>
</svg>
