<svg width="16" height="16" viewBox="0 0 16 16" fill="none" xmlns="http://www.w3.org/2000/svg">
<g id="Shield">
<path id="Union" fill-rule="evenodd" clip-rule="evenodd" d="M7.99939 2.01465C7.6275 2.01465 7.26266 2.14359 6.30231 2.50372L5.72313 2.72091C4.57268 3.15232 4.13954 3.32508 3.83702 3.61372C3.62431 3.81668 3.45513 4.06081 3.33978 4.33125C3.17573 4.71585 3.16606 5.18207 3.16606 6.41075L3.16606 7.31155C3.16606 8.36645 3.16803 8.83016 3.2463 9.25437C3.4372 10.2889 3.96041 11.2329 4.73652 11.9431C5.05476 12.2343 5.44694 12.4817 6.3415 13.0408C6.85186 13.3598 7.04802 13.4796 7.24182 13.5519C7.73041 13.7342 8.26838 13.7342 8.75698 13.5519C8.95077 13.4796 9.14693 13.3598 9.65729 13.0408C10.5518 12.4817 10.944 12.2343 11.2623 11.9431C12.0384 11.2329 12.5616 10.2889 12.7525 9.25437C12.8308 8.83016 12.8327 8.36645 12.8327 7.31155L12.8327 6.41075C12.8327 5.18207 12.8231 4.71585 12.659 4.33124C12.5437 4.06081 12.3745 3.81668 12.1618 3.61372C11.8592 3.32508 11.4261 3.15232 10.2757 2.72091L9.69648 2.50372C8.73612 2.14359 8.37129 2.01465 7.99939 2.01465ZM6.0393 1.53433C6.88042 1.21866 7.42403 1.01465 7.99939 1.01465C8.57476 1.01465 9.11837 1.21866 9.95948 1.53433C9.9885 1.54522 10.0179 1.55624 10.0476 1.56739L10.6268 1.78458C10.6636 1.7984 10.7 1.81203 10.736 1.8255C11.738 2.20093 12.3829 2.44252 12.8521 2.89022C13.163 3.18686 13.4102 3.54366 13.5788 3.93891C13.8333 4.53545 13.8331 5.22405 13.8328 6.29415C13.8327 6.33252 13.8327 6.37138 13.8327 6.41075L13.8327 7.31155L13.8327 7.36987C13.8328 8.3503 13.8328 8.91068 13.7359 9.43583C13.5055 10.6844 12.874 11.8237 11.9373 12.6808C11.5434 13.0413 11.0682 13.3383 10.2367 13.8579L10.1873 13.8888C10.171 13.899 10.155 13.909 10.1391 13.9189C9.69326 14.1977 9.40703 14.3766 9.10663 14.4888C8.39253 14.7553 7.60626 14.7553 6.89216 14.4888C6.59176 14.3766 6.30553 14.1977 5.85964 13.9189C5.8438 13.909 5.82775 13.899 5.8115 13.8888L5.76206 13.8579C4.93062 13.3383 4.45541 13.0413 4.06144 12.6808C3.12476 11.8237 2.4933 10.6844 2.2629 9.43583C2.166 8.91068 2.16602 8.35031 2.16606 7.36988L2.16606 7.31155L2.16606 6.41075C2.16606 6.37139 2.16605 6.33253 2.16604 6.29416C2.16572 5.22406 2.16551 4.53545 2.41996 3.93891C2.58854 3.54366 2.83581 3.18686 3.1467 2.89022C3.61592 2.44252 4.26075 2.20093 5.26283 1.8255C5.29876 1.81203 5.33515 1.7984 5.37201 1.78458L5.95119 1.56739C5.98092 1.55624 6.01029 1.54522 6.0393 1.53433Z" fill="#22282F"/>
</g>
</svg>
