<svg width="16" height="16" viewBox="0 0 16 16" fill="none" xmlns="http://www.w3.org/2000/svg">
<g id="Stopwatch">
<path id="Union" fill-rule="evenodd" clip-rule="evenodd" d="M6.66667 0.166626C6.39052 0.166626 6.16667 0.390484 6.16667 0.666626C6.16667 0.942768 6.39052 1.16663 6.66667 1.16663H9.33333C9.60948 1.16663 9.83333 0.942768 9.83333 0.666626C9.83333 0.390484 9.60948 0.166626 9.33333 0.166626H6.66667ZM8 3.16663C4.96243 3.16663 2.5 5.62906 2.5 8.66663C2.5 11.7042 4.96243 14.1666 8 14.1666C11.0376 14.1666 13.5 11.7042 13.5 8.66663C13.5 7.1477 12.8849 5.77339 11.8891 4.77754C10.8932 3.78169 9.51892 3.16663 8 3.16663ZM1.5 8.66663C1.5 5.07678 4.41015 2.16663 8 2.16663C9.61476 2.16663 11.0926 2.75597 12.2291 3.73043L13.3131 2.64641C13.5084 2.45114 13.825 2.45114 14.0202 2.64641C14.2155 2.84167 14.2155 3.15825 14.0202 3.35351L12.9362 4.43753C13.9107 5.57399 14.5 7.05187 14.5 8.66663C14.5 12.2565 11.5899 15.1666 8 15.1666C4.41015 15.1666 1.5 12.2565 1.5 8.66663ZM8 6.16663C8.27614 6.16663 8.5 6.39048 8.5 6.66663V9.33329C8.5 9.60944 8.27614 9.83329 8 9.83329C7.72386 9.83329 7.5 9.60944 7.5 9.33329V6.66663C7.5 6.39048 7.72386 6.16663 8 6.16663Z" fill="#22282F"/>
</g>
</svg>
