<svg width="16" height="16" viewBox="0 0 16 16" fill="none" xmlns="http://www.w3.org/2000/svg">
<g id="Ticket">
<path id="Union" fill-rule="evenodd" clip-rule="evenodd" d="M3.00068 2.83328L2.95183 2.83327C2.69001 2.83314 2.48802 2.83304 2.30968 2.86851C1.58242 3.01317 1.01391 3.58169 0.869243 4.30895C0.833769 4.48729 0.83387 4.68928 0.834 4.9511L0.834016 4.99995V6.54897C0.834016 6.89009 1.11055 7.16662 1.45166 7.16662H2.00068C2.46092 7.16662 2.83402 7.53971 2.83402 7.99995C2.83402 8.46019 2.46092 8.83328 2.00068 8.83328H1.45166C1.11055 8.83328 0.834016 9.10981 0.834016 9.45093V11L0.834 11.0488C0.83387 11.3106 0.833769 11.5126 0.869243 11.6909C1.01391 12.4182 1.58242 12.9867 2.30968 13.1314C2.48802 13.1669 2.69002 13.1668 2.95184 13.1666L3.00068 13.1666H6.00068H13.0007L13.0495 13.1666C13.3113 13.1668 13.5133 13.1669 13.6917 13.1314C14.4189 12.9867 14.9875 12.4182 15.1321 11.6909C15.1676 11.5126 15.1675 11.3106 15.1674 11.0488L15.1673 11V9.45093C15.1673 9.10981 14.8908 8.83328 14.5497 8.83328H14.0007C13.5404 8.83328 13.1673 8.46019 13.1673 7.99995C13.1673 7.53971 13.5404 7.16662 14.0007 7.16662H14.5497C14.8908 7.16662 15.1673 6.89009 15.1673 6.54897V4.99995L15.1674 4.95111C15.1675 4.68929 15.1676 4.48729 15.1321 4.30895C14.9875 3.58169 14.4189 3.01317 13.6917 2.86851C13.5133 2.83304 13.3114 2.83314 13.0495 2.83327L13.0007 2.83328H6.00068H3.00068ZM6.50068 12.1666V10.6666C6.50068 10.3905 6.27682 10.1666 6.00068 10.1666C5.72454 10.1666 5.50068 10.3905 5.50068 10.6666V12.1666H3.00068C2.66695 12.1666 2.5731 12.1642 2.50477 12.1506C2.1742 12.0848 1.91578 11.8264 1.85003 11.4959C1.83644 11.4275 1.83402 11.3337 1.83402 11V9.83328H2.00068C3.0132 9.83328 3.83402 9.01247 3.83402 7.99995C3.83402 6.98743 3.0132 6.16662 2.00068 6.16662H1.83402V4.99995C1.83402 4.66621 1.83644 4.57237 1.85003 4.50404C1.91578 4.17347 2.1742 3.91505 2.50477 3.8493C2.5731 3.83571 2.66695 3.83328 3.00068 3.83328H5.50068V5.33328C5.50068 5.60943 5.72454 5.83328 6.00068 5.83328C6.27682 5.83328 6.50068 5.60943 6.50068 5.33328V3.83328H13.0007C13.3344 3.83328 13.4283 3.83571 13.4966 3.8493C13.8272 3.91505 14.0856 4.17347 14.1513 4.50404C14.1649 4.57237 14.1673 4.66621 14.1673 4.99995V6.16662H14.0007C12.9882 6.16662 12.1673 6.98743 12.1673 7.99995C12.1673 9.01247 12.9882 9.83328 14.0007 9.83328H14.1673V11C14.1673 11.3337 14.1649 11.4275 14.1513 11.4959C14.0856 11.8264 13.8272 12.0848 13.4966 12.1506C13.4283 12.1642 13.3344 12.1666 13.0007 12.1666H6.50068ZM6.50068 7.33328C6.50068 7.05714 6.27682 6.83328 6.00068 6.83328C5.72454 6.83328 5.50068 7.05714 5.50068 7.33328V8.66662C5.50068 8.94276 5.72454 9.16662 6.00068 9.16662C6.27682 9.16662 6.50068 8.94276 6.50068 8.66662V7.33328Z" fill="#22282F"/>
</g>
</svg>
