<svg width="16" height="16" viewBox="0 0 16 16" fill="none" xmlns="http://www.w3.org/2000/svg">
<g id="User - Alert">
<path id="Union" fill-rule="evenodd" clip-rule="evenodd" d="M4.5 4.66667C4.5 3.47005 5.47005 2.5 6.66667 2.5C7.86328 2.5 8.83333 3.47005 8.83333 4.66667C8.83333 5.86328 7.86328 6.83333 6.66667 6.83333C5.47005 6.83333 4.5 5.86328 4.5 4.66667ZM6.66667 1.5C4.91777 1.5 3.5 2.91777 3.5 4.66667C3.5 6.41557 4.91777 7.83333 6.66667 7.83333C8.41557 7.83333 9.83333 6.41557 9.83333 4.66667C9.83333 2.91777 8.41557 1.5 6.66667 1.5ZM13.8333 3.33333C13.8333 3.05719 13.6095 2.83333 13.3333 2.83333C13.0572 2.83333 12.8333 3.05719 12.8333 3.33333V6.66667C12.8333 6.94281 13.0572 7.16667 13.3333 7.16667C13.6095 7.16667 13.8333 6.94281 13.8333 6.66667V3.33333ZM4.66667 10.5C3.47005 10.5 2.5 11.47 2.5 12.6667C2.5 13.1269 2.8731 13.5 3.33333 13.5H10C10.4602 13.5 10.8333 13.1269 10.8333 12.6667C10.8333 11.47 9.86329 10.5 8.66667 10.5H4.66667ZM1.5 12.6667C1.5 10.9178 2.91776 9.5 4.66667 9.5H8.66667C10.4156 9.5 11.8333 10.9178 11.8333 12.6667C11.8333 13.6792 11.0125 14.5 10 14.5H3.33333C2.32081 14.5 1.5 13.6792 1.5 12.6667ZM13.3333 9.33333C13.7015 9.33333 14 9.03486 14 8.66667C14 8.29848 13.7015 8 13.3333 8C12.9651 8 12.6667 8.29848 12.6667 8.66667C12.6667 9.03486 12.9651 9.33333 13.3333 9.33333Z" fill="#22282F"/>
</g>
</svg>
