<svg width="16" height="16" viewBox="0 0 16 16" fill="none" xmlns="http://www.w3.org/2000/svg">
<g id="Users">
<path id="Union" fill-rule="evenodd" clip-rule="evenodd" d="M3.16732 4.66667C3.16732 3.47005 4.13737 2.5 5.33398 2.5C6.5306 2.5 7.50065 3.47005 7.50065 4.66667C7.50065 5.86328 6.5306 6.83333 5.33398 6.83333C4.13737 6.83333 3.16732 5.86328 3.16732 4.66667ZM5.33398 1.5C3.58508 1.5 2.16732 2.91777 2.16732 4.66667C2.16732 6.41557 3.58508 7.83333 5.33398 7.83333C7.08289 7.83333 8.50065 6.41557 8.50065 4.66667C8.50065 2.91777 7.08289 1.5 5.33398 1.5ZM9.33399 1.5C9.05784 1.5 8.83399 1.72386 8.83399 2C8.83399 2.27614 9.05784 2.5 9.33399 2.5C10.5306 2.5 11.5007 3.47005 11.5007 4.66667C11.5007 5.86328 10.5306 6.83333 9.33399 6.83333C9.05784 6.83333 8.83399 7.05719 8.83399 7.33333C8.83399 7.60948 9.05784 7.83333 9.33399 7.83333C11.0829 7.83333 12.5007 6.41557 12.5007 4.66667C12.5007 2.91776 11.0829 1.5 9.33399 1.5ZM4.00065 10.5C2.80403 10.5 1.83398 11.47 1.83398 12.6667C1.83398 13.1269 2.20708 13.5 2.66732 13.5H8.00065C8.46089 13.5 8.83398 13.1269 8.83398 12.6667C8.83398 11.47 7.86393 10.5 6.66732 10.5H4.00065ZM0.833984 12.6667C0.833984 10.9178 2.25175 9.5 4.00065 9.5H6.66732C8.41622 9.5 9.83398 10.9178 9.83398 12.6667C9.83398 13.6792 9.01317 14.5 8.00065 14.5H2.66732C1.6548 14.5 0.833984 13.6792 0.833984 12.6667ZM10.6673 9.5C10.3912 9.5 10.1673 9.72386 10.1673 10C10.1673 10.2761 10.3912 10.5 10.6673 10.5H12.0007C13.1973 10.5 14.1673 11.47 14.1673 12.6667C14.1673 13.1269 13.7942 13.5 13.334 13.5H10.6673C10.3912 13.5 10.1673 13.7239 10.1673 14C10.1673 14.2761 10.3912 14.5 10.6673 14.5H13.334C14.3465 14.5 15.1673 13.6792 15.1673 12.6667C15.1673 10.9178 13.7496 9.5 12.0007 9.5H10.6673Z" fill="#22282F"/>
</g>
</svg>
