<svg width="16" height="16" viewBox="0 0 16 16" fill="none" xmlns="http://www.w3.org/2000/svg">
<g id="Users - Gender">
<path id="Union" fill-rule="evenodd" clip-rule="evenodd" d="M12.3542 2.3535C12.5083 2.19942 12.6501 2.07725 12.7759 1.99204C12.9061 1.90382 12.9894 1.8757 13.0297 1.86994C13.0433 1.868 13.0431 1.86812 13.0421 1.86877C13.0417 1.86906 13.0411 1.86946 13.0416 1.86982C13.0611 1.88595 13.1252 1.95468 13.193 2.15808C13.4121 2.81535 13.4652 3.37805 13.5154 3.91044C13.5341 4.1089 13.5524 4.30315 13.5788 4.49652C13.6242 4.82967 13.7004 5.19098 13.902 5.49784C14.1194 5.82877 14.4452 6.04313 14.8794 6.15167C15.1473 6.21865 15.4187 6.05577 15.4857 5.78787C15.5527 5.51997 15.3898 5.24851 15.1219 5.18153C14.8894 5.12341 14.7953 5.03632 14.7378 4.94878C14.6645 4.83717 14.6108 4.66298 14.5696 4.36136C14.5515 4.22877 14.5371 4.07439 14.5209 3.90237L14.5209 3.90229C14.4693 3.35109 14.4006 2.6188 14.1417 1.84185C14.0428 1.54525 13.8985 1.28065 13.6785 1.09886C13.4403 0.902113 13.1603 0.841133 12.8883 0.879985C12.6369 0.915887 12.4077 1.03359 12.215 1.16411C12.0179 1.29764 11.8264 1.46713 11.6471 1.64639L12.3542 2.3535ZM8.83399 1.99994C8.83399 1.72379 9.05784 1.49994 9.33399 1.49994C11.0829 1.49994 12.5007 2.9177 12.5007 4.6666C12.5007 6.4155 11.0829 7.83327 9.33399 7.83327C9.05784 7.83327 8.83399 7.60941 8.83399 7.33327C8.83399 7.05713 9.05784 6.83327 9.33399 6.83327C10.5306 6.83327 11.5007 5.86322 11.5007 4.6666C11.5007 3.46999 10.5306 2.49994 9.33399 2.49994C9.05784 2.49994 8.83399 2.27608 8.83399 1.99994ZM5.33398 2.50002C4.13737 2.50002 3.16732 3.47007 3.16732 4.66668C3.16732 5.8633 4.13737 6.83335 5.33398 6.83335C6.5306 6.83335 7.50065 5.8633 7.50065 4.66668C7.50065 3.47007 6.5306 2.50002 5.33398 2.50002ZM2.16732 4.66668C2.16732 2.91778 3.58508 1.50002 5.33398 1.50002C7.08289 1.50002 8.50065 2.91778 8.50065 4.66668C8.50065 6.41559 7.08289 7.83335 5.33398 7.83335C3.58508 7.83335 2.16732 6.41559 2.16732 4.66668ZM1.83398 12.6666C1.83398 11.47 2.80403 10.4999 4.00065 10.4999H6.66732C7.86393 10.4999 8.83398 11.47 8.83398 12.6666C8.83398 13.1268 8.46089 13.4999 8.00065 13.4999H2.66732C2.20708 13.4999 1.83398 13.1268 1.83398 12.6666ZM4.00065 9.49994C2.25175 9.49994 0.833984 10.9177 0.833984 12.6666C0.833984 13.6791 1.6548 14.4999 2.66732 14.4999H8.00065C9.01317 14.4999 9.83398 13.6791 9.83398 12.6666C9.83398 10.9177 8.41622 9.49994 6.66732 9.49994H4.00065ZM10.1673 10C10.1673 9.72388 10.3912 9.50002 10.6673 9.50002H12.0007C13.7496 9.50002 15.1673 10.9178 15.1673 12.6667C15.1673 13.6792 14.3465 14.5 13.334 14.5H10.6673C10.3912 14.5 10.1673 14.2762 10.1673 14C10.1673 13.7239 10.3912 13.5 10.6673 13.5H13.334C13.7942 13.5 14.1673 13.1269 14.1673 12.6667C14.1673 11.4701 13.1973 10.5 12.0007 10.5H10.6673C10.3912 10.5 10.1673 10.2762 10.1673 10Z" fill="#1E1E1E"/>
</g>
</svg>
