<svg width="30" height="28" viewBox="0 0 30 28" fill="none" xmlns="http://www.w3.org/2000/svg">
<g id="chef&#39;s hat">
<g id="Group">
<path id="Vector" d="M8.09991 10.6412C7.65631 9.66688 7.41802 8.61164 7.3999 7.54121C7.61041 5.73958 8.47526 4.07801 9.83026 2.87212C11.1853 1.66622 12.936 1 14.7499 1C16.5638 1 18.3145 1.66622 19.6695 2.87212C21.0245 4.07801 21.8894 5.73958 22.0999 7.54121C22.071 8.61031 21.8332 9.66342 21.3999 10.6412" stroke="#951EB3" stroke-width="2" stroke-linecap="round" stroke-linejoin="round"/>
<g id="Group_2">
<path id="Vector_2" d="M7.00002 19.1412C5.31394 18.8361 3.78891 17.9476 2.69197 16.6313C1.59504 15.3149 0.996103 13.6547 1.00002 11.9412C1.00002 7.94122 3.70003 5.44122 7.70003 5.44122" stroke="#951EB3" stroke-width="2" stroke-linecap="round" stroke-linejoin="round"/>
<path id="Vector_3" d="M21.7002 5.44122C25.8002 5.44122 28.5002 7.94122 28.5002 11.9412C28.5041 13.6547 27.9052 15.3149 26.8082 16.6313C25.7113 17.9476 24.1863 18.8361 22.5002 19.1412" stroke="#951EB3" stroke-width="2" stroke-linecap="round" stroke-linejoin="round"/>
</g>
</g>
<path id="Vector_4" d="M7 19.1412V26.7412H22.4V19.1412" stroke="#951EB3" stroke-width="2" stroke-linecap="round" stroke-linejoin="round"/>
<path id="Vector_5" d="M7 22.9412H22.4" stroke="#951EB3" stroke-width="2" stroke-linecap="round" stroke-linejoin="round"/>
<path id="Vector_6" d="M14.7002 22.9412V18.9412" stroke="#951EB3" stroke-width="2" stroke-linecap="round" stroke-linejoin="round"/>
</g>
</svg>
