<svg width="32" height="32" viewBox="0 0 32 32" fill="none" xmlns="http://www.w3.org/2000/svg">
<g id="Note - Text">
<path id="Union" fill-rule="evenodd" clip-rule="evenodd" d="M14.5914 3H14.6667H17.3333H17.4086C19.8589 2.99998 21.7997 2.99996 23.3187 3.20418C24.8819 3.41435 26.1472 3.85717 27.145 4.85499C28.1428 5.85281 28.5857 7.11807 28.7958 8.6813C29 10.2002 29 12.141 29 14.5913V14.5913V14.5914V14.5914V14.5914V14.6667V18.8954L29 19.0424V19.0425C29.0003 20.4397 29.0005 21.3408 28.7574 22.1937C28.6241 22.6612 28.4375 23.1119 28.2011 23.5367C27.7699 24.3116 27.1326 24.9487 26.1444 25.9365L26.0404 26.0404L25.9365 26.1444C24.9487 27.1326 24.3116 27.7699 23.5367 28.2011C23.1119 28.4375 22.6612 28.6241 22.1937 28.7574C21.3408 29.0005 20.4397 29.0003 19.0425 29H19.0424L18.8954 29H14.6667H14.5914H14.5914H14.5914H14.5913H14.5913C12.141 29 10.2002 29 8.6813 28.7958C7.11807 28.5857 5.85281 28.1428 4.85499 27.145C3.85717 26.1472 3.41435 24.8819 3.20418 23.3187C2.99996 21.7997 2.99998 19.8589 3 17.4086V17.3333V14.6667V14.5914C2.99998 12.1411 2.99996 10.2003 3.20418 8.6813C3.41435 7.11807 3.85717 5.85281 4.85499 4.85499C5.85281 3.85717 7.11807 3.41435 8.6813 3.20418C10.2003 2.99996 12.1411 2.99998 14.5914 3ZM8.9478 5.18635C7.60635 5.3667 6.83348 5.70492 6.2692 6.2692C5.70492 6.83348 5.3667 7.60635 5.18635 8.9478C5.00212 10.318 5 12.1242 5 14.6667V17.3333C5 19.8758 5.00212 21.682 5.18635 23.0522C5.3667 24.3937 5.70492 25.1665 6.2692 25.7308C6.83348 26.2951 7.60635 26.6333 8.9478 26.8137C10.318 26.9979 12.1242 27 14.6667 27H18.8954C19.4994 27 19.9613 26.9987 20.332 26.9886V26.6667L20.332 26.5973V26.5973C20.332 25.3994 20.332 24.4004 20.4386 23.6074C20.5511 22.7703 20.7987 22.0146 21.406 21.4073C22.0133 20.8 22.769 20.5524 23.6061 20.4399C24.3991 20.3333 25.398 20.3333 26.596 20.3333H26.596L26.6654 20.3333H26.9886C26.9987 19.9624 27 19.5001 27 18.8954V14.6667C27 12.1242 26.9979 10.318 26.8137 8.9478C26.6333 7.60635 26.2951 6.83348 25.7308 6.2692C25.1665 5.70492 24.3937 5.3667 23.0522 5.18635C21.682 5.00212 19.8758 5 17.3333 5H14.6667C12.1242 5 10.318 5.00212 8.9478 5.18635ZM26.573 22.3333C25.3384 22.3335 24.501 22.3376 23.8726 22.422C23.2573 22.5048 22.9939 22.6477 22.8202 22.8215C22.6464 22.9952 22.5035 23.2586 22.4207 23.8739C22.3363 24.5022 22.3322 25.3394 22.332 26.5736C22.4106 26.5359 22.4881 26.4958 22.5643 26.4534C23.0651 26.1748 23.4986 25.7538 24.6262 24.6262C25.7538 23.4986 26.1748 23.0651 26.4534 22.5643C26.4956 22.4885 26.5354 22.4115 26.573 22.3333ZM8.33203 9.33337C8.33203 8.78109 8.77975 8.33337 9.33203 8.33337H19.9987C20.551 8.33337 20.9987 8.78109 20.9987 9.33337C20.9987 9.88566 20.551 10.3334 19.9987 10.3334H9.33203C8.77975 10.3334 8.33203 9.88566 8.33203 9.33337ZM9.33203 13.6666C8.77975 13.6666 8.33203 14.1143 8.33203 14.6666C8.33203 15.2189 8.77975 15.6666 9.33203 15.6666H17.332C17.8843 15.6666 18.332 15.2189 18.332 14.6666C18.332 14.1143 17.8843 13.6666 17.332 13.6666H9.33203ZM8.33203 20C8.33203 19.4477 8.77975 19 9.33203 19H11.9987C12.551 19 12.9987 19.4477 12.9987 20C12.9987 20.5523 12.551 21 11.9987 21H9.33203C8.77975 21 8.33203 20.5523 8.33203 20Z" fill="#2EB85C"/>
</g>
</svg>
