<svg width="40" height="40" viewBox="0 0 40 40" fill="none" xmlns="http://www.w3.org/2000/svg">
<g id="Arrow - Right">
<path id="Union" fill-rule="evenodd" clip-rule="evenodd" d="M20.7815 9.11612C21.2696 8.62796 22.0611 8.62796 22.5492 9.11612L32.5492 19.1161C32.7837 19.3505 32.9154 19.6685 32.9154 20C32.9154 20.3315 32.7837 20.6495 32.5492 20.8839L22.5492 30.8839C22.0611 31.372 21.2696 31.372 20.7815 30.8839C20.2933 30.3957 20.2933 29.6043 20.7815 29.1161L28.6476 21.25H8.33203C7.64168 21.25 7.08203 20.6904 7.08203 20C7.08203 19.3096 7.64168 18.75 8.33203 18.75H28.6476L20.7815 10.8839C20.2933 10.3957 20.2933 9.60427 20.7815 9.11612Z" fill="#22282F"/>
</g>
</svg>
