<svg width="19" height="24" viewBox="0 0 19 24" fill="none" xmlns="http://www.w3.org/2000/svg">
<g id="Group">
<path id="Vector" d="M3.99979 13.1907L4.0637 13.1138C4.45075 13.4354 4.87829 13.7097 5.33671 13.929C5.21005 13.7118 5.09135 13.4787 4.98108 13.2315M3.99979 13.1907H5.0724M3.99979 13.1907L4.0637 13.1138C2.70095 11.9816 1.83163 10.2728 1.83163 8.36436C1.83163 5.91333 3.26596 3.79319 5.33673 2.79992M3.99979 13.1907L5.42913 2.64669M4.98108 13.2315L5.0724 13.1907M4.98108 13.2315C4.98108 13.2315 4.98108 13.2315 4.98108 13.2315L5.0724 13.1907M4.98108 13.2315C4.40125 11.9321 4.05477 10.2399 4.05477 8.36436C4.05477 6.13326 4.5437 4.158 5.33673 2.79992M5.0724 13.1907C4.49926 11.9064 4.15477 10.2285 4.15477 8.36436C4.15477 6.07533 4.67265 4.06569 5.49799 2.72543C5.44382 2.74951 5.39006 2.77434 5.33673 2.79992M5.33673 2.79992C5.36709 2.74793 5.39789 2.69685 5.42913 2.64669M5.42913 2.64669C5.48349 2.6222 5.53826 2.59847 5.59343 2.57551L5.42913 2.64669ZM4.1018 14.7229L5.15825 18.2992H4.15443H4.05443V18.3992V20.5314C4.05443 21.948 5.20291 23.1 6.61616 23.1H9.34331C10.7567 23.1 11.9054 21.948 11.9054 20.5314V18.3992V18.2992H11.8054H10.8016L11.8583 14.7229C13.9916 13.4098 15.4229 11.0547 15.4229 8.36436C15.4229 4.24845 12.0847 0.9 7.98 0.9C3.87508 0.9 0.536719 4.24844 0.536719 8.36436C0.536719 11.0547 1.9683 13.4098 4.1018 14.7229ZM11.8956 13.1138L11.8955 13.1138C11.5087 13.4356 11.0812 13.7099 10.6228 13.9291C10.7495 13.7119 10.8685 13.479 10.9787 13.2315C11.5585 11.9325 11.9048 10.2403 11.9048 8.36436C11.9048 6.13357 11.416 4.15802 10.623 2.7999C12.694 3.79316 14.128 5.91331 14.128 8.36436C14.128 10.2728 13.2587 11.9816 11.8956 13.1138ZM6.37769 13.1429L6.37768 13.1429C5.78207 12.049 5.34962 10.3797 5.34962 8.36436C5.34962 6.52992 5.70709 4.97841 6.22085 3.88909C6.47782 3.34422 6.77218 2.91862 7.07707 2.63065C7.38246 2.34221 7.69122 2.19817 7.97994 2.19817C8.26865 2.19817 8.57743 2.34221 8.88284 2.63065C9.18775 2.91862 9.48213 3.34423 9.73913 3.88909C10.2529 4.97841 10.6105 6.52992 10.6105 8.36436C10.6105 10.3793 10.1779 12.049 9.5822 13.1429L9.58218 13.1429C9.32412 13.6173 9.03785 13.9766 8.74603 14.2108C8.48341 14.4211 8.22429 14.5309 7.97994 14.5309C7.73557 14.5309 7.47644 14.421 7.214 14.2107C6.92189 13.9766 6.63576 13.6173 6.37769 13.1429ZM10.6105 19.5973V20.5314C10.6105 21.2321 10.0417 21.802 9.34331 21.802H6.61616C5.91797 21.802 5.34928 21.2322 5.34928 20.5314V19.5973H10.6105ZM10.2927 15.451L9.45857 18.2741H6.50144L5.66733 15.451C6.39581 15.6919 7.17127 15.829 7.98 15.829C8.78867 15.829 9.56464 15.6919 10.2927 15.451Z" fill="#1E1E1E" stroke="#1E1E1E" stroke-width="0.2"/>
<path id="Vector_2" d="M15.1899 21V15M15.1899 15L12.7422 17.5M15.1899 15L17.6376 17.5" stroke="#1E1E1E" stroke-width="1.2" stroke-linecap="round" stroke-linejoin="round"/>
</g>
</svg>
