<svg width="24" height="24" viewBox="0 0 24 24" fill="none" xmlns="http://www.w3.org/2000/svg">
<g id="Fire">
<path id="Vector" d="M19.3017 11.0483C18.8605 10.0724 18.2209 9.19571 17.4224 8.47233L16.7581 7.88003C16.7359 7.85981 16.709 7.84535 16.6797 7.83795C16.6505 7.83055 16.6198 7.83046 16.5905 7.83767C16.5612 7.84488 16.5341 7.85918 16.5119 7.87926C16.4896 7.89934 16.4727 7.92457 16.4628 7.95267L16.1676 8.78525C15.9446 9.37249 15.6049 9.91008 15.1683 10.3666C15.145 10.3925 15.1125 10.4085 15.0775 10.4113C15.059 10.4145 15.0399 10.4131 15.0221 10.4072C15.0043 10.4014 14.9882 10.3912 14.9753 10.3778C14.9465 10.3497 14.9302 10.3115 14.9299 10.2716C14.9463 8.68333 14.5181 7.12126 13.6921 5.75668C12.9953 4.4342 11.9375 3.32924 10.6376 2.56606L9.71778 2.02404C9.68962 2.00801 9.6576 1.99971 9.62507 2.00001C9.59254 2.00031 9.56068 2.00921 9.53284 2.02576C9.50499 2.04232 9.48217 2.06593 9.46677 2.09414C9.45136 2.12234 9.44393 2.15409 9.44526 2.18609L9.49635 3.25894C9.5421 3.91002 9.45523 4.56354 9.24086 5.18113C8.80997 6.30969 8.0665 7.2969 7.0947 8.0309C6.14025 8.75697 5.36405 9.68511 4.82364 10.7466C4.2833 11.8181 4.00156 12.998 4.00038 14.1942C3.98994 15.2377 4.19669 16.2721 4.60789 17.234C5.45126 19.1443 7.02505 20.6511 8.9887 21.4281C10.9523 22.2051 13.1479 22.1898 15.1002 21.3857C17.0152 20.5999 18.5458 19.1136 19.3698 17.2396C19.7941 16.2595 20.0085 15.2039 19.9997 14.1387C19.9909 13.0734 19.7591 12.0214 19.3187 11.0483H19.3017ZM16.531 18.6309C15.3152 19.813 13.6751 20.4758 11.9661 20.4758C10.2572 20.4758 8.61704 19.813 7.4013 18.6309C6.45894 17.7083 5.83556 16.5172 5.61952 15.2265C5.40347 13.9357 5.60574 12.6107 6.19763 11.4394C6.62843 10.5812 7.24927 9.82884 8.01448 9.23786C8.50623 8.86765 8.95213 8.44193 9.34306 7.96943C9.90427 7.29994 10.3511 6.54504 10.666 5.73432C10.7914 5.39757 10.8827 5.04943 10.9385 4.695C11.5016 5.21352 11.9719 5.82181 12.3295 6.49426C13.0137 7.61032 13.3731 8.88993 13.3685 10.1934C13.3565 10.4257 13.3938 10.658 13.478 10.8754C13.5622 11.0928 13.6915 11.2906 13.8575 11.4561C14.0236 11.6217 14.2229 11.7514 14.4427 11.8371C14.6625 11.9227 14.898 11.9623 15.1343 11.9535C15.3517 11.939 15.564 11.8821 15.759 11.7862C15.9539 11.6903 16.1275 11.5572 16.2698 11.3947C16.5796 11.0795 16.8573 10.7352 17.0987 10.3666C17.4186 10.7658 17.6856 11.2032 17.8936 11.6685C18.4134 12.8276 18.5615 14.1152 18.318 15.3593C18.0745 16.6034 17.4511 17.7448 16.531 18.6309Z" fill="#1E1E1E"/>
<path id="Vector_2" d="M13.8281 16.8172C13.7169 16.6242 13.5571 16.4509 13.3584 16.3079L13.1948 16.1903C13.1909 16.1857 13.1856 16.1819 13.1794 16.1793C13.1732 16.1767 13.1662 16.1753 13.1592 16.1753C13.1521 16.1753 13.1452 16.1767 13.139 16.1793C13.1328 16.1819 13.1275 16.1857 13.1236 16.1903L13.0453 16.3583C12.9932 16.4761 12.908 16.5832 12.7963 16.6717C12.793 16.3425 12.6668 16.0214 12.4334 15.7482C12.2613 15.4847 11.9972 15.2652 11.672 15.1157L11.4443 15.0038C11.4369 15.001 11.4287 14.9997 11.4205 15C11.4123 15.0004 11.4043 15.0023 11.3973 15.0056C11.3902 15.0089 11.3843 15.0136 11.3801 15.0191C11.3759 15.0246 11.3735 15.0309 11.3731 15.0374V15.2501C11.3828 15.3808 11.3611 15.5118 11.3091 15.6362C11.2442 15.7664 11.1528 15.8873 11.0387 15.9945C10.9619 16.0716 10.8735 16.1412 10.7754 16.2015C10.5309 16.3492 10.3356 16.5412 10.2061 16.7612C10.0795 16.9611 10.0095 17.1802 10.0009 17.4034C9.9923 17.6266 10.0453 17.8486 10.1563 18.0541C10.2574 18.2382 10.4023 18.4054 10.5833 18.5466C10.767 18.6862 10.9816 18.7981 11.2166 18.8769C11.4621 18.9581 11.7258 19 11.9922 19C12.2586 19 12.5223 18.9581 12.7678 18.8769C13.0143 18.8027 13.2393 18.6904 13.4296 18.5466C13.6105 18.4054 13.7554 18.2382 13.8565 18.0541C13.9598 17.8554 14.0083 17.6418 13.9988 17.4273C13.9993 17.2093 13.9411 16.9938 13.8281 16.7948V16.8172Z" fill="#1E1E1E"/>
</g>
</svg>
