<svg width="52" height="51" viewBox="0 0 52 51" fill="none" xmlns="http://www.w3.org/2000/svg">
<g id="Image - Plus">
<path id="Union" fill-rule="evenodd" clip-rule="evenodd" d="M23.7396 4.74391H23.8584H25.9641C26.8363 4.74391 27.5434 5.45098 27.5434 6.32318C27.5434 7.19539 26.8363 7.90245 25.9641 7.90245H23.8584C19.8432 7.90245 16.9907 7.9058 14.8268 8.19674C12.7083 8.48157 11.4877 9.01571 10.5965 9.90686C9.7054 10.798 9.17125 12.0186 8.88642 14.1371C8.59549 16.301 8.59213 19.1535 8.59213 23.1687V27.3801C8.59213 31.1234 8.59505 33.8561 8.83119 35.9625L10.1075 34.6861L13.6274 31.1663L13.7048 31.0889L13.7048 31.0889L13.7048 31.0888C15.0426 29.751 16.1581 28.6355 17.1627 27.869C18.2231 27.0599 19.3435 26.4924 20.6999 26.4924C22.0562 26.4924 23.1766 27.0599 24.237 27.869C25.2417 28.6355 26.3572 29.7511 27.6949 31.0889L27.7724 31.1663L30.1761 33.57C31.22 32.532 32.1255 31.6607 32.9554 31.0275C34.0158 30.2184 35.1362 29.6509 36.4925 29.6509C37.8489 29.6509 38.9693 30.2184 40.0297 31.0275C40.9735 31.7476 42.0152 32.7758 43.247 34.0069C43.3345 32.2219 43.336 30.06 43.336 27.3801V25.2744C43.336 24.4022 44.0431 23.6951 44.9153 23.6951C45.7875 23.6951 46.4946 24.4022 46.4946 25.2744V27.3801V27.499C46.4946 31.3687 46.4946 34.4338 46.1721 36.8326C45.8402 39.3013 45.1409 41.2995 43.565 42.8754C41.9892 44.4512 39.991 45.1505 37.5223 45.4824C35.1235 45.805 32.0584 45.8049 28.1887 45.8049H28.0698H23.8584H23.7395C19.8698 45.8049 16.8047 45.805 14.4059 45.4824C11.9371 45.1505 9.93894 44.4512 8.36312 42.8754C6.7873 41.2995 6.08797 39.3013 5.75605 36.8326C5.43353 34.4338 5.43356 31.3686 5.43359 27.4989L5.4336 27.3801V23.1687L5.43359 23.0499C5.43356 19.1802 5.43353 16.115 5.75605 13.7162C6.08797 11.2475 6.7873 9.24926 8.36312 7.67344C9.93894 6.09762 11.9371 5.39828 14.4059 5.06637C16.8047 4.74385 19.8698 4.74388 23.7396 4.74391ZM10.5965 40.6419C10.2706 40.316 9.99234 39.9459 9.75662 39.5039L12.341 36.9196L15.8608 33.3997C17.2961 31.9644 18.2627 31.0026 19.0786 30.3801C19.8581 29.7853 20.3118 29.6509 20.6999 29.6509C21.0879 29.6509 21.5416 29.7853 22.3211 30.3801C23.137 31.0026 24.1036 31.9644 25.5389 33.3998L29.0588 36.9196L34.6965 42.5574C32.9116 42.6449 30.7496 42.6464 28.0698 42.6464H23.8584C19.8432 42.6464 16.9907 42.643 14.8268 42.3521C12.7083 42.0672 11.4877 41.5331 10.5965 40.6419ZM41.3316 40.6419C40.6865 41.287 39.8688 41.745 38.6629 42.0568L38.6621 42.0561L32.4097 35.8037C33.4441 34.776 34.2076 34.045 34.8713 33.5386C35.6508 32.9439 36.1045 32.8095 36.4925 32.8095C36.8806 32.8095 37.3343 32.9439 38.1138 33.5386C38.9297 34.1611 39.8963 35.1229 41.3316 36.5583L42.7457 37.9724L42.7465 37.9732C42.4347 39.1792 41.9767 39.9969 41.3316 40.6419ZM40.1775 6.32318C40.1775 5.45098 39.4704 4.74391 38.5982 4.74391C37.726 4.74391 37.019 5.45098 37.019 6.32318V11.061H32.2812C31.409 11.061 30.7019 11.768 30.7019 12.6403C30.7019 13.5125 31.409 14.2195 32.2812 14.2195H37.019V18.9573C37.019 19.8295 37.726 20.5366 38.5982 20.5366C39.4704 20.5366 40.1775 19.8295 40.1775 18.9573V14.2195H44.9153C45.7875 14.2195 46.4946 13.5125 46.4946 12.6403C46.4946 11.768 45.7875 11.061 44.9153 11.061H40.1775V6.32318Z" fill="#1E1E1E"/>
</g>
</svg>
