<svg width="32" height="32" viewBox="0 0 32 32" fill="none" xmlns="http://www.w3.org/2000/svg">
<g id="Image - 3">
<path id="Union" fill-rule="evenodd" clip-rule="evenodd" d="M11.9268 3L12 3H20L20.0732 3C21.8966 2.99997 23.3664 2.99995 24.5223 3.15536C25.7225 3.31672 26.733 3.66191 27.5355 4.46447C28.3381 5.26702 28.6833 6.27752 28.8446 7.47767C29 8.63363 29 10.1034 29 11.9269V12V20V20.0731C29 21.8966 29 23.3664 28.8446 24.5223C28.6833 25.7225 28.3381 26.733 27.5355 27.5355C26.733 28.3381 25.7225 28.6833 24.5223 28.8446C23.3664 29 21.8966 29 20.0731 29H20H12H11.9269C10.1034 29 8.63363 29 7.47767 28.8446C6.27752 28.6833 5.26702 28.3381 4.46447 27.5355C3.66191 26.733 3.31672 25.7225 3.15536 24.5223C2.99995 23.3664 2.99997 21.8966 3 20.0732L3 20V12L3 11.9268C2.99997 10.1034 2.99995 8.63362 3.15536 7.47767C3.31672 6.27752 3.66191 5.26702 4.46447 4.46447C5.26702 3.66191 6.27752 3.31672 7.47767 3.15536C8.63362 2.99995 10.1034 2.99997 11.9268 3ZM7.74416 5.13753C6.76579 5.26907 6.2477 5.50966 5.87868 5.87868C5.50966 6.2477 5.26907 6.76579 5.13753 7.74416C5.00212 8.75129 5 10.0861 5 12V20C5 21.1552 5.00077 22.0994 5.03116 22.888L5.95956 21.9596L9.13113 18.788L9.17768 18.7414C9.80448 18.1146 10.3446 17.5744 10.8352 17.2001C11.3611 16.7989 11.9459 16.4951 12.6667 16.4951C13.3874 16.4951 13.9723 16.7989 14.4981 17.2001C14.9888 17.5744 15.5289 18.1146 16.1557 18.7415L16.2022 18.788L18.6667 21.2525L19.1311 20.788L19.1777 20.7414C19.8045 20.1146 20.3446 19.5744 20.8352 19.2001C21.3611 18.7989 21.9459 18.4951 22.6667 18.4951C23.3874 18.4951 23.9723 18.7989 24.4981 19.2001C24.9888 19.5744 25.5288 20.1146 26.1557 20.7414L26.2022 20.788L26.9958 21.5816C26.9998 21.1025 27 20.5776 27 20V12C27 10.0861 26.9979 8.7513 26.8625 7.74416C26.7309 6.76579 26.4903 6.2477 26.1213 5.87868C25.7523 5.50966 25.2342 5.26907 24.2558 5.13753C23.2487 5.00212 21.9139 5 20 5H12C10.0861 5 8.7513 5.00212 7.74416 5.13753ZM26.8674 24.2185C26.7807 24.1728 26.6992 24.1134 26.6262 24.0404L24.788 22.2022C24.1013 21.5155 23.656 21.0732 23.285 20.7901C22.937 20.5247 22.7743 20.4951 22.6667 20.4951C22.559 20.4951 22.3963 20.5247 22.0484 20.7901C21.6774 21.0732 21.232 21.5155 20.5453 22.2022L20.0809 22.6667L24.0404 26.6262C24.1134 26.6992 24.1728 26.7807 24.2185 26.8674C24.231 26.8658 24.2434 26.8641 24.2558 26.8625C25.2342 26.7309 25.7523 26.4903 26.1213 26.1213C26.4903 25.7523 26.7309 25.2342 26.8625 24.2558C26.8641 24.2434 26.8658 24.231 26.8674 24.2185ZM21.5816 26.9958L17.9596 23.3738L14.788 20.2022C14.1013 19.5155 13.656 19.0732 13.285 18.7901C12.937 18.5247 12.7743 18.4951 12.6667 18.4951C12.559 18.4951 12.3963 18.5247 12.0484 18.7901C11.6774 19.0732 11.232 19.5155 10.5453 20.2022L7.37377 23.3738L5.39384 25.3537C5.52069 25.684 5.68132 25.924 5.87868 26.1213C6.2477 26.4903 6.76579 26.7309 7.74416 26.8625C8.75129 26.9979 10.0861 27 12 27H20C20.5776 27 21.1025 26.9998 21.5816 26.9958ZM20 10.3333C19.0795 10.3333 18.3333 11.0795 18.3333 12C18.3333 12.9205 19.0795 13.6667 20 13.6667C20.9205 13.6667 21.6667 12.9205 21.6667 12C21.6667 11.0795 20.9205 10.3333 20 10.3333ZM16.3333 12C16.3333 9.97496 17.975 8.33333 20 8.33333C22.025 8.33333 23.6667 9.97496 23.6667 12C23.6667 14.025 22.025 15.6667 20 15.6667C17.975 15.6667 16.3333 14.025 16.3333 12Z" fill="#951EB3"/>
</g>
</svg>
