<svg width="51" height="51" viewBox="0 0 51 51" fill="none" xmlns="http://www.w3.org/2000/svg">
<g id="Image - 2">
<path id="Union" fill-rule="evenodd" clip-rule="evenodd" d="M31.1747 11.7032C31.1747 9.6681 32.8245 8.01829 34.8596 8.01829C36.8948 8.01829 38.5446 9.6681 38.5446 11.7032C38.5446 13.7384 36.8948 15.3882 34.8596 15.3882C32.8245 15.3882 31.1747 13.7384 31.1747 11.7032ZM34.8596 4.85975C31.0801 4.85975 28.0161 7.92369 28.0161 11.7032C28.0161 15.4828 31.0801 18.5467 34.8596 18.5467C38.6392 18.5467 41.7031 15.4828 41.7031 11.7032C41.7031 7.92369 38.6392 4.85975 34.8596 4.85975ZM13.3103 26.737C14.934 24.2113 16.0579 22.4708 17.0475 21.3391C18.019 20.2282 18.595 20.0176 19.0669 20.0176C19.5389 20.0176 20.1149 20.2282 21.0864 21.3391C22.076 22.4708 23.1999 24.2113 24.8235 26.737L29.3198 33.7311L35.1255 42.7622H19.0669H15.5434C12.0856 42.7622 9.67384 42.758 7.96545 42.5051C6.26239 42.2529 5.75365 41.8206 5.51933 41.3914C5.285 40.9621 5.19642 40.3004 5.90527 38.7315C6.61633 37.1576 7.91695 35.1267 9.78681 32.218L13.3103 26.737ZM42.8236 42.6515C41.858 42.7454 40.6005 42.7597 38.8801 42.7618L32.5261 32.8777C33.4952 31.3763 34.2164 30.2904 34.8556 29.5107C35.6065 28.5947 36.0532 28.3473 36.3767 28.2731C36.7641 28.1842 37.1666 28.1842 37.5539 28.2731C37.88 28.3479 38.3245 28.5941 39.068 29.4995C39.8166 30.4112 40.6772 31.7451 41.9225 33.6823L42.4919 34.5679C43.6667 36.3954 44.4832 37.6689 44.9973 38.67C45.5175 39.6832 45.5841 40.1571 45.5541 40.4239C45.4772 41.1088 45.1346 41.7363 44.6 42.1715C44.3918 42.3409 43.9572 42.5412 42.8236 42.6515ZM27.4804 25.029L30.6536 29.965C31.2928 28.9977 31.8684 28.1726 32.4129 27.5083C33.3144 26.4085 34.3211 25.5041 35.6704 25.1945C36.5226 24.999 37.408 24.999 38.2603 25.1945C39.607 25.5035 40.6106 26.401 41.509 27.495C42.3886 28.5663 43.3475 30.0579 44.5244 31.8887L44.5794 31.9743L45.1487 32.8599L45.1954 32.9324L45.1954 32.9325C46.3126 34.6703 47.2143 36.0729 47.8071 37.2272C48.4018 38.3855 48.8301 39.5553 48.6929 40.7764C48.5237 42.2834 47.77 43.6638 46.5939 44.6211C45.6409 45.3968 44.4253 45.6691 43.1294 45.7952C41.8379 45.9208 40.1704 45.9208 38.1046 45.9207H38.0182H19.0669H15.5434H15.4043C12.1181 45.9208 9.47039 45.9208 7.50285 45.6295C5.50229 45.3333 3.71017 44.669 2.74704 42.9049C1.78391 41.1408 2.1942 39.274 3.02687 37.431C3.8458 35.6185 5.27761 33.3913 7.05471 30.627L7.12992 30.51L10.6535 25.029L10.7258 24.9164L10.7258 24.9164C12.2595 22.5305 13.5076 20.5889 14.6699 19.2599C15.8685 17.8892 17.2397 16.8591 19.0669 16.8591C20.8942 16.8591 22.2654 17.8892 23.464 19.2599C24.6263 20.5889 25.8744 22.5305 27.4081 24.9164L27.4804 25.029Z" fill="#E9E9E9"/>
</g>
</svg>
