<svg width="25" height="24" viewBox="0 0 25 24" fill="none" xmlns="http://www.w3.org/2000/svg">
<path fill-rule="evenodd" clip-rule="evenodd" d="M13.25 2C13.25 1.58579 12.9142 1.25 12.5 1.25C12.0858 1.25 11.75 1.58579 11.75 2V12C11.75 12.4142 12.0858 12.75 12.5 12.75C12.9142 12.75 13.25 12.4142 13.25 12V2ZM7.31445 5.58303C7.63645 5.32247 7.68625 4.85021 7.42569 4.52822C7.16513 4.20622 6.69288 4.15641 6.37088 4.41697C5.96305 4.74699 5.58242 5.10922 5.23283 5.49981C3.6894 7.22428 2.75 9.50333 2.75 12C2.75 17.3848 7.11522 21.75 12.5 21.75C17.8848 21.75 22.25 17.3848 22.25 12C22.25 9.50333 21.3106 7.22428 19.7672 5.49981C19.4176 5.10922 19.0369 4.74699 18.6291 4.41697C18.3071 4.15641 17.8349 4.20622 17.5743 4.52822C17.3137 4.85021 17.3636 5.32247 17.6855 5.58303C18.0309 5.86251 18.3533 6.16934 18.6495 6.50019C19.9563 7.96026 20.75 9.88655 20.75 12C20.75 16.5563 17.0563 20.25 12.5 20.25C7.94365 20.25 4.25 16.5563 4.25 12C4.25 9.88655 5.04373 7.96026 6.35053 6.50019C6.64665 6.16933 6.96906 5.86251 7.31445 5.58303Z" fill="white"/>
</svg>
