<svg width="24" height="24" viewBox="0 0 24 24" fill="none" xmlns="http://www.w3.org/2000/svg">
<g id="Trash - 2">
<path id="Union" fill-rule="evenodd" clip-rule="evenodd" d="M10.3989 1.99999C10.4131 1.99999 10.4273 2 10.4415 2H13.5585C13.5727 2 13.5869 1.99999 13.6011 1.99999C13.9118 1.99993 14.223 1.99986 14.4873 2.03005C14.7893 2.06452 15.1284 2.14668 15.4487 2.37751C15.7689 2.60834 15.9541 2.90404 16.0823 3.17963C16.1945 3.42087 16.2929 3.71606 16.3911 4.01089C16.3956 4.02437 16.4 4.03784 16.4045 4.05131L16.7208 5H19H21C21.5523 5 22 5.44771 22 6C22 6.55228 21.5523 7 21 7H19.9356L19.3712 15.4656L19.3667 15.5332C19.282 16.8031 19.2121 17.8532 19.0469 18.6824C18.8731 19.5545 18.5707 20.3179 17.9261 20.921C17.2815 21.5241 16.4997 21.775 15.6179 21.8904C14.7795 22.0001 13.7271 22 12.4545 22H12.3867H11.6133H11.5455C10.2729 22 9.22047 22.0001 8.38209 21.8904C7.50033 21.775 6.71855 21.5241 6.07392 20.921C5.4293 20.3179 5.12686 19.5545 4.95312 18.6824C4.78793 17.8532 4.71795 16.8031 4.63333 15.5333L4.62882 15.4656L4.06445 7H3C2.44772 7 2 6.55228 2 6C2 5.44771 2.44772 5 3 5H5H7.27924L7.59547 4.05131C7.59996 4.03785 7.60444 4.02438 7.60893 4.01092C7.70714 3.71607 7.80548 3.42087 7.9177 3.17963C8.04591 2.90404 8.23108 2.60834 8.55134 2.37751C8.8716 2.14668 9.21068 2.06452 9.51266 2.03005C9.77702 1.99986 10.0882 1.99993 10.3989 1.99999ZM9.38743 5H14.6126L14.5072 4.68377C14.3899 4.33191 14.327 4.14815 14.2689 4.02322C14.2681 4.02138 14.2672 4.01958 14.2664 4.01783C14.2645 4.0176 14.2625 4.01737 14.2605 4.01714C14.1236 4.00151 13.9294 4 13.5585 4H10.4415C10.0706 4 9.87643 4.00151 9.73953 4.01714C9.73751 4.01737 9.73554 4.0176 9.73361 4.01783C9.73278 4.01958 9.73194 4.02138 9.73109 4.02322C9.67297 4.14815 9.61012 4.33191 9.49284 4.68377L9.38743 5ZM6.06889 7L6.62439 15.3326C6.7147 16.6872 6.77795 17.6058 6.91458 18.2917C7.04559 18.9493 7.21991 19.2543 7.44029 19.4605C7.66067 19.6667 7.9766 19.8203 8.64149 19.9073C9.33492 19.998 10.2557 20 11.6133 20H12.3867C13.7443 20 14.6651 19.998 15.3585 19.9073C16.0234 19.8203 16.3393 19.6667 16.5597 19.4605C16.7801 19.2543 16.9544 18.9493 17.0854 18.2917C17.2221 17.6058 17.2853 16.6872 17.3756 15.3326L17.9311 7H16H8H6.06889Z" fill="white"/>
</g>
</svg>
