<svg width="48" height="48" viewBox="0 0 48 48" fill="none" xmlns="http://www.w3.org/2000/svg">
<g id="Video - Plus">
<g id="Union">
<path fill-rule="evenodd" clip-rule="evenodd" d="M40.75 2C40.75 1.58579 40.4142 1.25 40 1.25C39.5858 1.25 39.25 1.58579 39.25 2V7.25H34C33.5858 7.25 33.25 7.58579 33.25 8C33.25 8.41421 33.5858 8.75 34 8.75H39.25V14C39.25 14.4142 39.5858 14.75 40 14.75C40.4142 14.75 40.75 14.4142 40.75 14V8.75H46C46.4142 8.75 46.75 8.41421 46.75 8C46.75 7.58579 46.4142 7.25 46 7.25H40.75V2ZM9.94513 7.25L10 7.25H27C27.4142 7.25 27.75 7.58579 27.75 8C27.75 8.41421 27.4142 8.75 27 8.75H10C8.56458 8.75 7.56347 8.75159 6.80812 8.85315C6.07435 8.9518 5.68577 9.13225 5.40901 9.40901C5.13225 9.68577 4.9518 10.0743 4.85315 10.8081C4.75159 11.5635 4.75 12.5646 4.75 14V38C4.75 39.4354 4.75159 40.4365 4.85315 41.1919C4.9518 41.9257 5.13225 42.3142 5.40901 42.591C5.68577 42.8678 6.07435 43.0482 6.80812 43.1469C7.56347 43.2484 8.56459 43.25 10 43.25H34C35.4354 43.25 36.4365 43.2484 37.1919 43.1469C37.9257 43.0482 38.3142 42.8678 38.591 42.591C38.8678 42.3142 39.0482 41.9257 39.1469 41.1919C39.2484 40.4365 39.25 39.4354 39.25 38V21C39.25 20.5858 39.5858 20.25 40 20.25C40.4142 20.25 40.75 20.5858 40.75 21V38V38.0549C40.75 39.4225 40.75 40.5248 40.6335 41.3918C40.5125 42.2919 40.2536 43.0497 39.6516 43.6516C39.0497 44.2536 38.2919 44.5125 37.3918 44.6335C36.5248 44.75 35.4225 44.75 34.0549 44.75H34H10H9.94507C8.57751 44.75 7.47521 44.75 6.60825 44.6335C5.70814 44.5125 4.95027 44.2536 4.34835 43.6516C3.74643 43.0497 3.48754 42.2919 3.36652 41.3918C3.24996 40.5248 3.24998 39.4225 3.25 38.0549L3.25 38V14L3.25 13.9451C3.24998 12.5775 3.24996 11.4752 3.36652 10.6082C3.48754 9.70814 3.74643 8.95027 4.34835 8.34835C4.95027 7.74643 5.70814 7.48754 6.60825 7.36652C7.47521 7.24996 8.57753 7.24998 9.94511 7.25H9.94512H9.94513ZM21.4759 19.4159L21.5254 19.4489L27.9199 23.7119L27.966 23.7426C28.4909 24.0925 28.953 24.4005 29.2767 24.693C29.6209 25.004 29.9472 25.419 29.9472 26C29.9472 26.581 29.6209 26.996 29.2767 27.307C28.9531 27.5995 28.4909 27.9075 27.9661 28.2573L27.9661 28.2574L27.966 28.2574L27.9199 28.2881L21.5254 32.5511L21.4759 32.5841L21.4758 32.5842C20.8339 33.0122 20.2825 33.3799 19.8238 33.5965C19.3527 33.819 18.7611 33.9885 18.1742 33.6744C17.5874 33.3603 17.4003 32.7741 17.3241 32.2586C17.2499 31.7569 17.25 31.0941 17.25 30.3225V30.3225L17.25 30.263V21.737L17.25 21.6775V21.6775C17.25 20.9059 17.2499 20.2431 17.3241 19.7414C17.4003 19.2259 17.5874 18.6397 18.1742 18.3256C18.7611 18.0115 19.3527 18.181 19.8238 18.4035C20.2825 18.6201 20.8339 18.9878 21.4759 19.4159ZM18.8556 19.6558C18.8554 19.6555 18.8561 19.6551 18.8578 19.6547C18.8598 19.6543 18.8633 19.6539 18.8685 19.654C18.8608 19.6565 18.8561 19.6564 18.8556 19.6558ZM18.8858 19.6551C18.9275 19.6598 19.0171 19.6814 19.1833 19.7599C19.5293 19.9233 19.9878 20.2266 20.6934 20.697L27.0878 24.9599C27.6729 25.35 28.0397 25.5969 28.271 25.8059C28.3802 25.9046 28.4247 25.9653 28.4418 25.9948L28.4446 26L28.4418 26.0052C28.4247 26.0347 28.3802 26.0954 28.271 26.1941C28.0397 26.4031 27.6729 26.65 27.0878 27.0401L20.6934 31.303C19.9878 31.7734 19.5293 32.0767 19.1833 32.2401C19.0171 32.3186 18.9275 32.3401 18.8858 32.3449C18.8666 32.3076 18.8348 32.2211 18.808 32.0393C18.752 31.6607 18.75 31.111 18.75 30.263V21.737C18.75 20.889 18.752 20.3393 18.808 19.9607C18.8348 19.7789 18.8666 19.6924 18.8858 19.6551ZM18.8556 32.3442C18.8561 32.3436 18.8608 32.3436 18.8685 32.346C18.859 32.3461 18.8552 32.3449 18.8556 32.3442ZM18.8944 32.3599C18.9007 32.3649 18.9034 32.3689 18.9031 32.3696C18.9028 32.3704 18.8996 32.3679 18.8944 32.3599ZM18.8944 19.6401C18.8996 19.6321 18.9028 19.6296 18.9031 19.6304C18.9034 19.6311 18.9007 19.6351 18.8944 19.6401Z" fill="#22282F"/>
<path d="M39.25 7.25V8.25C39.8023 8.25 40.25 7.80228 40.25 7.25H39.25ZM39.25 8.75H40.25C40.25 8.19772 39.8023 7.75 39.25 7.75V8.75ZM40.75 8.75V7.75C40.1977 7.75 39.75 8.19772 39.75 8.75H40.75ZM40.75 7.25H39.75C39.75 7.80228 40.1977 8.25 40.75 8.25V7.25ZM10 7.25L9.99999 8.25H10V7.25ZM9.94513 7.25L9.94513 6.25H9.94513V7.25ZM6.80812 8.85315L6.94137 9.84423H6.94137L6.80812 8.85315ZM5.40901 9.40901L6.11612 10.1161L6.11612 10.1161L5.40901 9.40901ZM4.85315 10.8081L3.86207 10.6749H3.86207L4.85315 10.8081ZM4.85315 41.1919L3.86207 41.3251H3.86207L4.85315 41.1919ZM5.40901 42.591L4.7019 43.2981L4.70191 43.2981L5.40901 42.591ZM6.80812 43.1469L6.67487 44.1379L6.67488 44.1379L6.80812 43.1469ZM37.1919 43.1469L37.3251 44.1379L37.3251 44.1379L37.1919 43.1469ZM38.591 42.591L39.2981 43.2981L39.2981 43.2981L38.591 42.591ZM39.1469 41.1919L40.1379 41.3251L40.1379 41.3251L39.1469 41.1919ZM40.75 38.0549H39.75V38.0549L40.75 38.0549ZM40.6335 41.3918L39.6424 41.2585V41.2585L40.6335 41.3918ZM37.3918 44.6335L37.2585 43.6424L37.2585 43.6424L37.3918 44.6335ZM34.0549 44.75L34.055 43.75H34.0549V44.75ZM9.94507 44.75V43.75H9.94505L9.94507 44.75ZM6.60825 44.6335L6.7415 43.6424L6.74149 43.6424L6.60825 44.6335ZM4.34835 43.6516L3.64124 44.3588H3.64124L4.34835 43.6516ZM3.36652 41.3918L4.35761 41.2585L3.36652 41.3918ZM3.25 38.0549L4.25 38.0549V38.0549L3.25 38.0549ZM3.25 38L4.25 38V38H3.25ZM3.25 14H4.25V14L3.25 14ZM3.25 13.9451L4.25 13.9451V13.9451L3.25 13.9451ZM3.36652 10.6082L2.37544 10.475H2.37544L3.36652 10.6082ZM4.34835 8.34835L3.64124 7.64124H3.64124L4.34835 8.34835ZM6.60825 7.36652L6.475 6.37544L6.60825 7.36652ZM9.94511 7.25L9.9451 8.25H9.94511V7.25ZM21.5254 19.4489L20.9707 20.2809L20.9707 20.2809L21.5254 19.4489ZM21.4759 19.4159L20.9212 20.2479L20.9212 20.2479L21.4759 19.4159ZM27.9199 23.7119L27.3652 24.5439L27.3652 24.5439L27.9199 23.7119ZM27.966 23.7426L27.4114 24.5747L27.4114 24.5747L27.966 23.7426ZM29.2767 24.693L29.9472 23.9511H29.9472L29.2767 24.693ZM29.2767 27.307L28.6063 26.565L28.6063 26.565L29.2767 27.307ZM27.9661 28.2573L28.4902 29.109C28.5005 29.1026 28.5107 29.0961 28.5208 29.0894L27.9661 28.2573ZM27.9661 28.2574L28.4806 29.1149L28.4901 29.109L27.9661 28.2574ZM27.966 28.2574L27.4515 27.3999C27.4379 27.408 27.4246 27.4165 27.4114 27.4253L27.966 28.2574ZM27.9199 28.2881L27.3652 27.4561L27.3652 27.4561L27.9199 28.2881ZM21.5254 32.5511L20.9707 31.7191L20.9707 31.7191L21.5254 32.5511ZM21.4759 32.5841L20.9212 31.7521C20.9173 31.7547 20.9133 31.7574 20.9094 31.7601L21.4759 32.5841ZM21.4758 32.5842L22.0306 33.4162C22.0345 33.4136 22.0385 33.4109 22.0424 33.4082L21.4758 32.5842ZM19.8238 33.5965L19.3968 32.6922L19.3968 32.6922L19.8238 33.5965ZM18.1742 33.6744L17.7024 34.5561H17.7024L18.1742 33.6744ZM17.3241 32.2586L16.3348 32.4049L17.3241 32.2586ZM17.25 30.3225L18.25 30.3226V30.3225H17.25ZM17.25 30.3225L16.25 30.3224V30.3225H17.25ZM17.25 30.263L18.25 30.263V30.263H17.25ZM17.25 21.737H18.25V21.737L17.25 21.737ZM17.25 21.6775H16.25V21.6776L17.25 21.6775ZM17.25 21.6775H18.25V21.6774L17.25 21.6775ZM17.3241 19.7414L18.3133 19.8876V19.8876L17.3241 19.7414ZM19.8238 18.4035L20.2509 17.4993L19.8238 18.4035ZM18.8578 19.6547L19.0669 20.6326L19.0674 20.6325L18.8578 19.6547ZM18.8556 19.6558L19.6694 19.0745L19.6683 19.073L18.8556 19.6558ZM18.8685 19.654L19.1775 20.605C19.6441 20.4534 19.9318 19.9858 19.8568 19.501C19.7817 19.0162 19.3661 18.6574 18.8755 18.654L18.8685 19.654ZM19.1833 19.7599L18.7562 20.6641L18.7562 20.6641L19.1833 19.7599ZM18.8858 19.6551L18.9988 18.6615C18.5856 18.6145 18.1865 18.8281 17.9964 19.1979L18.8858 19.6551ZM20.6934 20.697L21.2481 19.8649L20.6934 20.697ZM27.0878 24.9599L26.5331 25.792H26.5331L27.0878 24.9599ZM28.271 25.8059L27.6005 26.5479V26.5479L28.271 25.8059ZM28.4418 25.9948L29.3158 25.5089C29.3132 25.5043 29.3106 25.4997 29.3079 25.4951L28.4418 25.9948ZM28.4446 26L29.3186 26.486C29.4866 26.1839 29.4866 25.8163 29.3186 25.5141L28.4446 26ZM28.4418 26.0052L29.3079 26.5049C29.3106 26.5003 29.3131 26.4958 29.3157 26.4912L28.4418 26.0052ZM28.271 26.1941L27.6005 25.4521V25.4521L28.271 26.1941ZM27.0878 27.0401L26.5331 26.208H26.5331L27.0878 27.0401ZM20.6934 31.303L21.2481 32.1351H21.2481L20.6934 31.303ZM19.1833 32.2401L18.7562 31.3359L18.7562 31.3359L19.1833 32.2401ZM18.8858 32.3449L17.9964 32.802C18.1865 33.1719 18.5856 33.3855 18.9988 33.3385L18.8858 32.3449ZM18.808 32.0393L19.7972 31.893L19.7972 31.893L18.808 32.0393ZM18.808 19.9607L19.7972 20.107L19.7972 20.107L18.808 19.9607ZM18.8556 32.3442L19.6694 32.9255L19.6705 32.9239L18.8556 32.3442ZM18.8685 32.346L18.8757 33.346C19.3663 33.3425 19.7819 32.9836 19.8568 32.4987C19.9317 32.0138 19.6438 31.5462 19.1771 31.3948L18.8685 32.346ZM18.8944 32.3599L19.5145 31.5754C19.1296 31.2711 18.5809 31.2911 18.219 31.6224C17.8572 31.9538 17.7892 32.4986 18.0585 32.9088L18.8944 32.3599ZM18.9031 32.3696L17.9685 32.0137L17.9677 32.0158L18.9031 32.3696ZM18.8944 19.6401L18.0585 19.0912C17.7892 19.5014 17.8572 20.0462 18.219 20.3776C18.5809 20.7089 19.1296 20.7289 19.5145 20.4246L18.8944 19.6401ZM18.9031 19.6304L17.9677 19.9842L17.9685 19.9863L18.9031 19.6304ZM40 2.25C39.8619 2.25 39.75 2.13807 39.75 2H41.75C41.75 1.0335 40.9665 0.25 40 0.25V2.25ZM40.25 2C40.25 2.13807 40.1381 2.25 40 2.25V0.25C39.0335 0.25 38.25 1.0335 38.25 2H40.25ZM40.25 7.25V2H38.25V7.25H40.25ZM34 8.25H39.25V6.25H34V8.25ZM34.25 8C34.25 8.13807 34.1381 8.25 34 8.25V6.25C33.0335 6.25 32.25 7.0335 32.25 8H34.25ZM34 7.75C34.1381 7.75 34.25 7.86193 34.25 8H32.25C32.25 8.9665 33.0335 9.75 34 9.75V7.75ZM39.25 7.75H34V9.75H39.25V7.75ZM40.25 14V8.75H38.25V14H40.25ZM40 13.75C40.1381 13.75 40.25 13.8619 40.25 14H38.25C38.25 14.9665 39.0335 15.75 40 15.75V13.75ZM39.75 14C39.75 13.8619 39.8619 13.75 40 13.75V15.75C40.9665 15.75 41.75 14.9665 41.75 14H39.75ZM39.75 8.75V14H41.75V8.75H39.75ZM46 7.75H40.75V9.75H46V7.75ZM45.75 8C45.75 7.86193 45.8619 7.75 46 7.75V9.75C46.9665 9.75 47.75 8.9665 47.75 8H45.75ZM46 8.25C45.8619 8.25 45.75 8.13807 45.75 8H47.75C47.75 7.0335 46.9665 6.25 46 6.25V8.25ZM40.75 8.25H46V6.25H40.75V8.25ZM39.75 2V7.25H41.75V2H39.75ZM10 6.25L9.94513 6.25L9.94512 8.25L9.99999 8.25L10 6.25ZM27 6.25H10V8.25H27V6.25ZM28.75 8C28.75 7.0335 27.9665 6.25 27 6.25V8.25C26.8619 8.25 26.75 8.13807 26.75 8H28.75ZM27 9.75C27.9665 9.75 28.75 8.9665 28.75 8H26.75C26.75 7.86193 26.8619 7.75 27 7.75V9.75ZM10 9.75H27V7.75H10V9.75ZM6.94137 9.84423C7.61447 9.75373 8.53576 9.75 10 9.75V7.75C8.59341 7.75 7.51247 7.74945 6.67487 7.86206L6.94137 9.84423ZM6.11612 10.1161C6.17643 10.0558 6.31915 9.92789 6.94137 9.84423L6.67487 7.86206C5.82954 7.97572 5.19512 8.20869 4.7019 8.7019L6.11612 10.1161ZM5.84423 10.9414C5.92789 10.3191 6.05581 10.1764 6.11612 10.1161L4.7019 8.7019C4.20869 9.19512 3.97572 9.82954 3.86207 10.6749L5.84423 10.9414ZM5.75 14C5.75 12.5358 5.75373 11.6145 5.84423 10.9414L3.86207 10.6749C3.74945 11.5125 3.75 12.5934 3.75 14H5.75ZM5.75 38V14H3.75V38H5.75ZM5.84423 41.0586C5.75373 40.3855 5.75 39.4642 5.75 38H3.75C3.75 39.4066 3.74945 40.4875 3.86207 41.3251L5.84423 41.0586ZM6.11612 41.8839C6.05581 41.8236 5.92789 41.6809 5.84423 41.0586L3.86207 41.3251C3.97572 42.1705 4.20869 42.8049 4.7019 43.2981L6.11612 41.8839ZM6.94137 42.1558C6.31915 42.0721 6.17642 41.9442 6.11611 41.8839L4.70191 43.2981C5.19512 43.7913 5.82954 44.0243 6.67487 44.1379L6.94137 42.1558ZM10 42.25C8.53577 42.25 7.61447 42.2463 6.94137 42.1558L6.67488 44.1379C7.51247 44.2505 8.59341 44.25 10 44.25V42.25ZM34 42.25H10V44.25H34V42.25ZM37.0586 42.1558C36.3855 42.2463 35.4642 42.25 34 42.25V44.25C35.4066 44.25 36.4875 44.2505 37.3251 44.1379L37.0586 42.1558ZM37.8839 41.8839C37.8236 41.9442 37.6809 42.0721 37.0586 42.1558L37.3251 44.1379C38.1705 44.0243 38.8049 43.7913 39.2981 43.2981L37.8839 41.8839ZM38.1558 41.0586C38.0721 41.6809 37.9442 41.8236 37.8839 41.8839L39.2981 43.2981C39.7913 42.8049 40.0243 42.1705 40.1379 41.3251L38.1558 41.0586ZM38.25 38C38.25 39.4642 38.2463 40.3855 38.1558 41.0586L40.1379 41.3251C40.2505 40.4875 40.25 39.4066 40.25 38H38.25ZM38.25 21V38H40.25V21H38.25ZM40 19.25C39.0335 19.25 38.25 20.0335 38.25 21H40.25C40.25 21.1381 40.1381 21.25 40 21.25V19.25ZM41.75 21C41.75 20.0335 40.9665 19.25 40 19.25V21.25C39.8619 21.25 39.75 21.1381 39.75 21H41.75ZM41.75 38V21H39.75V38H41.75ZM41.75 38.0549V38H39.75V38.0549H41.75ZM41.6246 41.525C41.7521 40.5764 41.75 39.3964 41.75 38.0549L39.75 38.0549C39.75 39.4486 39.748 40.4732 39.6424 41.2585L41.6246 41.525ZM40.3588 44.3588C41.1776 43.5399 41.4887 42.5356 41.6246 41.525L39.6424 41.2585C39.5362 42.0481 39.3295 42.5596 38.9445 42.9445L40.3588 44.3588ZM37.525 45.6246C38.5356 45.4887 39.5399 45.1776 40.3588 44.3588L38.9445 42.9445C38.5596 43.3295 38.0481 43.5362 37.2585 43.6424L37.525 45.6246ZM34.0549 45.75C35.3964 45.75 36.5764 45.7521 37.525 45.6246L37.2585 43.6424C36.4732 43.748 35.4486 43.75 34.055 43.75L34.0549 45.75ZM34 45.75H34.0549V43.75H34V45.75ZM10 45.75H34V43.75H10V45.75ZM9.94507 45.75H10V43.75H9.94507V45.75ZM6.475 45.6246C7.42357 45.7521 8.60359 45.75 9.94509 45.75L9.94505 43.75C8.55142 43.75 7.52684 43.748 6.7415 43.6424L6.475 45.6246ZM3.64124 44.3588C4.46011 45.1776 5.4644 45.4887 6.47501 45.6246L6.74149 43.6424C5.95188 43.5362 5.44042 43.3295 5.05546 42.9445L3.64124 44.3588ZM2.37544 41.525C2.51131 42.5356 2.82237 43.5399 3.64124 44.3588L5.05546 42.9445C4.6705 42.5596 4.46377 42.0481 4.35761 41.2585L2.37544 41.525ZM2.25 38.0549C2.24998 39.3964 2.24791 40.5764 2.37544 41.525L4.35761 41.2585C4.25202 40.4731 4.24998 39.4485 4.25 38.0549L2.25 38.0549ZM2.25 38L2.25 38.0549L4.25 38.0549L4.25 38L2.25 38ZM2.25 14V38H4.25V14H2.25ZM2.25 13.9451L2.25 14L4.25 14L4.25 13.9451L2.25 13.9451ZM2.37544 10.475C2.24791 11.4236 2.24998 12.6036 2.25 13.9451L4.25 13.9451C4.24998 12.5514 4.25202 11.5269 4.35761 10.7415L2.37544 10.475ZM3.64124 7.64124C2.82237 8.46011 2.51131 9.4644 2.37544 10.475L4.35761 10.7415C4.46377 9.95188 4.6705 9.44042 5.05546 9.05546L3.64124 7.64124ZM6.475 6.37544C5.4644 6.51131 4.46012 6.82237 3.64124 7.64124L5.05546 9.05546C5.44042 8.6705 5.95188 8.46377 6.7415 8.35761L6.475 6.37544ZM9.94513 6.25C8.60362 6.24998 7.42358 6.24791 6.475 6.37544L6.7415 8.35761C7.52685 8.25202 8.55144 8.24998 9.9451 8.25L9.94513 6.25ZM9.94512 6.25H9.94511V8.25H9.94512V6.25ZM9.94513 6.25H9.94512V8.25H9.94513V6.25ZM22.0802 18.6169L22.0306 18.5839L20.9212 20.2479L20.9707 20.2809L22.0802 18.6169ZM28.4746 22.8798L22.0801 18.6168L20.9707 20.2809L27.3652 24.5439L28.4746 22.8798ZM28.5207 22.9105L28.4745 22.8798L27.3652 24.5439L27.4114 24.5747L28.5207 22.9105ZM29.9472 23.9511C29.5566 23.5981 29.0226 23.2451 28.5207 22.9105L27.4114 24.5747C27.9592 24.9398 28.3495 25.203 28.6063 25.435L29.9472 23.9511ZM30.9472 26C30.9472 24.9994 30.3719 24.3349 29.9472 23.9511L28.6063 25.435C28.8699 25.6732 28.9472 25.8385 28.9472 26H30.9472ZM29.9472 28.0489C30.3719 27.6651 30.9472 27.0006 30.9472 26H28.9472C28.9472 26.1615 28.8699 26.3268 28.6063 26.565L29.9472 28.0489ZM28.5208 29.0894C29.0226 28.7549 29.5566 28.4019 29.9472 28.0489L28.6063 26.565C28.3496 26.797 27.9592 27.0601 27.4115 27.4252L28.5208 29.0894ZM28.4901 29.109L28.4902 29.109L27.442 27.4057L27.442 27.4057L28.4901 29.109ZM28.4805 29.1149L28.4805 29.1149L27.4516 27.3999L27.4515 27.3999L28.4805 29.1149ZM28.4745 29.1202L28.5207 29.0895L27.4114 27.4253L27.3652 27.4561L28.4745 29.1202ZM22.0801 33.3832L28.4746 29.1202L27.3652 27.4561L20.9707 31.7191L22.0801 33.3832ZM22.0306 33.4161L22.0801 33.3831L20.9707 31.7191L20.9212 31.7521L22.0306 33.4161ZM22.0424 33.4082L22.0425 33.4081L20.9094 31.7601L20.9093 31.7601L22.0424 33.4082ZM20.2509 34.5007C20.7915 34.2454 21.413 33.8279 22.0306 33.4162L20.9211 31.7521C20.2548 32.1964 19.7734 32.5143 19.3968 32.6922L20.2509 34.5007ZM17.7024 34.5561C18.7218 35.1017 19.6996 34.7611 20.2509 34.5007L19.3968 32.6922C19.0058 32.8769 18.8004 32.8753 18.6461 32.7927L17.7024 34.5561ZM16.3348 32.4049C16.424 33.0081 16.6829 34.0105 17.7024 34.5561L18.6461 32.7927C18.4918 32.7102 18.3766 32.5402 18.3133 32.1124L16.3348 32.4049ZM16.25 30.3224C16.25 31.0647 16.2474 31.8135 16.3348 32.4049L18.3133 32.1124C18.2524 31.7003 18.2499 31.1234 18.25 30.3226L16.25 30.3224ZM16.25 30.3225V30.3225H18.25V30.3225H16.25ZM16.25 30.2629L16.25 30.3224L18.25 30.3225L18.25 30.263L16.25 30.2629ZM16.25 21.737V30.263H18.25V21.737H16.25ZM16.25 21.6776L16.25 21.7371L18.25 21.737L18.25 21.6775L16.25 21.6776ZM16.25 21.6775V21.6775H18.25V21.6775H16.25ZM16.3348 19.5951C16.2474 20.1865 16.25 20.9353 16.25 21.6776L18.25 21.6774C18.2499 20.8766 18.2524 20.2997 18.3133 19.8876L16.3348 19.5951ZM17.7024 17.4439C16.6829 17.9895 16.424 18.9919 16.3348 19.5951L18.3133 19.8876C18.3766 19.4598 18.4918 19.2899 18.6461 19.2073L17.7024 17.4439ZM20.2509 17.4993C19.6996 17.2389 18.7218 16.8983 17.7024 17.4439L18.6461 19.2073C18.8004 19.1247 19.0058 19.1231 19.3968 19.3078L20.2509 17.4993ZM22.0307 18.5839C21.4131 18.1721 20.7915 17.7546 20.2509 17.4993L19.3968 19.3078C19.7735 19.4857 20.2548 19.8036 20.9212 20.2479L22.0307 18.5839ZM18.6487 18.6768C18.6187 18.6832 18.5131 18.706 18.3919 18.7695C18.3476 18.7927 18.1776 18.8825 18.0393 19.078C17.9609 19.1888 17.8678 19.3696 17.8567 19.609C17.8449 19.8616 17.929 20.0796 18.043 20.2385L19.6683 19.073C19.7822 19.2319 19.8663 19.4498 19.8545 19.7023C19.8433 19.9416 19.7503 20.1224 19.672 20.2331C19.5338 20.4284 19.364 20.518 19.3201 20.5411C19.1996 20.6042 19.0951 20.6266 19.0669 20.6326L18.6487 18.6768ZM18.8755 18.654C18.8335 18.6537 18.7496 18.6552 18.6481 18.6769L19.0674 20.6325C19.0128 20.6442 18.9679 20.6489 18.9398 20.6511C18.9091 20.6535 18.8826 20.6541 18.8616 20.6539L18.8755 18.654ZM18.0419 20.237C18.2454 20.5219 18.5259 20.6008 18.5654 20.6128C18.6567 20.6405 18.7322 20.6491 18.771 20.6524C18.8541 20.6596 18.9214 20.6549 18.9601 20.651C19.045 20.6424 19.1184 20.6242 19.1775 20.605L18.5595 18.7029C18.611 18.6862 18.6782 18.6693 18.7586 18.6611C18.7951 18.6574 18.8607 18.6528 18.9425 18.6598C18.9806 18.6631 19.0557 18.6715 19.1465 18.6991C19.1926 18.7131 19.2648 18.7386 19.3464 18.7845C19.4225 18.8274 19.5555 18.9152 19.6694 19.0745L18.0419 20.237ZM19.6103 18.8557C19.3971 18.755 19.1947 18.6838 18.9988 18.6615L18.7728 20.6487C18.7396 20.6449 18.715 20.6399 18.7004 20.6366C18.6855 20.6331 18.6776 20.6305 18.6776 20.6305C18.6775 20.6305 18.6838 20.6325 18.6971 20.6379C18.7104 20.6433 18.7299 20.6517 18.7562 20.6641L19.6103 18.8557ZM21.2481 19.8649C20.5719 19.4141 20.0395 19.0584 19.6103 18.8556L18.7562 20.6641C19.0191 20.7882 19.4037 21.0391 20.1387 21.529L21.2481 19.8649ZM27.6425 24.1279L21.2481 19.8649L20.1387 21.529L26.5331 25.792L27.6425 24.1279ZM28.9415 25.064C28.642 24.7934 28.1988 24.4987 27.6425 24.1279L26.5331 25.792C27.1469 26.2012 27.4374 26.4004 27.6005 26.5479L28.9415 25.064ZM29.3079 25.4951C29.2193 25.3416 29.0929 25.2008 28.9415 25.064L27.6005 26.5479C27.6303 26.5747 27.6385 26.585 27.6336 26.5794C27.631 26.5763 27.6241 26.568 27.6144 26.5547C27.6048 26.5416 27.5911 26.5215 27.5756 26.4946L29.3079 25.4951ZM29.3186 25.5141L29.3158 25.5089L27.5677 26.4807L27.5706 26.4859L29.3186 25.5141ZM29.3157 26.4912L29.3186 26.486L27.5707 25.514L27.5678 25.5191L29.3157 26.4912ZM28.9415 26.936C29.0929 26.7992 29.2194 26.6584 29.3079 26.5049L27.5756 25.5055C27.5911 25.4785 27.6048 25.4584 27.6143 25.4453C27.624 25.432 27.631 25.4237 27.6336 25.4207C27.6385 25.415 27.6303 25.4253 27.6005 25.4521L28.9415 26.936ZM27.6425 27.8721C28.1988 27.5013 28.642 27.2066 28.9415 26.936L27.6005 25.4521C27.4374 25.5996 27.1469 25.7988 26.5331 26.208L27.6425 27.8721ZM21.2481 32.1351L27.6425 27.8721L26.5331 26.208L20.1387 30.471L21.2481 32.1351ZM19.6103 33.1444C20.0395 32.9416 20.5719 32.5859 21.2481 32.1351L20.1387 30.471C19.4037 30.9609 19.0191 31.2118 18.7562 31.3359L19.6103 33.1444ZM18.9988 33.3385C19.1947 33.3162 19.3971 33.2451 19.6103 33.1443L18.7562 31.3359C18.7299 31.3483 18.7105 31.3567 18.6972 31.3621C18.6838 31.3675 18.6775 31.3695 18.6776 31.3695C18.6776 31.3695 18.6856 31.3669 18.7004 31.3634C18.715 31.3601 18.7396 31.3551 18.7728 31.3513L18.9988 33.3385ZM17.8187 32.1855C17.8532 32.4188 17.9062 32.6266 17.9964 32.802L19.7752 31.8877C19.7905 31.9175 19.8 31.9408 19.8052 31.9547C19.8106 31.969 19.8128 31.977 19.8128 31.977C19.8129 31.9772 19.8111 31.9708 19.8082 31.9567C19.8053 31.9426 19.8015 31.9218 19.7972 31.893L17.8187 32.1855ZM17.75 30.263C17.75 31.0757 17.7493 31.716 17.8187 32.1855L19.7972 31.893C19.7547 31.6054 19.75 31.1463 19.75 30.263H17.75ZM17.75 21.737V30.263H19.75V21.737H17.75ZM17.8187 19.8145C17.7493 20.284 17.75 20.9243 17.75 21.737H19.75C19.75 20.8537 19.7547 20.3946 19.7972 20.107L17.8187 19.8145ZM17.9964 19.1979C17.9062 19.3733 17.8532 19.5812 17.8187 19.8145L19.7972 20.107C19.8015 20.0782 19.8053 20.0574 19.8082 20.0433C19.8111 20.0292 19.8129 20.0228 19.8128 20.0229C19.8128 20.023 19.8106 20.031 19.8052 20.0453C19.8 20.0593 19.7904 20.0826 19.7752 20.1123L17.9964 19.1979ZM19.6705 32.9239C19.5566 33.084 19.4232 33.1722 19.3468 33.2152C19.2651 33.2613 19.1927 33.2869 19.1466 33.3009C19.0556 33.3285 18.9805 33.3369 18.9424 33.3402C18.8605 33.3472 18.795 33.3426 18.7586 33.3389C18.6783 33.3307 18.6112 33.3139 18.56 33.2972L19.1771 31.3948C19.1181 31.3757 19.0448 31.3576 18.9601 31.349C18.9215 31.3451 18.8542 31.3404 18.7711 31.3476C18.7324 31.3509 18.6567 31.3594 18.5654 31.3872C18.526 31.3991 18.2444 31.4783 18.0407 31.7646L19.6705 32.9239ZM18.8613 31.3461C18.8935 31.3458 18.9577 31.347 19.0387 31.3618C19.0669 31.367 19.1633 31.3849 19.2767 31.4375C19.3154 31.4555 19.4783 31.5305 19.6222 31.7024C19.7022 31.7978 19.8182 31.9737 19.8484 32.225C19.8815 32.5003 19.7973 32.7464 19.6694 32.9255L18.0419 31.763C17.9139 31.9422 17.8296 32.1883 17.8627 32.4637C17.8929 32.7151 18.009 32.8911 18.0891 32.9866C18.2331 33.1586 18.3964 33.2339 18.4355 33.252C18.5499 33.305 18.6477 33.3234 18.678 33.329C18.7631 33.3446 18.8341 33.3463 18.8757 33.346L18.8613 31.3461ZM18.2743 33.1444C18.2319 33.1109 18.1806 33.0644 18.1292 33.002C18.1059 32.9737 18.0657 32.9217 18.0261 32.8497C18.0077 32.8161 17.973 32.7489 17.9456 32.6578C17.9317 32.6117 17.9128 32.5374 17.9059 32.4439C17.8993 32.3565 17.8988 32.1969 17.9685 32.0137L19.8376 32.7255C19.9624 32.3978 19.8724 32.1202 19.8605 32.0806C19.8329 31.9892 19.7981 31.9214 19.7794 31.8873C19.7392 31.8142 19.6979 31.7608 19.6732 31.7307C19.619 31.6649 19.5632 31.6139 19.5145 31.5754L18.2743 33.1444ZM17.9677 32.0158C18.0457 31.8098 18.2037 31.6027 18.4517 31.4773C18.678 31.3629 18.8891 31.3621 19.0128 31.3758C19.2355 31.4004 19.3882 31.4945 19.4244 31.5166C19.5309 31.5818 19.5992 31.6519 19.6191 31.6725C19.6762 31.7315 19.7127 31.7842 19.7303 31.811L18.0585 32.9088C18.0813 32.9435 18.122 33.0015 18.1821 33.0636C18.2035 33.0857 18.2729 33.1567 18.3803 33.2224C18.4169 33.2449 18.57 33.339 18.7929 33.3637C18.9167 33.3774 19.1279 33.3766 19.3543 33.2621C19.6023 33.1367 19.7604 32.9295 19.8384 32.7234L17.9677 32.0158ZM19.7303 20.189C19.7127 20.2158 19.6762 20.2685 19.6191 20.3275C19.5992 20.3481 19.5309 20.4182 19.4244 20.4834C19.3882 20.5055 19.2355 20.5996 19.0128 20.6242C18.8891 20.6379 18.678 20.6371 18.4517 20.5227C18.2037 20.3973 18.0457 20.1902 17.9677 19.9842L19.8384 19.2766C19.7604 19.0705 19.6023 18.8633 19.3543 18.7379C19.1279 18.6234 18.9167 18.6226 18.7929 18.6363C18.57 18.661 18.4169 18.7551 18.3803 18.7776C18.2729 18.8433 18.2035 18.9143 18.1821 18.9364C18.122 18.9985 18.0813 19.0565 18.0585 19.0912L19.7303 20.189ZM17.9685 19.9863C17.8988 19.8031 17.8993 19.6435 17.9059 19.5561C17.9128 19.4626 17.9317 19.3883 17.9456 19.3422C17.973 19.2511 18.0077 19.1839 18.0261 19.1503C18.0657 19.0783 18.1059 19.0263 18.1292 18.998C18.1806 18.9356 18.2319 18.8891 18.2743 18.8556L19.5145 20.4246C19.5632 20.3861 19.619 20.3351 19.6732 20.2693C19.6979 20.2392 19.7392 20.1858 19.7794 20.1127C19.7981 20.0786 19.8329 20.0108 19.8605 19.9194C19.8724 19.8798 19.9624 19.6022 19.8376 19.2745L17.9685 19.9863Z" fill="black"/>
</g>
</g>
</svg>
