<svg width="24" height="24" viewBox="0 0 24 24" fill="none" xmlns="http://www.w3.org/2000/svg">
<g id="Alert - Octagon">
<path id="Union" fill-rule="evenodd" clip-rule="evenodd" d="M8 2.25C7.80109 2.25 7.61032 2.32902 7.46967 2.46967L2.46967 7.46967C2.32902 7.61032 2.25 7.80109 2.25 8V16C2.25 16.1989 2.32902 16.3897 2.46967 16.5303L7.46967 21.5303C7.61032 21.671 7.80109 21.75 8 21.75H16C16.1989 21.75 16.3897 21.671 16.5303 21.5303L21.5303 16.5303C21.671 16.3897 21.75 16.1989 21.75 16V8C21.75 7.80109 21.671 7.61032 21.5303 7.46967L16.5303 2.46967C16.3897 2.32902 16.1989 2.25 16 2.25H8ZM3.75 8.31066L8.31066 3.75H15.6893L20.25 8.31066V15.6893L15.6893 20.25H8.31066L3.75 15.6893V8.31066ZM12 7.25C12.4142 7.25 12.75 7.58579 12.75 8V13C12.75 13.4142 12.4142 13.75 12 13.75C11.5858 13.75 11.25 13.4142 11.25 13V8C11.25 7.58579 11.5858 7.25 12 7.25ZM13 16C13 16.5523 12.5523 17 12 17C11.4477 17 11 16.5523 11 16C11 15.4477 11.4477 15 12 15C12.5523 15 13 15.4477 13 16Z" fill="white"/>
</g>
</svg>
