<svg width="23" height="22" viewBox="0 0 23 22" fill="none" xmlns="http://www.w3.org/2000/svg">
<g id="chef&#39;s hat">
<g id="Group">
<path id="Vector" d="M6.82481 8.48092C6.49211 7.75016 6.31339 6.95873 6.2998 6.15591C6.45768 4.80468 7.10633 3.55851 8.12257 2.65409C9.13882 1.74966 10.4519 1.25 11.8123 1.25C13.1727 1.25 14.4858 1.74966 15.502 2.65409C16.5182 3.55851 17.1669 4.80468 17.3248 6.15591C17.3031 6.95773 17.1247 7.74757 16.7998 8.48092" stroke="white" stroke-width="1.5" stroke-linecap="round" stroke-linejoin="round"/>
<g id="Group_2">
<path id="Vector_2" d="M6.00001 14.8559C4.73545 14.6271 3.59168 13.9607 2.76898 12.9734C1.94628 11.9862 1.49708 10.741 1.50001 9.45592C1.50001 6.45592 3.52502 4.58092 6.52502 4.58092" stroke="white" stroke-width="1.5" stroke-linecap="round" stroke-linejoin="round"/>
<path id="Vector_3" d="M17.0249 4.5809C20.0999 4.5809 22.1249 6.4559 22.1249 9.4559C22.1278 10.741 21.6786 11.9862 20.8559 12.9734C20.0332 13.9607 18.8895 14.627 17.6249 14.8559" stroke="white" stroke-width="1.5" stroke-linecap="round" stroke-linejoin="round"/>
</g>
</g>
<path id="Vector_4" d="M6 14.8559V20.5559H17.55V14.8559" stroke="white" stroke-width="1.5" stroke-linecap="round" stroke-linejoin="round"/>
<path id="Vector_5" d="M6 17.7059H17.55" stroke="white" stroke-width="1.5" stroke-linecap="round" stroke-linejoin="round"/>
<path id="Vector_6" d="M11.7749 17.7059V14.7059" stroke="white" stroke-width="1.5" stroke-linecap="round" stroke-linejoin="round"/>
</g>
</svg>
