<svg width="24" height="24" viewBox="0 0 24 24" fill="none" xmlns="http://www.w3.org/2000/svg">
<g id="Home">
<path id="Union" fill-rule="evenodd" clip-rule="evenodd" d="M9.7019 5.35876C10.3836 4.6771 10.8426 4.22033 11.2301 3.9247C11.6002 3.64226 11.8157 3.57843 12 3.57843C12.1843 3.57843 12.3998 3.64226 12.7699 3.9247C13.1574 4.22033 13.6164 4.6771 14.2981 5.35876L16.4697 7.53033L16.7123 7.77297C17.6227 8.68334 17.9207 9.00017 18.0787 9.38161C18.2367 9.76304 18.25 10.1978 18.25 11.4853V15C18.25 16.4354 18.2484 17.4365 18.1469 18.1919C18.0482 18.9257 17.8678 19.3142 17.591 19.591C17.3142 19.8678 16.9257 20.0482 16.1919 20.1469C15.4365 20.2484 14.4354 20.25 13 20.25H11C9.56458 20.25 8.56347 20.2484 7.80812 20.1469C7.07434 20.0482 6.68577 19.8678 6.40901 19.591C6.13225 19.3142 5.9518 18.9257 5.85315 18.1919C5.75159 17.4365 5.75 16.4354 5.75 15V11.4853C5.75 10.1978 5.76328 9.76304 5.92127 9.38161C6.0788 9.00129 6.37558 8.6852 7.27968 7.78098C7.28235 7.77832 7.28502 7.77565 7.28769 7.77297L7.53033 7.53033C7.53049 7.53017 7.53065 7.53001 7.53081 7.52985L9.7019 5.35876ZM6.47015 6.46919L8.64124 4.2981L8.67801 4.26133C9.31331 3.62599 9.84307 3.09619 10.3202 2.73216C10.8238 2.34793 11.3559 2.07843 12 2.07843C12.6441 2.07843 13.1762 2.34793 13.6798 2.73216C14.1569 3.09619 14.6867 3.62598 15.322 4.26132L15.3588 4.2981L17.5296 6.46897C17.5299 6.46921 17.5301 6.46944 17.5303 6.46967L17.773 6.71232L17.7745 6.71384L17.8738 6.81312C17.9389 6.87809 18.0022 6.94139 18.0639 7.00325L22.5303 11.4697C22.8232 11.7626 22.8232 12.2374 22.5303 12.5303C22.2374 12.8232 21.7626 12.8232 21.4697 12.5303L19.7488 10.8095C19.7502 10.9783 19.7501 11.1556 19.75 11.3427L19.75 11.4853V15V15.0549C19.75 16.4225 19.75 17.5248 19.6335 18.3918C19.5125 19.2919 19.2536 20.0497 18.6516 20.6517C18.0497 21.2536 17.2919 21.5125 16.3918 21.6335C15.5248 21.75 14.4225 21.75 13.0549 21.75H13H11H10.9451C9.57754 21.75 8.47522 21.75 7.60825 21.6335C6.70814 21.5125 5.95027 21.2536 5.34835 20.6517C4.74643 20.0497 4.48754 19.2919 4.36652 18.3918C4.24996 17.5248 4.24998 16.4225 4.25 15.0549L4.25 15V11.4853L4.24995 11.3427C4.24987 11.1556 4.24978 10.9783 4.25116 10.8095L2.53033 12.5303C2.23744 12.8232 1.76256 12.8232 1.46967 12.5303C1.17678 12.2374 1.17678 11.7626 1.46967 11.4697L5.93593 7.00342C5.99765 6.9415 6.06107 6.87815 6.12616 6.81312L6.12616 6.81312L6.22625 6.71309L6.22703 6.71231L6.46967 6.46967C6.46983 6.46951 6.46999 6.46935 6.47015 6.46919Z" fill="white"/>
</g>
</svg>
