<svg width="43" height="37" viewBox="0 0 43 37" fill="none" xmlns="http://www.w3.org/2000/svg">
<g id="Layer 1">
<path id="Vector" d="M13.0485 7.36681C13.6416 1.91832 14.7314 0.957336 20.0753 0.957336C21.515 0.957336 22.9563 0.957336 24.3975 0.957336C27.925 0.97203 29.7636 2.78232 29.8481 6.31766C29.8555 6.58215 29.8748 6.84664 29.9015 7.35652C31.4332 7.35652 32.956 7.20958 34.4373 7.39619C36.0119 7.59015 37.6993 7.8135 39.0694 8.52762C41.5367 9.81334 42.8697 12.0747 42.9097 14.8739C42.9809 19.7361 43.015 24.6013 42.9008 29.462C42.803 33.6453 39.4356 36.8266 35.2246 36.9221C33.297 36.9647 31.3694 36.9294 29.2402 36.9294C29.2402 34.5681 29.2194 32.2685 29.2713 29.9689C29.2713 29.7294 29.6776 29.4355 29.9578 29.2768C31.5889 28.3585 32.4637 26.9817 32.4785 25.1361C32.5126 21.9681 32.5171 18.8001 32.4607 15.6336C32.4533 15.2163 32.0159 14.8063 31.7727 14.3919C31.5103 14.8328 31.0314 15.253 31.018 15.6938C30.9409 17.9141 30.9824 20.1373 30.9824 22.3208C29.9742 22.7013 29.8837 22.1988 29.8882 21.5199C29.903 19.6009 29.9371 17.6804 29.86 15.7658C29.8407 15.3 29.4152 14.8504 29.1853 14.3934C28.9288 14.8342 28.4706 15.2618 28.444 15.7159C28.3654 17.6746 28.3995 19.6406 28.4202 21.6037C28.4291 22.3884 28.1548 22.6808 27.2711 22.3149C27.2711 20.1564 27.3096 17.9758 27.24 15.7967C27.2251 15.3265 26.8174 14.868 26.5905 14.4052C26.3281 14.8798 25.864 15.3441 25.8402 15.8305C25.7513 17.6555 25.8402 19.4878 25.7824 21.3157C25.772 21.7066 25.4695 22.0886 25.302 22.4736C25.1077 22.068 24.7608 21.6684 24.746 21.2555C24.6852 19.429 24.7667 17.5967 24.6852 15.7702C24.6629 15.303 24.2329 14.8548 23.9912 14.3978C23.7317 14.8386 23.2498 15.2662 23.2498 15.7085C23.1861 18.831 23.2024 21.9549 23.2246 25.0773C23.2395 26.9214 24.0743 28.2997 25.689 29.2577C26.0374 29.4649 26.42 29.9528 26.4304 30.3231C26.5001 32.4595 26.4645 34.6004 26.4645 36.8398H14.4541V31.7278C14.4541 31.0592 14.3533 30.3686 14.4853 29.7265C14.595 29.1946 14.8559 28.5613 15.2637 28.2424C18.8016 25.4961 19.0003 18.2785 15.5825 15.3573C13.8862 13.9071 11.7555 14.0511 10.1734 15.7541C7.01809 19.1484 7.65271 26.2646 11.1565 28.3908C11.4145 28.548 11.6917 28.9213 11.6962 29.1975C11.7377 31.7278 11.7214 34.2595 11.7214 36.7751C9.83384 36.7751 8.05454 37.0117 6.36567 36.7266C4.63494 36.435 3.06212 35.5514 1.92079 34.2295C0.77946 32.9075 0.141829 31.231 0.118811 29.4914C0.0179834 24.5866 0.00612242 19.6744 0.129191 14.7696C0.23595 10.6156 3.59885 7.50052 7.87512 7.36828C9.57733 7.32272 11.284 7.36681 13.0485 7.36681ZM25.772 7.2757C26.1205 5.09366 25.8862 4.80272 23.8593 4.79832H19.1485C17.132 4.79832 16.8888 5.10983 17.258 7.2757H25.772Z" fill="#F6F6F6"/>
</g>
</svg>
