<svg width="24" height="24" viewBox="0 0 24 24" fill="none" xmlns="http://www.w3.org/2000/svg">
<g id="Lock">
<path id="Union" fill-rule="evenodd" clip-rule="evenodd" d="M11.9747 1.25H12H12.0253C12.4697 1.24999 12.8408 1.24999 13.1454 1.27077C13.4625 1.29241 13.762 1.33905 14.0524 1.45933C14.7262 1.73844 15.2616 2.27379 15.5407 2.94762C15.661 3.23801 15.7076 3.53754 15.7292 3.85464C15.75 4.15925 15.75 4.53028 15.75 4.97474V5V8.21604C18.1352 9.53736 19.75 12.0801 19.75 15C19.75 19.2802 16.2802 22.75 12 22.75C7.71979 22.75 4.25 19.2802 4.25 15C4.25 12.0801 5.86476 9.53736 8.25 8.21604V5L8.25 4.97475C8.24999 4.53029 8.24999 4.15925 8.27077 3.85464C8.29241 3.53754 8.33905 3.23801 8.45933 2.94762C8.73844 2.27379 9.27379 1.73844 9.94762 1.45933C10.238 1.33905 10.5375 1.29241 10.8546 1.27077C11.1592 1.24999 11.5303 1.24999 11.9747 1.25ZM14.25 5V7.58166C13.5379 7.36597 12.7825 7.25 12 7.25C11.2175 7.25 10.4621 7.36597 9.75 7.58166V5C9.75 4.5238 9.75041 4.20421 9.76729 3.95674C9.78372 3.71602 9.81319 3.5988 9.84515 3.52165C9.97202 3.21536 10.2154 2.97202 10.5216 2.84515C10.5988 2.81319 10.716 2.78372 10.9567 2.76729C11.2042 2.75041 11.5238 2.75 12 2.75C12.4762 2.75 12.7958 2.75041 13.0433 2.76729C13.284 2.78372 13.4012 2.81319 13.4784 2.84515C13.7846 2.97202 14.028 3.21536 14.1549 3.52165C14.1868 3.5988 14.2163 3.71602 14.2327 3.95674C14.2496 4.20421 14.25 4.5238 14.25 5ZM12 13.25C12.4142 13.25 12.75 13.5858 12.75 14V16C12.75 16.4142 12.4142 16.75 12 16.75C11.5858 16.75 11.25 16.4142 11.25 16V14C11.25 13.5858 11.5858 13.25 12 13.25Z" fill="white"/>
</g>
</svg>
