<svg width="25" height="24" viewBox="0 0 25 24" fill="none" xmlns="http://www.w3.org/2000/svg">
<g id="Calendar - Dates">
<path id="Union" fill-rule="evenodd" clip-rule="evenodd" d="M9.2105 1C9.2105 0.585786 8.87471 0.25 8.4605 0.25C8.04629 0.25 7.7105 0.585786 7.7105 1V2.25912C6.99118 2.27754 6.43924 2.33259 5.95099 2.49624C4.53862 2.96962 3.43011 4.07812 2.95674 5.49049C2.70992 6.22688 2.71014 7.10812 2.71047 8.48999L2.7105 8.64706V13L2.7105 13.0564C2.71048 14.8942 2.71047 16.3498 2.86363 17.489C3.02126 18.6614 3.35338 19.6104 4.10174 20.3588C4.8501 21.1071 5.79905 21.4392 6.97148 21.5969C8.11067 21.75 9.56627 21.75 11.404 21.75H11.404H11.4605H13.4605H13.517H13.517C15.3547 21.75 16.8103 21.75 17.9495 21.5969C19.1219 21.4392 20.0709 21.1071 20.8193 20.3588C21.5676 19.6104 21.8997 18.6614 22.0574 17.489C22.2105 16.3498 22.2105 14.8942 22.2105 13.0565V13.0564V13V11V10.9436V10.9435C22.2105 9.1058 22.2105 7.65018 22.0574 6.51098C21.8997 5.33856 21.5676 4.38961 20.8193 3.64124C20.0709 2.89288 19.1219 2.56076 17.9495 2.40313C17.7166 2.37182 17.4704 2.34691 17.2105 2.32709V1C17.2105 0.585786 16.8747 0.25 16.4605 0.25C16.0463 0.25 15.7105 0.585786 15.7105 1V2.26272C15.0485 2.24999 14.3191 2.24999 13.5169 2.25L13.4605 2.25H9.2105V1ZM15.7105 4V3.76309C15.0578 3.75032 14.3145 3.75 13.4605 3.75H9.2105V4C9.2105 4.41421 8.87471 4.75 8.4605 4.75C8.04629 4.75 7.7105 4.41421 7.7105 4V3.76077C7.08405 3.77713 6.72778 3.81789 6.42768 3.91848C5.46132 4.24237 4.70287 5.00082 4.37898 5.96718C4.2203 6.44061 4.2105 7.05384 4.2105 8.64706V13C4.2105 14.9068 4.21209 16.2615 4.35026 17.2892C4.48552 18.2952 4.73919 18.8749 5.1624 19.2981C5.58561 19.7213 6.16526 19.975 7.17135 20.1102C8.19901 20.2484 9.55368 20.25 11.4605 20.25H13.4605C15.3673 20.25 16.722 20.2484 17.7497 20.1102C18.7557 19.975 19.3354 19.7213 19.7586 19.2981C20.1818 18.8749 20.4355 18.2952 20.5707 17.2892C20.7089 16.2615 20.7105 14.9068 20.7105 13V11C20.7105 9.09318 20.7089 7.73851 20.5707 6.71085C20.4355 5.70476 20.1818 5.12511 19.7586 4.7019C19.3354 4.27869 18.7557 4.02502 17.7497 3.88976C17.5793 3.86685 17.3999 3.8477 17.2105 3.83168V4C17.2105 4.41421 16.8747 4.75 16.4605 4.75C16.0463 4.75 15.7105 4.41421 15.7105 4ZM7.46051 7.25C7.0463 7.25 6.71051 7.58579 6.71051 8C6.71051 8.41421 7.0463 8.75 7.46051 8.75H17.4605C17.8747 8.75 18.2105 8.41421 18.2105 8C18.2105 7.58579 17.8747 7.25 17.4605 7.25H7.46051ZM9.46051 12C9.46051 12.5523 9.01279 13 8.46051 13C7.90823 13 7.46051 12.5523 7.46051 12C7.46051 11.4477 7.90823 11 8.46051 11C9.01279 11 9.46051 11.4477 9.46051 12ZM8.46051 17C9.01279 17 9.46051 16.5523 9.46051 16C9.46051 15.4477 9.01279 15 8.46051 15C7.90823 15 7.46051 15.4477 7.46051 16C7.46051 16.5523 7.90823 17 8.46051 17ZM13.4605 16C13.4605 16.5523 13.0128 17 12.4605 17C11.9082 17 11.4605 16.5523 11.4605 16C11.4605 15.4477 11.9082 15 12.4605 15C13.0128 15 13.4605 15.4477 13.4605 16ZM16.4605 17C17.0128 17 17.4605 16.5523 17.4605 16C17.4605 15.4477 17.0128 15 16.4605 15C15.9082 15 15.4605 15.4477 15.4605 16C15.4605 16.5523 15.9082 17 16.4605 17ZM13.4605 12C13.4605 12.5523 13.0128 13 12.4605 13C11.9082 13 11.4605 12.5523 11.4605 12C11.4605 11.4477 11.9082 11 12.4605 11C13.0128 11 13.4605 11.4477 13.4605 12ZM16.4605 13C17.0128 13 17.4605 12.5523 17.4605 12C17.4605 11.4477 17.0128 11 16.4605 11C15.9082 11 15.4605 11.4477 15.4605 12C15.4605 12.5523 15.9082 13 16.4605 13Z" fill="black"/>
</g>
</svg>
