<svg width="32" height="32" viewBox="0 0 32 32" fill="none" xmlns="http://www.w3.org/2000/svg">
<g id="Credit Card">
<path id="Union" fill-rule="evenodd" clip-rule="evenodd" d="M10.5938 4.33337L10.667 4.33338H21.3337L21.4068 4.33337C23.2303 4.33335 24.7 4.33333 25.856 4.48874C27.0561 4.65009 28.0666 4.99529 28.8692 5.79784C29.6717 6.6004 30.0169 7.6109 30.1783 8.81104C30.2429 9.29177 30.2807 9.82676 30.3027 10.4189C30.3229 10.4981 30.3337 10.5812 30.3337 10.6667C30.3337 10.7309 30.3276 10.7937 30.316 10.8546C30.3337 11.5764 30.3337 12.3767 30.3337 13.26V13.2602V13.3334V18.6667V18.7399C30.3337 20.5633 30.3337 22.0331 30.1783 23.189C30.0169 24.3892 29.6717 25.3997 28.8692 26.2022C28.0666 27.0048 27.0561 27.35 25.856 27.5113C24.7 27.6668 23.2303 27.6667 21.4068 27.6667H21.3337H10.667H10.5939C8.77039 27.6667 7.30062 27.6668 6.14466 27.5113C4.94451 27.35 3.93402 27.0048 3.13146 26.2022C2.3289 25.3997 1.98371 24.3892 1.82236 23.189C1.66694 22.0331 1.66697 20.5633 1.66699 18.7399L1.66699 18.6667V13.3334L1.66699 13.2602C1.66698 12.3769 1.66697 11.5765 1.68463 10.8546C1.67305 10.7937 1.66699 10.7309 1.66699 10.6667C1.66699 10.5812 1.67773 10.4981 1.69793 10.4189C1.71998 9.82676 1.75773 9.29177 1.82236 8.81104C1.98371 7.6109 2.3289 6.6004 3.13146 5.79784C3.93402 4.99529 4.94451 4.65009 6.14466 4.48874C7.30061 4.33333 8.77037 4.33335 10.5938 4.33337ZM28.1961 9.07754C28.221 9.26236 28.2413 9.45822 28.258 9.66668H3.74263C3.75931 9.45823 3.77967 9.26236 3.80452 9.07754C3.93606 8.09917 4.17666 7.58107 4.54567 7.21206C4.91469 6.84304 5.43279 6.60244 6.41115 6.4709C7.41829 6.3355 8.75311 6.33338 10.667 6.33338H21.3337C23.2476 6.33338 24.5824 6.3355 25.5895 6.4709C26.5679 6.60244 27.086 6.84304 27.455 7.21206C27.824 7.58107 28.0646 8.09917 28.1961 9.07754ZM3.66699 13.3334C3.66699 12.7213 3.66721 12.1685 3.67193 11.6667H28.3287C28.3334 12.1685 28.3337 12.7213 28.3337 13.3334V18.6667C28.3337 20.5806 28.3315 21.9154 28.1961 22.9225C28.0646 23.9009 27.824 24.419 27.455 24.788C27.086 25.157 26.5679 25.3976 25.5895 25.5292C24.5824 25.6646 23.2476 25.6667 21.3337 25.6667H10.667C8.75311 25.6667 7.41829 25.6646 6.41115 25.5292C5.43279 25.3976 4.91469 25.157 4.54567 24.788C4.17666 24.419 3.93606 23.9009 3.80452 22.9225C3.66912 21.9154 3.66699 20.5806 3.66699 18.6667V13.3334ZM8.00059 15.0001C7.4483 15.0001 7.00059 15.4478 7.00059 16.0001C7.00059 16.5524 7.4483 17.0001 8.00059 17.0001H13.3339C13.8862 17.0001 14.3339 16.5524 14.3339 16.0001C14.3339 15.4478 13.8862 15.0001 13.3339 15.0001H8.00059Z" fill="#159EF3"/>
</g>
</svg>
