<svg width="24" height="24" viewBox="0 0 24 24" fill="none" xmlns="http://www.w3.org/2000/svg">
<g id="Credit Card">
<path id="Union" fill-rule="evenodd" clip-rule="evenodd" d="M7.94513 3.25006L8 3.25006H16L16.0549 3.25006C17.4225 3.25004 18.5248 3.25002 19.3918 3.36658C20.2919 3.4876 21.0497 3.74649 21.6517 4.34841C22.2536 4.95032 22.5125 5.7082 22.6335 6.60831C22.682 6.96886 22.7103 7.37012 22.7268 7.81423C22.7419 7.87366 22.75 7.93592 22.75 8.00006C22.75 8.04824 22.7455 8.09535 22.7368 8.14101C22.75 8.68238 22.75 9.28259 22.75 9.94506V9.94519V10.0001V14.0001V14.0549C22.75 15.4225 22.75 16.5248 22.6335 17.3918C22.5125 18.2919 22.2536 19.0498 21.6517 19.6517C21.0497 20.2536 20.2919 20.5125 19.3918 20.6335C18.5248 20.7501 17.4225 20.7501 16.0549 20.7501H16H8H7.94513C6.57754 20.7501 5.47522 20.7501 4.60825 20.6335C3.70814 20.5125 2.95027 20.2536 2.34835 19.6517C1.74644 19.0498 1.48754 18.2919 1.36652 17.3918C1.24997 16.5248 1.24998 15.4225 1.25 14.055V14.0549V14.0001V10.0001V9.94518V9.94516C1.24999 9.28266 1.24998 8.68242 1.26323 8.14102C1.25454 8.09537 1.25 8.04825 1.25 8.00006C1.25 7.93592 1.25805 7.87365 1.2732 7.81422C1.28974 7.37011 1.31805 6.96886 1.36652 6.60831C1.48754 5.7082 1.74644 4.95032 2.34835 4.34841C2.95027 3.74649 3.70814 3.4876 4.60825 3.36658C5.47522 3.25002 6.57754 3.25004 7.94513 3.25006ZM21.1469 6.80818C21.1655 6.94681 21.1808 7.09371 21.1933 7.25006H2.80673C2.81924 7.09371 2.83451 6.94681 2.85315 6.80818C2.9518 6.0744 3.13225 5.68583 3.40901 5.40907C3.68577 5.1323 4.07435 4.95186 4.80812 4.85321C5.56347 4.75165 6.56459 4.75006 8 4.75006H16C17.4354 4.75006 18.4365 4.75165 19.1919 4.85321C19.9257 4.95186 20.3142 5.1323 20.591 5.40907C20.8678 5.68583 21.0482 6.0744 21.1469 6.80818ZM2.75 10.0001C2.75 9.54104 2.75017 9.12643 2.75371 8.75006H21.2463C21.2498 9.12643 21.25 9.54104 21.25 10.0001V14.0001C21.25 15.4355 21.2484 16.4366 21.1469 17.1919C21.0482 17.9257 20.8678 18.3143 20.591 18.591C20.3142 18.8678 19.9257 19.0483 19.1919 19.1469C18.4365 19.2485 17.4354 19.2501 16 19.2501H8C6.56459 19.2501 5.56347 19.2485 4.80812 19.1469C4.07435 19.0483 3.68577 18.8678 3.40901 18.591C3.13225 18.3143 2.9518 17.9257 2.85315 17.1919C2.75159 16.4366 2.75 15.4355 2.75 14.0001V10.0001ZM6 11.2501C5.58579 11.2501 5.25 11.5858 5.25 12.0001C5.25 12.4143 5.58579 12.7501 6 12.7501H10C10.4142 12.7501 10.75 12.4143 10.75 12.0001C10.75 11.5858 10.4142 11.2501 10 11.2501H6Z" fill="white"/>
</g>
</svg>
