<svg width="26" height="30" viewBox="0 0 26 30" fill="none" xmlns="http://www.w3.org/2000/svg">
<g id="cutlery 2">
<g id="Group">
<path id="Vector" d="M6.3 29C5.69001 29 5.10498 28.7577 4.67365 28.3264C4.24231 27.895 4 27.31 4 26.7L5 14.2H7.7L8.7 26.7C8.70029 27.0107 8.63766 27.3181 8.51587 27.6039C8.39408 27.8897 8.21566 28.1478 7.99138 28.3628C7.7671 28.5777 7.5016 28.745 7.21091 28.8545C6.92021 28.964 6.61035 29.0135 6.3 29Z" stroke="#5D6AF2" stroke-width="2" stroke-linecap="round" stroke-linejoin="round"/>
<path id="Vector_2" d="M6.3 14.2C9.22711 14.2 11.6 11.2451 11.6 7.60001C11.6 3.95493 9.22711 1 6.3 1C3.37289 1 1 3.95493 1 7.60001C1 11.2451 3.37289 14.2 6.3 14.2Z" stroke="#5D6AF2" stroke-width="2" stroke-linecap="round" stroke-linejoin="round"/>
</g>
<g id="Group_2">
<path id="Vector_3" d="M20.1999 29C19.5899 29 19.0049 28.7577 18.5735 28.3264C18.1422 27.895 17.8999 27.31 17.8999 26.7L18.8999 14.2H21.5999L22.5999 26.7C22.6002 27.0107 22.5376 27.3181 22.4158 27.6039C22.294 27.8897 22.1155 28.1478 21.8913 28.3628C21.667 28.5777 21.4015 28.745 21.1108 28.8545C20.8201 28.964 20.5102 29.0135 20.1999 29Z" stroke="#5D6AF2" stroke-width="2" stroke-linecap="round" stroke-linejoin="round"/>
<path id="Vector_4" d="M24.7001 9.70001C24.674 10.9026 24.1778 12.0471 23.3179 12.8882C22.4581 13.7294 21.303 14.2003 20.1001 14.2C18.9066 14.2 17.762 13.7259 16.9181 12.882C16.0742 12.0381 15.6001 10.8935 15.6001 9.70001H24.7001Z" stroke="#5D6AF2" stroke-width="2" stroke-linecap="round" stroke-linejoin="round"/>
<path id="Vector_5" d="M15.6001 1.39999V9.70001" stroke="#5D6AF2" stroke-width="2" stroke-linecap="round" stroke-linejoin="round"/>
<path id="Vector_6" d="M20.1001 1.39999V9.5" stroke="#5D6AF2" stroke-width="2" stroke-linecap="round" stroke-linejoin="round"/>
<path id="Vector_7" d="M24.7002 1.39999V9.70001" stroke="#5D6AF2" stroke-width="2" stroke-linecap="round" stroke-linejoin="round"/>
</g>
</g>
</svg>
