<svg width="18" height="21" viewBox="0 0 18 21" fill="none" xmlns="http://www.w3.org/2000/svg">
<g id="cutlery 2">
<g id="Group">
<path id="Vector" d="M4.57812 19.903C4.16631 19.903 3.77136 19.7394 3.48017 19.4482C3.18897 19.157 3.02539 18.762 3.02539 18.3502L3.70049 9.91141H5.52325L6.19834 18.3502C6.19854 18.5599 6.15626 18.7675 6.07404 18.9605C5.99182 19.1534 5.87137 19.3277 5.71996 19.4728C5.56855 19.6179 5.38931 19.7308 5.19306 19.8047C4.99682 19.8787 4.78763 19.9121 4.57812 19.903Z" stroke="white" stroke-width="1.1" stroke-linecap="round" stroke-linejoin="round"/>
<path id="Vector_2" d="M4.57802 9.9114C6.5541 9.9114 8.15602 7.91651 8.15602 5.4557C8.15602 2.99489 6.5541 1 4.57802 1C2.60193 1 1 2.99489 1 5.4557C1 7.91651 2.60193 9.9114 4.57802 9.9114Z" stroke="white" stroke-width="1.1" stroke-linecap="round" stroke-linejoin="round"/>
</g>
<g id="Group_2">
<path id="Vector_3" d="M13.9619 19.903C13.5501 19.903 13.1551 19.7394 12.864 19.4482C12.5728 19.157 12.4092 18.762 12.4092 18.3502L13.0843 9.91141H14.907L15.5821 18.3502C15.5823 18.5599 15.54 18.7675 15.4578 18.9605C15.3756 19.1534 15.2551 19.3277 15.1037 19.4728C14.9523 19.6179 14.7731 19.7308 14.5769 19.8047C14.3806 19.8787 14.1714 19.9121 13.9619 19.903Z" stroke="white" stroke-width="1.1" stroke-linecap="round" stroke-linejoin="round"/>
<path id="Vector_4" d="M16.9998 6.87344C16.9822 7.68531 16.6472 8.45797 16.0667 9.02584C15.4863 9.59371 14.7064 9.91161 13.8944 9.91142C13.0887 9.91142 12.316 9.59134 11.7462 9.02161C11.1765 8.45188 10.8564 7.67916 10.8564 6.87344H16.9998Z" stroke="white" stroke-width="1.1" stroke-linecap="round" stroke-linejoin="round"/>
<path id="Vector_5" d="M10.8564 1.27005V6.87344" stroke="white" stroke-width="1.1" stroke-linecap="round" stroke-linejoin="round"/>
<path id="Vector_6" d="M13.8945 1.27005V6.73841" stroke="white" stroke-width="1.1" stroke-linecap="round" stroke-linejoin="round"/>
<path id="Vector_7" d="M17 1.27005V6.87344" stroke="white" stroke-width="1.1" stroke-linecap="round" stroke-linejoin="round"/>
</g>
</g>
</svg>
