<svg width="24" height="24" viewBox="0 0 24 24" fill="none" xmlns="http://www.w3.org/2000/svg">
<g id="Note - Text">
<path id="Union" fill-rule="evenodd" clip-rule="evenodd" d="M10.9436 2.25H11H13H13.0564C14.8942 2.24998 16.3498 2.24997 17.489 2.40313C18.6614 2.56076 19.6104 2.89288 20.3588 3.64124C21.1071 4.38961 21.4392 5.33856 21.5969 6.51098C21.75 7.65018 21.75 9.1058 21.75 10.9435V10.9436V11V14.1716L21.75 14.2818C21.7502 15.3298 21.7504 16.0056 21.568 16.6452C21.4681 16.9959 21.3281 17.3339 21.1508 17.6525C20.8275 18.2337 20.3495 18.7115 19.6083 19.4524L19.5303 19.5303L19.4524 19.6083C18.7115 20.3495 18.2337 20.8275 17.6525 21.1508C17.3339 21.3281 16.9959 21.4681 16.6452 21.568C16.0056 21.7504 15.3298 21.7502 14.2818 21.75L14.1716 21.75H11H10.9436H10.9435C9.1058 21.75 7.65018 21.75 6.51098 21.5969C5.33856 21.4392 4.38961 21.1071 3.64124 20.3588C2.89288 19.6104 2.56076 18.6614 2.40313 17.489C2.24997 16.3498 2.24998 14.8942 2.25 13.0564V13V11V10.9436C2.24998 9.10582 2.24997 7.65019 2.40313 6.51098C2.56076 5.33856 2.89288 4.38961 3.64124 3.64124C4.38961 2.89288 5.33856 2.56076 6.51098 2.40313C7.65019 2.24997 9.10582 2.24998 10.9436 2.25ZM6.71085 3.88976C5.70476 4.02502 5.12511 4.27869 4.7019 4.7019C4.27869 5.12511 4.02502 5.70476 3.88976 6.71085C3.75159 7.73851 3.75 9.09318 3.75 11V13C3.75 14.9068 3.75159 16.2615 3.88976 17.2892C4.02502 18.2952 4.27869 18.8749 4.7019 19.2981C5.12511 19.7213 5.70476 19.975 6.71085 20.1102C7.73851 20.2484 9.09318 20.25 11 20.25H14.1716C14.6246 20.25 14.971 20.249 15.249 20.2414V20L15.249 19.948C15.249 19.0495 15.249 18.3003 15.3289 17.7055C15.4133 17.0777 15.599 16.5109 16.0545 16.0555C16.5099 15.6 17.0767 15.4143 17.7045 15.3299C18.2993 15.2499 19.0485 15.25 19.947 15.25L19.999 15.25H20.2414C20.249 14.9718 20.25 14.6251 20.25 14.1716V11C20.25 9.09318 20.2484 7.73851 20.1102 6.71085C19.975 5.70476 19.7213 5.12511 19.2981 4.7019C18.8749 4.27869 18.2952 4.02502 17.2892 3.88976C16.2615 3.75159 14.9068 3.75 13 3.75H11C9.09318 3.75 7.73851 3.75159 6.71085 3.88976ZM19.9297 16.75C19.0038 16.7501 18.3758 16.7532 17.9044 16.8165C17.443 16.8786 17.2455 16.9858 17.1151 17.1161C16.9848 17.2464 16.8776 17.4439 16.8156 17.9054C16.7522 18.3767 16.7491 19.0046 16.749 19.9302C16.808 19.9019 16.8661 19.8719 16.9232 19.84C17.2988 19.6311 17.624 19.3154 18.4697 18.4697C19.3154 17.624 19.6311 17.2988 19.84 16.9232C19.8717 16.8664 19.9016 16.8086 19.9297 16.75ZM6.24902 7.00003C6.24902 6.58582 6.58481 6.25003 6.99902 6.25003H14.999C15.4132 6.25003 15.749 6.58582 15.749 7.00003C15.749 7.41424 15.4132 7.75003 14.999 7.75003H6.99902C6.58481 7.75003 6.24902 7.41424 6.24902 7.00003ZM6.99902 10.25C6.58481 10.25 6.24902 10.5858 6.24902 11C6.24902 11.4142 6.58481 11.75 6.99902 11.75H12.999C13.4132 11.75 13.749 11.4142 13.749 11C13.749 10.5858 13.4132 10.25 12.999 10.25H6.99902ZM6.24902 15C6.24902 14.5858 6.58481 14.25 6.99902 14.25H8.99902C9.41324 14.25 9.74902 14.5858 9.74902 15C9.74902 15.4142 9.41324 15.75 8.99902 15.75H6.99902C6.58481 15.75 6.24902 15.4142 6.24902 15Z" fill="white"/>
</g>
</svg>
