<svg width="24" height="24" viewBox="0 0 24 24" fill="none" xmlns="http://www.w3.org/2000/svg">
<path fill-rule="evenodd" clip-rule="evenodd" d="M3.53033 16.4697C3.23744 16.1768 2.76256 16.1768 2.46967 16.4697C2.17678 16.7626 2.17678 17.2374 2.46967 17.5303L6.46967 21.5303C6.76256 21.8232 7.23744 21.8232 7.53033 21.5303L11.5303 17.5303C11.8232 17.2374 11.8232 16.7626 11.5303 16.4697C11.2374 16.1768 10.7626 16.1768 10.4697 16.4697L7.75 19.1893L7.75 7C7.75 6.58579 7.41421 6.25 7 6.25C6.58579 6.25 6.25 6.58579 6.25 7L6.25 19.1893L3.53033 16.4697ZM13.5303 7.53033C13.2374 7.82323 12.7626 7.82323 12.4697 7.53033C12.1768 7.23744 12.1768 6.76257 12.4697 6.46967L16.4697 2.46967C16.7626 2.17678 17.2374 2.17678 17.5303 2.46967L21.5303 6.46967C21.8232 6.76257 21.8232 7.23744 21.5303 7.53033C21.2374 7.82323 20.7626 7.82323 20.4697 7.53033L17.75 4.81066L17.75 17C17.75 17.4142 17.4142 17.75 17 17.75C16.5858 17.75 16.25 17.4142 16.25 17L16.25 4.81066L13.5303 7.53033Z" fill="#22282F"/>
</svg>
