<svg width="24" height="24" viewBox="0 0 24 24" fill="none" xmlns="http://www.w3.org/2000/svg">
<g id="Tag - 2">
<path id="Union" fill-rule="evenodd" clip-rule="evenodd" d="M5.13218 4.57505C5.2585 4.40738 5.40766 4.25823 5.57532 4.13191C5.82482 3.94393 6.16315 3.81802 6.77583 3.74986C7.40325 3.68005 8.22171 3.67896 9.39556 3.67896C10.7875 3.67896 11.3138 3.68798 11.7888 3.84686C11.9324 3.89491 12.0724 3.95292 12.2079 4.02049C12.6561 4.24398 13.0347 4.6098 14.0189 5.59402L17.541 9.11615C18.556 10.1311 19.2628 10.8402 19.7251 11.4461C20.1742 12.0347 20.3214 12.4371 20.3214 12.8285C20.3214 13.2199 20.1742 13.6222 19.7251 14.2108C19.2628 14.8168 18.556 15.5258 17.541 16.5408C16.5261 17.5558 15.817 18.2625 15.2111 18.7248C14.6225 19.1739 14.2201 19.3211 13.8287 19.3211C13.4373 19.3211 13.035 19.1739 12.4464 18.7248C11.8404 18.2625 11.1314 17.5558 10.1164 16.5408L6.5943 13.0186C5.61007 12.0344 5.24425 11.6559 5.02077 11.2077C4.9532 11.0722 4.89518 10.9321 4.84714 10.7885C4.68825 10.3135 4.67924 9.78718 4.67924 8.39528C4.67924 7.22144 4.68032 6.40298 4.75013 5.77555C4.8183 5.16287 4.94421 4.82455 5.13218 4.57505ZM4.67271 2.93387C4.39327 3.1444 4.14468 3.393 3.93415 3.67243C3.5182 4.22452 3.34215 4.86532 3.25933 5.60969C3.17921 6.32978 3.17922 7.23191 3.17924 8.35073L3.17924 8.39528L3.17922 8.52353C3.17893 9.74256 3.17874 10.5294 3.42463 11.2644C3.49485 11.4743 3.57964 11.679 3.6784 11.877C4.02425 12.5706 4.58075 13.1269 5.44294 13.9886L5.53364 14.0793L9.05576 17.6014L9.09457 17.6402C10.0616 18.6073 10.841 19.3867 11.5365 19.9174C12.2585 20.4683 12.9775 20.8211 13.8287 20.8211C14.68 20.8211 15.3989 20.4683 16.121 19.9174C16.8164 19.3868 17.5959 18.6073 18.5629 17.6403L18.5629 17.6402L18.6017 17.6014L18.6405 17.5626L18.6405 17.5626C19.6076 16.5956 20.387 15.8162 20.9176 15.1207C21.4685 14.3987 21.8214 13.6797 21.8214 12.8285C21.8214 11.9772 21.4685 11.2583 20.9176 10.5362C20.387 9.84076 19.6076 9.06132 18.6405 8.09432L18.6405 8.09429L18.6017 8.05549L15.0796 4.53336L14.9889 4.44266C14.1271 3.58048 13.5709 3.02397 12.8773 2.67812C12.6792 2.57937 12.4745 2.49457 12.2647 2.42436C11.5297 2.17847 10.7428 2.17866 9.52379 2.17894L9.39556 2.17896H9.35105C8.2322 2.17895 7.33006 2.17894 6.60996 2.25905C5.86559 2.34187 5.2248 2.51792 4.67271 2.93387ZM9.04304 9.29325C9.04304 8.60289 9.60269 8.04325 10.293 8.04325C10.9834 8.04325 11.543 8.60289 11.543 9.29325C11.543 9.9836 10.9834 10.5432 10.293 10.5432C9.60269 10.5432 9.04304 9.9836 9.04304 9.29325ZM10.293 6.54325C8.77426 6.54325 7.54304 7.77446 7.54304 9.29325C7.54304 10.812 8.77426 12.0432 10.293 12.0432C11.8118 12.0432 13.043 10.812 13.043 9.29325C13.043 7.77446 11.8118 6.54325 10.293 6.54325Z" fill="white"/>
</g>
</svg>
