<svg width="32" height="32" viewBox="0 0 32 32" fill="none" xmlns="http://www.w3.org/2000/svg">
<g id="Ticket">
<path id="Union" fill-rule="evenodd" clip-rule="evenodd" d="M5.99984 5.66663L5.95687 5.66663C5.37049 5.6666 4.8647 5.66658 4.44964 5.7042C4.01073 5.74398 3.57612 5.83206 3.1665 6.06855C2.71045 6.33186 2.33173 6.71057 2.06843 7.16663C1.83194 7.57624 1.74386 8.01085 1.70408 8.44976C1.66646 8.86482 1.66648 9.37061 1.6665 9.95699L1.6665 9.99996V13.098C1.6665 13.7802 2.21956 14.3333 2.9018 14.3333H3.99984C4.92031 14.3333 5.6665 15.0795 5.6665 16C5.6665 16.9204 4.92031 17.6666 3.99984 17.6666H2.9018C2.21956 17.6666 1.6665 18.2197 1.6665 18.9019V22L1.6665 22.0429C1.66648 22.6293 1.66646 23.1351 1.70408 23.5502C1.74386 23.9891 1.83194 24.4237 2.06843 24.8333C2.33173 25.2893 2.71045 25.6681 3.1665 25.9314C3.57612 26.1679 4.01073 26.2559 4.44964 26.2957C4.8647 26.3333 5.3705 26.3333 5.9569 26.3333H5.99984L11.9998 26.3333L25.9998 26.3333H26.0428C26.6292 26.3333 27.135 26.3333 27.55 26.2957C27.9889 26.2559 28.4236 26.1679 28.8332 25.9314C29.2892 25.6681 29.6679 25.2893 29.9312 24.8333C30.1677 24.4237 30.2558 23.9891 30.2956 23.5502C30.3332 23.1351 30.3332 22.6293 30.3332 22.043V22V18.9019C30.3332 18.2197 29.7801 17.6666 29.0979 17.6666H27.9998C27.0794 17.6666 26.3332 16.9204 26.3332 16C26.3332 15.0795 27.0794 14.3333 27.9998 14.3333H29.0979C29.7801 14.3333 30.3332 13.7802 30.3332 13.098V9.99996V9.95694C30.3332 9.37058 30.3332 8.8648 30.2956 8.44976C30.2558 8.01085 30.1677 7.57624 29.9312 7.16663C29.6679 6.71057 29.2892 6.33186 28.8332 6.06855C28.4236 5.83206 27.9889 5.74398 27.55 5.7042C27.135 5.66658 26.6292 5.6666 26.0428 5.66663L25.9998 5.66663H12.0012L11.9998 5.66663L11.9984 5.66663H5.99984ZM12.9998 24.3333V21.3333C12.9998 20.781 12.5521 20.3333 11.9998 20.3333C11.4476 20.3333 10.9998 20.781 10.9998 21.3333V24.3333H5.99984C5.35836 24.3333 4.94411 24.3323 4.63016 24.3039C4.32997 24.2767 4.22099 24.2308 4.1665 24.1993C4.01449 24.1115 3.88825 23.9853 3.80048 23.8333C3.76902 23.7788 3.72312 23.6698 3.69592 23.3696C3.66746 23.0557 3.6665 22.6414 3.6665 22V19.6666H3.99984C6.02488 19.6666 7.6665 18.025 7.6665 16C7.6665 13.9749 6.02488 12.3333 3.99984 12.3333H3.6665V9.99996C3.6665 9.35848 3.66746 8.94423 3.69592 8.63029C3.72312 8.33009 3.76902 8.22111 3.80048 8.16663C3.88825 8.01461 4.01449 7.88837 4.1665 7.8006C4.22099 7.76915 4.32997 7.72325 4.63017 7.69604C4.94411 7.66759 5.35836 7.66663 5.99984 7.66663H10.9998V10.6666C10.9998 11.2189 11.4476 11.6666 11.9998 11.6666C12.5521 11.6666 12.9998 11.2189 12.9998 10.6666V7.66663H25.9998C26.6413 7.66663 27.0556 7.66759 27.3695 7.69604C27.6697 7.72325 27.7787 7.76915 27.8332 7.8006C27.9852 7.88837 28.1114 8.01461 28.1992 8.16663C28.2307 8.22111 28.2766 8.33009 28.3038 8.63029C28.3322 8.94423 28.3332 9.35848 28.3332 9.99996V12.3333H27.9998C25.9748 12.3333 24.3332 13.9749 24.3332 16C24.3332 18.025 25.9748 19.6666 27.9998 19.6666H28.3332V22C28.3332 22.6414 28.3322 23.0557 28.3038 23.3696C28.2766 23.6698 28.2307 23.7788 28.1992 23.8333C28.1114 23.9853 27.9852 24.1115 27.8332 24.1993C27.7787 24.2308 27.6697 24.2767 27.3695 24.3039C27.0556 24.3323 26.6413 24.3333 25.9998 24.3333H12.9998ZM12.9998 14.6666C12.9998 14.1143 12.5521 13.6666 11.9998 13.6666C11.4476 13.6666 10.9998 14.1143 10.9998 14.6666V17.3333C10.9998 17.8856 11.4476 18.3333 11.9998 18.3333C12.5521 18.3333 12.9998 17.8856 12.9998 17.3333V14.6666Z" fill="#F46021"/>
</g>
</svg>
