<svg width="25" height="24" viewBox="0 0 25 24" fill="none" xmlns="http://www.w3.org/2000/svg">
<g id="User - Edit">
<path id="Union" fill-rule="evenodd" clip-rule="evenodd" d="M5.75 7C5.75 5.20507 7.20508 3.75 9 3.75C10.7949 3.75 12.25 5.20507 12.25 7C12.25 8.79493 10.7949 10.25 9 10.25C7.20508 10.25 5.75 8.79493 5.75 7ZM9 2.25C6.37665 2.25 4.25 4.37665 4.25 7C4.25 9.62335 6.37665 11.75 9 11.75C11.6234 11.75 13.75 9.62335 13.75 7C13.75 4.37665 11.6234 2.25 9 2.25ZM2.75 19C2.75 17.2051 4.20508 15.75 6 15.75H12C13.7949 15.75 15.25 17.2051 15.25 19C15.25 19.6904 14.6904 20.25 14 20.25H4C3.30965 20.25 2.75 19.6904 2.75 19ZM6 14.25C3.37665 14.25 1.25 16.3766 1.25 19C1.25 20.5188 2.48122 21.75 4 21.75H14C15.5188 21.75 16.75 20.5188 16.75 19C16.75 16.3766 14.6234 14.25 12 14.25H6Z" fill="white"/>
<g id="Union_2">
<mask id="path-2-outside-1_191_2245" maskUnits="userSpaceOnUse" x="14" y="2" width="11" height="11" fill="black">
<rect fill="white" x="14" y="2" width="11" height="11"/>
<path fill-rule="evenodd" clip-rule="evenodd" d="M22.0839 3.92948C22.3267 3.70876 22.6975 3.70876 22.9403 3.92949C22.9499 3.93815 22.9623 3.95043 23.0059 3.99409C23.0496 4.03776 23.0619 4.05019 23.0705 4.05971C23.2913 4.30252 23.2912 4.67332 23.0705 4.91613C23.0619 4.92565 23.0496 4.93808 23.0059 4.98174L22.5949 5.39276C22.0468 5.40527 21.5948 4.95343 21.607 4.40539L22.0183 3.99408C22.0619 3.95041 22.0744 3.93814 22.0839 3.92948ZM20.9586 3.97333L16.4192 8.51282L16.3817 8.55027C16.021 8.91089 15.788 9.14378 15.6256 9.4305C15.4633 9.71723 15.3835 10.0368 15.2598 10.5317L15.247 10.5831L15.0114 11.5255C14.9789 11.6556 15.017 11.7933 15.1119 11.8882C15.2068 11.9831 15.3445 12.0212 15.4746 11.9887L16.4169 11.7531L16.4683 11.7402L16.4684 11.7402C16.9632 11.6166 17.2828 11.5368 17.5696 11.3744C17.8563 11.2121 18.0892 10.9791 18.4498 10.6183L18.4872 10.5809L23.5461 5.52193L23.5526 5.5155L23.5526 5.51547C23.5869 5.48121 23.6132 5.45482 23.6358 5.42998C24.1214 4.8958 24.1214 4.08006 23.6358 3.54587C23.6133 3.52101 23.5868 3.4946 23.5525 3.46031L23.5462 3.45392L23.5398 3.44755C23.5055 3.41324 23.4791 3.38682 23.4542 3.36422C22.92 2.8786 22.1042 2.87859 21.57 3.36419C21.5452 3.38679 21.5188 3.4132 21.4845 3.44751L21.4781 3.45389L20.9782 3.95373C20.9715 3.96002 20.9649 3.96656 20.9586 3.97333ZM20.9598 5.05258C21.1359 5.50344 21.4967 5.86414 21.9476 6.04012L17.947 10.0407C17.5362 10.4516 17.3786 10.6047 17.1932 10.7097C17.0077 10.8147 16.7954 10.871 16.2317 11.012L15.9069 11.0931L15.9881 10.7684C16.1291 10.2047 16.1854 9.99232 16.2904 9.8069C16.3954 9.62147 16.5485 9.46389 16.9594 9.05301L20.9598 5.05258Z"/>
</mask>
<path fill-rule="evenodd" clip-rule="evenodd" d="M22.0839 3.92948C22.3267 3.70876 22.6975 3.70876 22.9403 3.92949C22.9499 3.93815 22.9623 3.95043 23.0059 3.99409C23.0496 4.03776 23.0619 4.05019 23.0705 4.05971C23.2913 4.30252 23.2912 4.67332 23.0705 4.91613C23.0619 4.92565 23.0496 4.93808 23.0059 4.98174L22.5949 5.39276C22.0468 5.40527 21.5948 4.95343 21.607 4.40539L22.0183 3.99408C22.0619 3.95041 22.0744 3.93814 22.0839 3.92948ZM20.9586 3.97333L16.4192 8.51282L16.3817 8.55027C16.021 8.91089 15.788 9.14378 15.6256 9.4305C15.4633 9.71723 15.3835 10.0368 15.2598 10.5317L15.247 10.5831L15.0114 11.5255C14.9789 11.6556 15.017 11.7933 15.1119 11.8882C15.2068 11.9831 15.3445 12.0212 15.4746 11.9887L16.4169 11.7531L16.4683 11.7402L16.4684 11.7402C16.9632 11.6166 17.2828 11.5368 17.5696 11.3744C17.8563 11.2121 18.0892 10.9791 18.4498 10.6183L18.4872 10.5809L23.5461 5.52193L23.5526 5.5155L23.5526 5.51547C23.5869 5.48121 23.6132 5.45482 23.6358 5.42998C24.1214 4.8958 24.1214 4.08006 23.6358 3.54587C23.6133 3.52101 23.5868 3.4946 23.5525 3.46031L23.5462 3.45392L23.5398 3.44755C23.5055 3.41324 23.4791 3.38682 23.4542 3.36422C22.92 2.8786 22.1042 2.87859 21.57 3.36419C21.5452 3.38679 21.5188 3.4132 21.4845 3.44751L21.4781 3.45389L20.9782 3.95373C20.9715 3.96002 20.9649 3.96656 20.9586 3.97333ZM20.9598 5.05258C21.1359 5.50344 21.4967 5.86414 21.9476 6.04012L17.947 10.0407C17.5362 10.4516 17.3786 10.6047 17.1932 10.7097C17.0077 10.8147 16.7954 10.871 16.2317 11.012L15.9069 11.0931L15.9881 10.7684C16.1291 10.2047 16.1854 9.99232 16.2904 9.8069C16.3954 9.62147 16.5485 9.46389 16.9594 9.05301L20.9598 5.05258Z" fill="white"/>
<path d="M22.9403 3.92949L22.8058 4.07748V4.07748L22.9403 3.92949ZM22.0839 3.92948L21.9494 3.78149L21.9494 3.78149L22.0839 3.92948ZM23.0059 3.99409L22.8645 4.13551L22.8645 4.13551L23.0059 3.99409ZM23.0705 4.05971L23.2185 3.92519L23.2185 3.92518L23.0705 4.05971ZM23.0705 4.91613L23.2185 5.05066L23.2185 5.05065L23.0705 4.91613ZM23.0059 4.98174L22.8645 4.84032L23.0059 4.98174ZM22.5949 5.39276L22.5995 5.59271C22.6509 5.59153 22.7 5.57057 22.7363 5.53418L22.5949 5.39276ZM21.607 4.40539L21.4655 4.26397C21.4291 4.30039 21.4082 4.34946 21.407 4.40095L21.607 4.40539ZM22.0183 3.99408L22.1597 4.1355V4.1355L22.0183 3.99408ZM16.4192 8.51282L16.5606 8.65426L16.5606 8.65424L16.4192 8.51282ZM20.9586 3.97333L21.1002 4.11485L21.1051 4.10955L20.9586 3.97333ZM16.3817 8.55027L16.5231 8.69172L16.5231 8.69171L16.3817 8.55027ZM15.6256 9.4305L15.4516 9.33197H15.4516L15.6256 9.4305ZM15.2598 10.5317L15.4539 10.5802L15.4539 10.5802L15.2598 10.5317ZM15.247 10.5831L15.441 10.6316L15.441 10.6316L15.247 10.5831ZM15.0114 11.5255L15.2054 11.574H15.2054L15.0114 11.5255ZM15.4746 11.9887L15.4261 11.7946H15.4261L15.4746 11.9887ZM16.4169 11.7531L16.3685 11.559L16.3684 11.5591L16.4169 11.7531ZM16.4683 11.7402L16.5168 11.9344L16.5242 11.9323L16.4683 11.7402ZM16.4684 11.7402L16.4198 11.5461L16.4125 11.5482L16.4684 11.7402ZM17.5696 11.3744L17.471 11.2004L17.5696 11.3744ZM18.4498 10.6183L18.3083 10.4769L18.3083 10.477L18.4498 10.6183ZM18.4872 10.5809L18.3458 10.4395L18.3458 10.4395L18.4872 10.5809ZM23.5461 5.52193L23.4047 5.38049L23.4047 5.38051L23.5461 5.52193ZM23.5526 5.5155L23.4125 5.37271L23.4111 5.37407L23.5526 5.5155ZM23.5526 5.51547L23.6926 5.65826L23.694 5.6569L23.5526 5.51547ZM23.6358 5.42998L23.4878 5.29545L23.4878 5.29546L23.6358 5.42998ZM23.6358 3.54587L23.7838 3.41134V3.41134L23.6358 3.54587ZM23.5525 3.46031L23.4111 3.60174V3.60174L23.5525 3.46031ZM23.5462 3.45392L23.4047 3.59532L23.4047 3.59536L23.5462 3.45392ZM23.5398 3.44755L23.3983 3.58895L23.3983 3.58895L23.5398 3.44755ZM23.4542 3.36422L23.3197 3.51221L23.3197 3.51221L23.4542 3.36422ZM21.57 3.36419L21.4355 3.2162L21.4355 3.2162L21.57 3.36419ZM21.4845 3.44751L21.6259 3.58891L21.6259 3.58891L21.4845 3.44751ZM21.4781 3.45389L21.6195 3.59531L21.6195 3.5953L21.4781 3.45389ZM20.9782 3.95373L21.1146 4.10027L21.1197 4.09515L20.9782 3.95373ZM21.9476 6.04012L22.089 6.18154C22.1367 6.13379 22.1572 6.06518 22.1433 5.99909C22.1295 5.933 22.0832 5.87836 22.0203 5.85381L21.9476 6.04012ZM20.9598 5.05258L21.1461 4.97981C21.1215 4.91692 21.0669 4.87067 21.0008 4.85682C20.9347 4.84298 20.8661 4.86341 20.8184 4.91115L20.9598 5.05258ZM17.947 10.0407L18.0885 10.1821L17.947 10.0407ZM17.1932 10.7097L17.2917 10.8837H17.2917L17.1932 10.7097ZM16.2317 11.012L16.2802 11.206H16.2802L16.2317 11.012ZM15.9069 11.0931L15.7129 11.0446C15.6959 11.1128 15.7158 11.1849 15.7655 11.2346C15.8152 11.2842 15.8873 11.3042 15.9555 11.2872L15.9069 11.0931ZM15.9881 10.7684L15.7941 10.7199L15.9881 10.7684ZM16.2904 9.8069L16.4644 9.90544H16.4644L16.2904 9.8069ZM16.9594 9.05301L17.1008 9.19443L16.9594 9.05301ZM23.0749 3.7815C22.7558 3.49143 22.2685 3.49142 21.9494 3.78149L22.2184 4.07748C22.385 3.92609 22.6393 3.9261 22.8058 4.07748L23.0749 3.7815ZM23.1474 3.85268C23.1056 3.81087 23.0888 3.79422 23.0749 3.7815L22.8058 4.07748C22.8109 4.08209 22.819 4.08999 22.8645 4.13551L23.1474 3.85268ZM23.2185 3.92518C23.2058 3.9112 23.1892 3.89449 23.1474 3.85268L22.8645 4.13551C22.91 4.18103 22.9179 4.18917 22.9225 4.19424L23.2185 3.92518ZM23.2185 5.05065C23.5086 4.73156 23.5086 4.24428 23.2185 3.92519L22.9225 4.19424C23.0739 4.36077 23.0739 4.61507 22.9225 4.7816L23.2185 5.05065ZM23.1474 5.12316C23.1892 5.08135 23.2058 5.06464 23.2185 5.05066L22.9225 4.7816C22.9179 4.78666 22.91 4.7948 22.8645 4.84032L23.1474 5.12316ZM22.7363 5.53418L23.1474 5.12316L22.8645 4.84032L22.4535 5.25134L22.7363 5.53418ZM21.407 4.40095C21.3923 5.06294 21.9374 5.60782 22.5995 5.59271L22.5904 5.19281C22.1562 5.20272 21.7973 4.84392 21.8069 4.40983L21.407 4.40095ZM21.8768 3.85266L21.4655 4.26397L21.7484 4.54681L22.1597 4.1355L21.8768 3.85266ZM21.9494 3.78149C21.9354 3.7942 21.9187 3.81085 21.8768 3.85266L22.1597 4.1355C22.2052 4.08998 22.2134 4.08208 22.2184 4.07748L21.9494 3.78149ZM16.5606 8.65424L21.1001 4.11476L20.8172 3.83191L16.2777 8.3714L16.5606 8.65424ZM16.5231 8.69171L16.5606 8.65426L16.2778 8.37138L16.2403 8.40883L16.5231 8.69171ZM15.7997 9.52904C15.9459 9.27085 16.1566 9.05807 16.5231 8.69172L16.2403 8.40882C15.8853 8.7637 15.6301 9.01672 15.4516 9.33197L15.7997 9.52904ZM15.4539 10.5802C15.5795 10.0774 15.6535 9.78724 15.7997 9.52904L15.4516 9.33197C15.2731 9.64722 15.1874 9.99624 15.0658 10.4833L15.4539 10.5802ZM15.441 10.6316L15.4539 10.5802L15.0658 10.4832L15.053 10.5346L15.441 10.6316ZM15.2054 11.574L15.441 10.6316L15.053 10.5346L14.8174 11.477L15.2054 11.574ZM15.2533 11.7468C15.2081 11.7016 15.1899 11.636 15.2054 11.574L14.8174 11.477C14.7678 11.6753 14.8259 11.8851 14.9705 12.0296L15.2533 11.7468ZM15.4261 11.7946C15.3641 11.8101 15.2985 11.792 15.2533 11.7468L14.9705 12.0296C15.115 12.1742 15.3248 12.2323 15.5231 12.1827L15.4261 11.7946ZM16.3684 11.5591L15.4261 11.7946L15.5231 12.1827L16.4655 11.9471L16.3684 11.5591ZM16.4198 11.5462L16.3685 11.559L16.4654 11.9471L16.5168 11.9343L16.4198 11.5462ZM16.4125 11.5482L16.4125 11.5482L16.5242 11.9323L16.5242 11.9323L16.4125 11.5482ZM17.471 11.2004C17.2128 11.3466 16.9226 11.4206 16.4199 11.5462L16.5168 11.9343C17.0038 11.8126 17.3528 11.727 17.6681 11.5485L17.471 11.2004ZM18.3083 10.477C17.942 10.8435 17.7292 11.0542 17.471 11.2004L17.6681 11.5485C17.9833 11.37 18.2364 11.1148 18.5912 10.7597L18.3083 10.477ZM18.3458 10.4395L18.3083 10.4769L18.5912 10.7597L18.6287 10.7223L18.3458 10.4395ZM23.4047 5.38051L18.3458 10.4395L18.6287 10.7223L23.6876 5.66335L23.4047 5.38051ZM23.4111 5.37407L23.4047 5.38049L23.6875 5.66336L23.694 5.65694L23.4111 5.37407ZM23.4126 5.37268L23.4125 5.37272L23.6926 5.65829L23.6926 5.65825L23.4126 5.37268ZM23.4878 5.29546C23.4691 5.31602 23.4465 5.33872 23.4112 5.37403L23.694 5.6569C23.7272 5.6237 23.7574 5.59363 23.7838 5.56451L23.4878 5.29546ZM23.4879 3.68039C23.9041 4.1383 23.9041 4.83756 23.4878 5.29545L23.7838 5.56451C24.3387 4.95405 24.3387 4.02182 23.7838 3.41134L23.4879 3.68039ZM23.4111 3.60174C23.4465 3.63709 23.4691 3.65981 23.4879 3.68039L23.7838 3.41134C23.7574 3.38221 23.7272 3.35211 23.6939 3.31887L23.4111 3.60174ZM23.4047 3.59536L23.4111 3.60174L23.6939 3.31887L23.6876 3.31249L23.4047 3.59536ZM23.3983 3.58895L23.4047 3.59532L23.6876 3.31252L23.6812 3.30615L23.3983 3.58895ZM23.3197 3.51221C23.3403 3.53092 23.363 3.55358 23.3983 3.58895L23.6812 3.30615C23.648 3.2729 23.6179 3.24272 23.5887 3.21623L23.3197 3.51221ZM21.7046 3.51218C22.1625 3.09593 22.8618 3.09594 23.3197 3.51221L23.5887 3.21623C22.9783 2.66127 22.046 2.66126 21.4355 3.2162L21.7046 3.51218ZM21.6259 3.58891C21.6613 3.55355 21.684 3.53089 21.7046 3.51218L21.4355 3.2162C21.4064 3.24268 21.3763 3.27286 21.343 3.3061L21.6259 3.58891ZM21.6195 3.5953L21.6259 3.58891L21.343 3.3061L21.3366 3.31249L21.6195 3.5953ZM21.1197 4.09515L21.6195 3.59531L21.3367 3.31247L20.8368 3.81231L21.1197 4.09515ZM21.1051 4.10955C21.1081 4.10631 21.1112 4.10318 21.1145 4.10017L20.842 3.80729C20.8317 3.81686 20.8218 3.82681 20.8122 3.83712L21.1051 4.10955ZM22.0203 5.85381C21.6214 5.69815 21.3018 5.37862 21.1461 4.97981L20.7735 5.12534C20.9699 5.62826 21.3719 6.03013 21.8749 6.22644L22.0203 5.85381ZM18.0885 10.1821L22.089 6.18154L21.8061 5.8987L17.8056 9.89929L18.0885 10.1821ZM17.2917 10.8837C17.5064 10.7622 17.6856 10.585 18.0885 10.1821L17.8056 9.89929C17.3867 10.3182 17.2508 10.4472 17.0946 10.5356L17.2917 10.8837ZM16.2802 11.206C16.8329 11.0678 17.077 11.0052 17.2917 10.8837L17.0946 10.5356C16.9384 10.6241 16.7579 10.6742 16.1831 10.8179L16.2802 11.206ZM15.9555 11.2872L16.2802 11.206L16.1831 10.8179L15.8584 10.8991L15.9555 11.2872ZM15.7941 10.7199L15.7129 11.0446L16.101 11.1416L16.1822 10.8169L15.7941 10.7199ZM16.1164 9.70836C15.9948 9.92302 15.9323 10.1672 15.7941 10.7199L16.1822 10.8169C16.3258 10.2422 16.376 10.0616 16.4644 9.90544L16.1164 9.70836ZM16.8179 8.91159C16.4151 9.31446 16.2379 9.49369 16.1164 9.70836L16.4644 9.90544C16.5529 9.74924 16.6819 9.61332 17.1008 9.19443L16.8179 8.91159ZM20.8184 4.91115L16.8179 8.91159L17.1008 9.19443L21.1012 5.194L20.8184 4.91115Z" fill="white" mask="url(#path-2-outside-1_191_2245)"/>
</g>
</g>
</svg>
