<svg width="32" height="32" viewBox="0 0 32 32" fill="none" xmlns="http://www.w3.org/2000/svg">
<path fill-rule="evenodd" clip-rule="evenodd" d="M11.668 9.33333C11.668 6.9401 13.6081 5 16.0013 5C18.3945 5 20.3346 6.9401 20.3346 9.33333C20.3346 11.7266 18.3945 13.6667 16.0013 13.6667C13.6081 13.6667 11.668 11.7266 11.668 9.33333ZM16.0013 3C12.5035 3 9.66797 5.83553 9.66797 9.33333C9.66797 12.8311 12.5035 15.6667 16.0013 15.6667C19.4991 15.6667 22.3346 12.8311 22.3346 9.33333C22.3346 5.83553 19.4991 3 16.0013 3ZM7.66797 25.3333C7.66797 22.9401 9.60807 21 12.0013 21H20.0013C22.3945 21 24.3346 22.9401 24.3346 25.3333C24.3346 26.2538 23.5884 27 22.668 27H9.33464C8.41416 27 7.66797 26.2538 7.66797 25.3333ZM12.0013 19C8.5035 19 5.66797 21.8355 5.66797 25.3333C5.66797 27.3584 7.30959 29 9.33464 29H22.668C24.693 29 26.3346 27.3584 26.3346 25.3333C26.3346 21.8355 23.4991 19 20.0013 19H12.0013Z" fill="#5D6AF2"/>
</svg>
