<svg width="24" height="24" viewBox="0 0 24 24" fill="none" xmlns="http://www.w3.org/2000/svg">
<path fill-rule="evenodd" clip-rule="evenodd" d="M11.9622 1.25H12H12.0378H12.0379C13.8751 1.25 15.305 1.24999 16.4475 1.35354C17.6082 1.45874 18.5457 1.67552 19.375 2.15433C20.4011 2.74677 21.2532 3.59887 21.8457 4.625C22.3245 5.45433 22.5413 6.39182 22.6465 7.55249C22.75 8.69502 22.75 10.1249 22.75 11.9621V12V12.0379C22.75 13.8751 22.75 15.305 22.6465 16.4475C22.5413 17.6082 22.3245 18.5457 21.8457 19.375C21.2532 20.4011 20.4011 21.2532 19.375 21.8457C18.5457 22.3245 17.6082 22.5413 16.4475 22.6465C15.305 22.75 13.8751 22.75 12.0379 22.75H12H11.9621C10.1249 22.75 8.69502 22.75 7.55249 22.6465C6.39182 22.5413 5.45433 22.3245 4.625 21.8457C3.59887 21.2532 2.74677 20.4011 2.15433 19.375C1.67552 18.5457 1.45874 17.6082 1.35354 16.4475C1.24999 15.305 1.25 13.8751 1.25 12.0379V12.0378V12V11.9622V11.9621C1.25 10.1249 1.24999 8.69502 1.35354 7.55249C1.45874 6.39182 1.67552 5.45433 2.15433 4.625C2.74677 3.59887 3.59887 2.74677 4.625 2.15433C5.45433 1.67552 6.39182 1.45874 7.55249 1.35354C8.69502 1.24999 10.1249 1.25 11.9621 1.25H11.9622ZM7.68789 2.84742C6.63125 2.94319 5.93798 3.12833 5.375 3.45337C4.5769 3.91415 3.91415 4.5769 3.45337 5.375C3.12833 5.93798 2.94319 6.63125 2.84742 7.68789C2.75072 8.75483 2.75 10.117 2.75 12C2.75 13.883 2.75072 15.2452 2.84742 16.3121C2.94319 17.3687 3.12833 18.062 3.45337 18.625C3.91415 19.4231 4.5769 20.0858 5.375 20.5466C5.93798 20.8717 6.63125 21.0568 7.68789 21.1526C8.75483 21.2493 10.117 21.25 12 21.25C13.883 21.25 15.2452 21.2493 16.3121 21.1526C17.3687 21.0568 18.062 20.8717 18.625 20.5466C19.4231 20.0858 20.0858 19.4231 20.5466 18.625C20.8717 18.062 21.0568 17.3687 21.1526 16.3121C21.2493 15.2452 21.25 13.883 21.25 12C21.25 10.117 21.2493 8.75483 21.1526 7.68789C21.0568 6.63125 20.8717 5.93798 20.5466 5.375C20.0858 4.5769 19.4231 3.91415 18.625 3.45337C18.062 3.12833 17.3687 2.94319 16.3121 2.84742C15.2452 2.75072 13.883 2.75 12 2.75C10.117 2.75 8.75483 2.75072 7.68789 2.84742ZM10.6667 13.75C9.60812 13.75 8.75 14.6081 8.75 15.6667C8.75 15.9888 9.01117 16.25 9.33333 16.25H14.6667C14.9888 16.25 15.25 15.9888 15.25 15.6667C15.25 14.6081 14.3919 13.75 13.3333 13.75H10.6667ZM7.25 15.6667C7.25 13.7797 8.77969 12.25 10.6667 12.25H13.3333C15.2203 12.25 16.75 13.7797 16.75 15.6667C16.75 16.8173 15.8173 17.75 14.6667 17.75H9.33333C8.18274 17.75 7.25 16.8173 7.25 15.6667ZM10.75 8C10.75 7.30964 11.3096 6.75 12 6.75C12.6904 6.75 13.25 7.30964 13.25 8C13.25 8.69036 12.6904 9.25 12 9.25C11.3096 9.25 10.75 8.69036 10.75 8ZM12 5.25C10.4812 5.25 9.25 6.48122 9.25 8C9.25 9.51878 10.4812 10.75 12 10.75C13.5188 10.75 14.75 9.51878 14.75 8C14.75 6.48122 13.5188 5.25 12 5.25Z" fill="#22282F"/>
</svg>
